<?xml version="1.0" ?>
<svg viewBox="0 0 32 32" xmlns="http://www.w3.org/2000/svg">
    <defs>
        <style>.cls-1{fill:#b1b0b0;}</style>
    </defs>
    <title/>
    <g id="Instagram">
        <path class="cls-1"
              d="M21,30H11a9,9,0,0,1-9-9V11a9,9,0,0,1,9-9H21a9,9,0,0,1,9,9V21A9,9,0,0,1,21,30ZM11,4a7,7,0,0,0-7,7V21a7,7,0,0,0,7,7H21a7,7,0,0,0,7-7V11a7,7,0,0,0-7-7Z"/>
        <path class="cls-1"
              d="M16,23a6.89,6.89,0,0,1-3-.66,1,1,0,0,1,.85-1.81,5,5,0,1,0-2.21-2,1,1,0,1,1-1.73,1A6.93,6.93,0,0,1,9,16a7,7,0,1,1,7,7Z"/>
        <circle class="cls-1" cx="23.5" cy="8.5" r="1.5"/>
    </g>
</svg>