<?xml version="1.0" ?>
<svg viewBox="0 0 32 32" xmlns="http://www.w3.org/2000/svg">
    <defs>
        <style>.cls-1{fill:#b1b0b0;}</style>
    </defs>
    <title/>
    <g id="Linkedin">
        <path class="cls-1"
              d="M27,30H5a3,3,0,0,1-3-3V5A3,3,0,0,1,5,2H27a3,3,0,0,1,3,3V27A3,3,0,0,1,27,30ZM5,4A1,1,0,0,0,4,5V27a1,1,0,0,0,1,1H27a1,1,0,0,0,1-1V5a1,1,0,0,0-1-1Z"/>
        <path class="cls-1" d="M9,12a1,1,0,0,1,0-2A1,1,0,1,0,8,9,1,1,0,0,1,6,9a3,3,0,1,1,3,3Z"/>
        <path class="cls-1"
              d="M11,26H7a1,1,0,0,1-1-1V14a1,1,0,0,1,1-1h4a1,1,0,0,1,1,1V25A1,1,0,0,1,11,26ZM8,24h2V15H8Z"/>
        <path class="cls-1"
              d="M25,26H21a1,1,0,0,1-1-1V19.14a4.91,4.91,0,0,0-1,.43V25a1,1,0,0,1-1,1H17a1,1,0,0,1,0-2V19a1,1,0,0,1,.45-.83c.7-.47,2.46-1.49,3.66-.85A1.77,1.77,0,0,1,22,19v5h2V17a1.48,1.48,0,0,0-.68-1.31c-.44-.25-1.79-.64-4.81,1.17A1,1,0,0,1,17,16V15H15V25a1,1,0,0,1-2,0V14a1,1,0,0,1,1-1h4a1,1,0,0,1,1,1v.33c2.68-1.23,4.34-.93,5.31-.38A3.42,3.42,0,0,1,26,17v8A1,1,0,0,1,25,26Z"/>
    </g>
</svg>