<?xml version="1.0" standalone="no"?>
<!--<!DOCTYPE svg PUBLIC "-//W3C//DTD SVG 20010904//EN"-->
<!-- "http://www.w3.org/TR/2001/REC-SVG-20010904/DTD/svg10.dtd">-->
<svg version="1.0" xmlns="http://www.w3.org/2000/svg"
 width="468.000000pt" height="328.000000pt" viewBox="0 0 468.000000 328.000000"
 preserveAspectRatio="xMidYMid meet"
style="filter: blur(.2rem)"
>

<g transform="translate(0.000000,328.000000) scale(0.100000,-0.100000)"
fill="#000000" stroke="none">
<path d="M921 3257 c22 -41 60 -87 69 -82 10 6 -48 90 -68 99 -10 4 -10 1 -1
-17z"/>
<path d="M1512 3265 c-16 -12 -22 -26 -22 -52 0 -20 -7 -44 -16 -54 -19 -21
-12 -67 16 -99 15 -17 22 -19 39 -11 25 14 61 59 61 78 0 18 77 115 102 129
14 8 17 13 9 18 -7 4 -38 -18 -76 -55 -42 -40 -70 -59 -80 -56 -21 9 -19 27
10 69 30 44 31 52 6 38 -13 -6 -21 -6 -23 0 -2 6 -12 4 -26 -5z"/>
<path d="M2207 3273 c-4 -3 -7 -14 -7 -23 0 -19 -46 -106 -61 -115 -14 -9 -11
-25 5 -25 11 0 39 48 94 163 5 9 -22 9 -31 0z"/>
<path d="M1385 3259 c-4 -6 -5 -13 -2 -16 7 -7 27 6 27 18 0 12 -17 12 -25 -2z"/>
<path d="M2830 3253 c0 -23 15 -39 24 -25 3 5 -1 18 -9 28 -14 18 -14 18 -15
-3z"/>
<path d="M724 3245 c21 -16 32 -13 21 4 -3 6 -14 11 -23 11 -15 -1 -15 -2 2
-15z"/>
<path d="M1785 3240 c-3 -5 -3 -15 0 -20 7 -12 45 5 45 20 0 13 -37 13 -45 0z"/>
<path d="M850 3220 c0 -5 16 -22 35 -37 19 -15 56 -61 81 -100 25 -40 50 -73
56 -73 17 0 -44 99 -99 160 -52 57 -73 72 -73 50z"/>
<path d="M2504 3206 c-38 -32 -27 -42 11 -11 17 13 27 26 24 30 -4 3 -20 -5
-35 -19z"/>
<path d="M2336 3213 c-9 -9 -7 -33 3 -33 12 0 22 28 12 34 -5 3 -11 3 -15 -1z"/>
<path d="M302 3199 c-26 -10 -21 -29 8 -29 35 0 52 11 39 26 -13 16 -16 16
-47 3z"/>
<path d="M2882 3175 c-15 -32 -15 -65 -2 -65 6 0 10 10 10 23 0 12 7 33 16 45
12 18 13 22 1 22 -8 0 -19 -11 -25 -25z"/>
<path d="M1781 3119 c-52 -63 -111 -114 -177 -156 -16 -10 -17 -12 -2 -12 22
-1 151 107 211 176 26 30 47 57 47 59 0 17 -28 -7 -79 -67z"/>
<path d="M1356 3130 c-4 -25 -17 -63 -28 -85 -27 -53 -55 -316 -39 -359 16
-41 25 -25 31 55 5 67 22 98 28 52 4 -27 17 -30 26 -7 4 10 13 13 25 9 27 -8
55 35 49 76 -4 22 0 33 11 37 9 3 19 10 23 16 11 16 10 76 -1 76 -17 0 -50
-50 -67 -103 -9 -29 -23 -59 -31 -67 -13 -13 -16 -12 -33 8 -40 49 -32 182 15
228 16 16 19 56 6 89 -7 16 -10 11 -15 -25z"/>
<path d="M2381 3146 c-7 -8 -26 -18 -42 -21 -16 -4 -29 -11 -29 -16 0 -14 21
-11 69 11 24 11 51 20 60 20 14 0 14 2 1 10 -22 14 -46 12 -59 -4z"/>
<path d="M2485 3130 c3 -5 13 -10 21 -10 8 0 14 5 14 10 0 6 -9 10 -21 10 -11
0 -17 -4 -14 -10z"/>
<path d="M2930 3130 c0 -5 5 -10 10 -10 7 0 7 -6 0 -19 -10 -20 4 -80 16 -68
3 3 1 14 -4 24 -7 13 -6 28 3 51 13 30 13 32 -5 32 -11 0 -20 -4 -20 -10z"/>
<path d="M1026 3105 c16 -25 34 -33 34 -16 0 12 -29 41 -41 41 -5 0 -2 -11 7
-25z"/>
<path d="M100 3112 c0 -15 174 -72 216 -72 27 1 -36 27 -84 36 -47 8 -103 25
-119 37 -8 6 -13 6 -13 -1z"/>
<path d="M2217 3093 c-27 -13 -47 -27 -44 -29 8 -8 86 18 98 32 19 23 -6 22
-54 -3z"/>
<path d="M603 3098 c2 -7 18 -12 35 -12 23 1 33 -3 37 -17 4 -10 13 -19 21
-19 20 0 17 10 -12 36 -27 26 -89 34 -81 12z"/>
<path d="M2630 3095 c0 -3 14 -24 31 -47 25 -35 29 -49 24 -76 -4 -23 -3 -32
4 -27 12 7 15 104 3 121 -12 18 -62 42 -62 29z"/>
<path d="M815 3079 c-10 -15 3 -25 16 -12 7 7 7 13 1 17 -6 3 -14 1 -17 -5z"/>
<path d="M425 3050 c-4 -6 2 -13 12 -17 10 -3 21 -8 26 -10 4 -2 7 0 7 4 0 14
-38 34 -45 23z"/>
<path d="M2058 2998 c-25 -35 -58 -73 -72 -85 -14 -13 -26 -28 -26 -34 0 -6
-23 -42 -50 -80 -28 -38 -58 -88 -67 -111 -9 -24 -26 -56 -37 -73 -12 -16 -28
-42 -36 -56 -52 -92 -120 -156 -120 -114 0 20 -13 19 -33 -3 -19 -21 -13 -32
15 -32 36 0 22 -50 -28 -98 -29 -27 -55 -65 -69 -100 -13 -31 -35 -82 -49
-112 -14 -30 -26 -70 -26 -87 0 -26 -4 -33 -19 -33 -23 0 -36 16 -21 25 5 3
10 15 10 25 0 22 -22 39 -28 22 -2 -7 -12 -12 -22 -12 -27 0 -34 -17 -10 -25
22 -7 26 -20 10 -30 -5 -3 -10 -15 -10 -25 0 -26 -58 -90 -81 -90 -30 0 -33
24 -11 97 11 38 22 105 24 149 3 60 10 91 26 118 26 44 27 55 7 70 -14 10 -13
18 1 71 9 33 22 83 28 111 15 59 34 87 132 188 40 42 40 42 12 38 -20 -3 -36
-18 -59 -53 -33 -53 -48 -60 -56 -29 -5 19 -6 19 -32 1 -14 -10 -39 -26 -55
-36 -26 -16 -28 -20 -21 -59 12 -65 10 -119 -6 -151 -24 -50 -43 -43 -75 25
-15 33 -31 57 -35 53 -11 -11 18 -94 38 -108 28 -20 28 -101 0 -210 -14 -55
-28 -120 -32 -144 -3 -24 -12 -56 -20 -72 -8 -15 -15 -55 -15 -88 0 -71 -17
-204 -31 -246 -11 -32 -37 -156 -46 -217 -3 -21 -11 -42 -19 -49 -8 -6 -14
-28 -14 -48 0 -40 -23 -81 -46 -81 -12 0 -13 7 -7 38 24 112 -34 565 -79 617
-12 13 -10 -23 3 -65 6 -19 12 -62 14 -95 2 -33 13 -116 24 -185 11 -69 18
-141 15 -160 -2 -19 -9 -107 -14 -195 -7 -131 -15 -180 -41 -270 -17 -60 -42
-130 -54 -155 -13 -25 -28 -64 -35 -87 -12 -49 -35 -57 -50 -18 -8 22 -15 25
-59 25 -69 0 -216 -24 -174 -28 17 -2 56 1 85 7 32 6 57 6 63 0 5 -5 16 -9 25
-9 9 0 29 -13 45 -30 26 -27 27 -33 22 -81 -7 -61 -31 -96 -43 -63 -12 33 -76
98 -113 116 -54 26 -115 23 -143 -6 -19 -21 -79 -49 -123 -59 -5 -1 -9 8 -8
20 3 26 1 27 -43 11 -28 -10 -36 -9 -52 5 -10 9 -21 17 -24 17 -3 0 -9 -25
-13 -55 -7 -62 -29 -85 -82 -85 -25 0 -32 5 -35 22 -4 29 -34 35 -59 12 -12
-11 -19 -30 -19 -56 l0 -38 70 6 c39 4 70 4 70 1 0 -3 -5 -18 -10 -32 -9 -23
-14 -26 -40 -20 -24 5 -31 3 -36 -12 -4 -10 -16 -26 -28 -35 -12 -10 -22 -30
-23 -50 -2 -18 -5 -53 -8 -78 -6 -43 -4 -46 25 -63 38 -21 59 -22 66 -3 3 8
12 12 19 10 7 -3 16 0 20 6 6 9 10 9 16 -1 7 -11 15 -8 34 14 18 20 36 29 60
30 19 1 35 5 35 9 0 7 58 38 71 38 5 0 15 -12 23 -27 l15 -28 1 48 c0 40 3 47
20 47 11 0 30 -11 42 -25 37 -42 69 -23 44 26 -10 20 -18 23 -51 20 -22 -1
-49 -9 -60 -17 -38 -27 -91 -15 -106 23 -8 21 -12 23 -24 13 -8 -7 -15 -23
-15 -36 0 -19 5 -24 24 -24 27 0 44 -17 30 -30 -5 -4 -42 -11 -81 -14 l-73 -7
0 27 c0 23 -3 25 -22 19 -56 -17 -68 -17 -68 -2 0 8 14 27 30 40 23 20 37 25
63 20 32 -5 33 -3 70 68 25 49 34 76 27 83 -5 5 -10 14 -10 18 0 12 38 10 45
-2 9 -14 25 -12 25 3 0 12 102 87 118 87 5 0 23 11 42 25 45 33 88 40 133 21
21 -8 37 -19 37 -24 0 -5 -16 -30 -36 -56 -21 -25 -34 -49 -31 -52 3 -4 20 15
38 40 18 25 38 46 45 46 17 0 51 -45 64 -86 12 -37 1 -166 -22 -249 -20 -73
-17 -111 8 -101 7 3 14 0 16 -6 6 -18 78 41 78 63 0 11 5 19 11 19 6 0 9 9 6
19 -3 13 -1 18 9 14 8 -3 21 13 35 44 12 26 33 62 47 78 14 17 30 42 36 56 12
28 127 139 145 139 6 0 11 4 11 9 0 11 90 101 101 101 5 0 9 5 9 10 0 6 5 10
12 10 6 0 18 6 27 14 90 80 135 126 129 132 -4 4 -16 1 -25 -7 -15 -11 -15
-10 1 9 11 13 31 22 46 22 27 0 86 55 133 124 10 14 26 26 37 26 24 0 36 18
21 33 -7 7 -15 6 -28 -4 -10 -9 -47 -28 -83 -43 -120 -51 -135 -59 -172 -88
-21 -16 -38 -36 -38 -44 0 -8 -9 -14 -20 -14 -11 0 -20 -6 -20 -12 0 -27 -50
-119 -67 -124 -10 -3 -27 -10 -38 -14 -68 -30 -96 -38 -114 -33 -16 4 -21 1
-21 -14 0 -29 -50 -123 -66 -123 -16 0 -19 16 -4 25 6 3 10 17 10 31 0 20 -5
24 -29 24 -50 0 -48 22 7 110 12 19 22 43 22 53 0 9 4 17 10 17 5 0 17 15 26
33 9 17 37 55 60 83 45 52 52 70 33 76 -8 3 -8 15 -1 43 6 22 19 73 28 113 10
41 23 72 30 72 15 0 20 17 29 95 8 68 36 148 61 176 11 12 14 27 10 45 -5 19
2 42 27 87 19 34 37 74 40 88 4 14 18 31 32 37 17 8 25 20 25 36 0 14 10 33
25 44 18 15 25 29 25 56 0 20 4 36 10 36 5 0 23 20 40 45 37 53 94 95 131 95
15 0 42 6 60 14 36 15 35 15 -19 32 -25 7 -7 39 31 58 37 17 41 18 89 2 28 -9
53 -14 56 -12 10 11 -12 24 -67 40 -50 14 -64 15 -81 4 -18 -11 -23 -10 -36 6
-26 37 -17 65 41 122 46 44 54 58 49 78 -4 19 0 28 22 42 16 11 39 45 57 84
16 36 40 80 54 99 14 18 31 53 39 76 12 40 112 184 149 215 8 7 15 23 15 35 0
27 46 75 71 75 13 0 19 7 19 24 0 13 3 38 6 55 10 47 -7 38 -58 -31z m-418
-698 c-12 -16 -25 -30 -29 -30 -4 0 -13 -10 -19 -22 -6 -14 -11 -17 -11 -8 -1
12 66 90 77 90 2 0 -6 -13 -18 -30z m-60 -215 c0 -22 -66 -105 -84 -105 -14 0
-4 45 20 86 30 50 64 61 64 19z m-269 -267 c-25 -41 -41 -47 -41 -16 0 29 17
48 43 48 18 0 18 -1 -2 -32z m-1104 -1434 c8 -21 -14 -67 -30 -61 -11 4 -13
36 -2 65 6 17 24 15 32 -4z"/>
<path d="M2285 3045 l-30 -14 30 6 c17 3 34 10 40 14 14 13 -5 10 -40 -6z"/>
<path d="M1073 3023 c9 -21 9 -27 -1 -31 -6 -2 -12 -10 -12 -19 0 -20 21 -12
30 13 8 22 -4 64 -19 64 -7 0 -6 -10 2 -27z"/>
<path d="M2890 3036 c0 -7 8 -20 17 -27 15 -12 16 -12 10 4 -4 10 -7 23 -7 28
0 5 -4 9 -10 9 -5 0 -10 -6 -10 -14z"/>
<path d="M3001 3009 c8 -16 13 -18 19 -9 11 17 45 8 45 -13 0 -9 5 -17 10 -17
9 0 10 5 7 30 -2 8 -63 30 -85 30 -4 0 -3 -10 4 -21z"/>
<path d="M2460 3011 c0 -5 7 -14 15 -21 8 -7 15 -20 16 -29 0 -10 2 -11 6 -3
2 6 11 12 19 12 8 0 14 3 14 8 -1 10 -70 43 -70 33z"/>
<path d="M300 2955 c-7 -8 -8 -15 -2 -15 5 0 15 7 22 15 7 8 8 15 2 15 -5 0
-15 -7 -22 -15z"/>
<path d="M4351 2965 c0 -14 28 -50 34 -43 3 3 -3 16 -14 29 -11 13 -20 20 -20
14z"/>
<path d="M816 2952 c-3 -5 8 -18 24 -30 28 -21 29 -21 52 -2 l23 20 -31 -6
c-23 -4 -33 -2 -37 10 -7 17 -23 21 -31 8z"/>
<path d="M3768 2932 c5 -9 12 -24 15 -32 3 -9 6 -4 6 11 1 15 -6 29 -14 33
-12 4 -13 2 -7 -12z"/>
<path d="M3917 2936 c-3 -8 -2 -18 3 -21 13 -8 24 15 12 27 -6 6 -11 4 -15 -6z"/>
<path d="M1126 2909 c-7 -39 4 -61 16 -30 7 20 10 22 25 10 15 -13 15 -12 5 7
-6 11 -17 26 -25 32 -12 10 -16 7 -21 -19z"/>
<path d="M690 2905 c0 -10 10 -15 26 -15 22 0 25 2 14 15 -7 8 -19 15 -26 15
-8 0 -14 -7 -14 -15z"/>
<path d="M1562 2897 c-25 -26 -78 -145 -68 -154 3 -3 7 -4 9 -2 12 15 87 172
84 175 -2 2 -13 -6 -25 -19z"/>
<path d="M1642 2885 c0 -16 2 -22 5 -12 2 9 2 23 0 30 -3 6 -5 -1 -5 -18z"/>
<path d="M2070 2880 c-13 -9 -13 -10 0 -9 8 1 26 5 40 9 l25 8 -25 1 c-14 0
-32 -4 -40 -9z"/>
<path d="M3690 2868 c0 -19 2 -20 10 -8 13 19 13 30 0 30 -5 0 -10 -10 -10
-22z"/>
<path d="M1831 2869 c-13 -5 -22 -12 -19 -15 8 -8 58 7 58 17 0 11 -8 11 -39
-2z"/>
<path d="M3877 2860 c-3 -11 -1 -20 4 -20 5 0 9 9 9 20 0 11 -2 20 -4 20 -2 0
-6 -9 -9 -20z"/>
<path d="M2240 2848 c14 -6 49 -22 79 -35 68 -30 80 -29 51 2 -25 27 -77 45
-125 44 l-30 0 25 -11z"/>
<path d="M2762 2841 c7 -11 19 -23 27 -26 11 -5 11 -2 -1 17 -20 30 -45 39
-26 9z"/>
<path d="M1190 2833 c0 -5 12 -20 26 -34 24 -21 26 -22 16 -3 -13 25 -42 50
-42 37z"/>
<path d="M1731 2829 c-16 -6 -21 -13 -14 -20 13 -13 43 -1 43 17 0 8 -1 14 -2
13 -2 0 -14 -5 -27 -10z"/>
<path d="M139 2813 c-13 -15 -12 -15 9 -4 23 12 28 21 13 21 -5 0 -15 -7 -22
-17z"/>
<path d="M1149 2812 c6 -12 16 -24 22 -28 8 -4 8 -1 0 14 -6 12 -16 24 -22 28
-8 4 -8 1 0 -14z"/>
<path d="M2141 2821 c-15 -10 -8 -41 9 -41 15 0 25 29 14 40 -5 5 -15 5 -23 1z"/>
<path d="M1045 2810 c-4 -7 3 -8 22 -4 38 9 42 14 10 14 -14 0 -29 -5 -32 -10z"/>
<path d="M3599 2784 c-9 -19 -14 -34 -10 -34 10 0 41 59 33 64 -4 2 -14 -12
-23 -30z"/>
<path d="M839 2796 c19 -23 51 -40 51 -27 0 6 -15 18 -32 27 -31 16 -32 16
-19 0z"/>
<path d="M1658 2803 c-10 -2 -18 -11 -18 -19 0 -18 15 -18 34 2 25 24 22 27
-16 17z"/>
<path d="M3496 2803 c-3 -3 -6 -25 -6 -48 0 -25 -11 -67 -26 -99 -14 -32 -24
-60 -20 -63 3 -3 11 7 17 23 7 16 23 51 36 78 12 28 23 62 23 77 0 28 -12 44
-24 32z"/>
<path d="M2540 2785 c-25 -7 -55 -14 -68 -14 -42 -2 -78 -29 -103 -77 -27 -53
-76 -115 -63 -79 9 23 9 23 -67 -37 -25 -20 -58 -40 -72 -44 -15 -3 -27 -10
-27 -16 0 -5 8 -7 19 -3 10 3 23 -1 30 -9 10 -11 6 -22 -21 -52 -32 -37 -33
-39 -33 -133 0 -53 4 -104 9 -113 6 -14 2 -20 -17 -27 -26 -10 -43 -29 -34
-38 3 -3 24 -2 47 2 30 5 39 10 31 18 -11 11 -16 47 -6 47 3 0 22 -9 42 -20
21 -11 46 -20 55 -20 10 0 24 -12 32 -27 32 -59 33 -60 60 -33 15 13 26 29 26
37 0 7 4 13 9 13 5 0 14 15 21 33 7 17 19 46 26 64 8 17 14 36 14 42 0 5 6 14
14 18 8 4 37 29 64 56 28 26 55 47 61 47 19 0 36 49 23 62 -7 7 -12 19 -12 29
0 9 -9 28 -20 42 -13 16 -16 28 -10 32 5 3 11 0 11 -7 1 -7 4 1 8 17 5 22 12
29 25 27 9 -2 24 2 31 8 8 7 23 9 35 5 16 -5 20 -2 20 16 0 17 3 19 14 10 15
-13 200 -35 221 -27 7 2 19 -4 28 -15 9 -10 35 -22 57 -25 22 -4 40 -10 40
-14 0 -4 13 -10 30 -13 46 -10 153 -122 178 -188 11 -30 18 -57 15 -62 -2 -4
-28 -4 -57 -1 -60 7 -91 -5 -102 -38 -3 -12 -13 -28 -20 -36 -18 -18 -18 -36
2 -73 8 -17 13 -36 11 -42 -5 -15 50 -87 66 -87 7 0 30 -14 51 -30 21 -16 42
-27 47 -25 16 11 33 125 33 235 1 102 3 116 18 116 9 0 19 -11 23 -23 3 -13
10 -23 16 -23 26 0 -35 119 -90 178 -43 46 -48 61 -31 93 14 24 -3 59 -29 59
-10 0 -26 10 -37 21 -10 12 -38 30 -60 40 -25 11 -44 28 -47 40 -5 17 -11 20
-31 17 -16 -3 -26 -1 -26 7 0 6 -9 21 -21 33 -18 20 -27 22 -87 16 -37 -3 -82
-10 -101 -15 -19 -4 -39 -5 -45 -1 -6 4 -33 7 -61 8 -27 0 -66 3 -85 6 -19 4
-55 0 -80 -7z"/>
<path d="M1189 2742 c10 -33 49 -112 56 -112 3 0 -2 16 -10 35 -8 19 -22 51
-30 70 -18 42 -27 46 -16 7z"/>
<path d="M3687 2756 c-4 -10 -5 -21 -2 -24 9 -9 17 6 13 25 -3 17 -4 17 -11
-1z"/>
<path d="M3787 2763 c-10 -9 -9 -23 2 -23 5 0 11 7 15 15 5 15 -5 20 -17 8z"/>
<path d="M3846 2735 c-3 -8 -1 -15 4 -15 6 0 10 7 10 15 0 8 -2 15 -4 15 -2 0
-6 -7 -10 -15z"/>
<path d="M1662 2695 c1 -22 -2 -50 -6 -62 -9 -28 2 -52 15 -32 11 18 10 88 -1
114 -7 16 -9 11 -8 -20z"/>
<path d="M1755 2720 c-3 -5 -4 -14 0 -20 8 -13 35 -1 35 16 0 16 -26 19 -35 4z"/>
<path d="M2152 2715 c-19 -8 -46 -12 -62 -8 -23 4 -30 2 -30 -11 0 -20 35 -21
74 -1 15 8 41 15 57 15 15 0 31 5 34 10 9 15 -35 12 -73 -5z"/>
<path d="M2285 2721 c-7 -12 12 -24 25 -16 11 7 4 25 -10 25 -5 0 -11 -4 -15
-9z"/>
<path d="M955 2701 c11 -13 29 -28 40 -33 20 -11 20 -11 0 11 -11 13 -29 28
-40 33 -20 11 -20 11 0 -11z"/>
<path d="M3950 2711 c0 -6 5 -13 10 -16 15 -9 12 -42 -6 -70 -8 -13 -14 -34
-12 -47 4 -19 9 -14 30 30 25 52 25 55 10 83 -17 28 -32 38 -32 20z"/>
<path d="M4578 2692 c-33 -7 -19 -25 13 -18 17 3 42 6 55 6 13 0 24 3 24 8 0
8 -63 11 -92 4z"/>
<path d="M1932 2658 c-18 -11 -32 -22 -30 -24 7 -6 98 29 98 37 0 15 -33 9
-68 -13z"/>
<path d="M3630 2646 c-6 -9 -10 -21 -8 -28 3 -8 9 -4 17 10 15 28 9 39 -9 18z"/>
<path d="M4345 2650 c-4 -6 5 -10 19 -10 14 0 26 5 26 10 0 6 -9 10 -19 10
-11 0 -23 -4 -26 -10z"/>
<path d="M4140 2640 c-12 -8 -12 -10 2 -15 20 -8 41 2 33 16 -8 11 -16 11 -35
-1z"/>
<path d="M4096 2575 c-3 -8 -1 -15 4 -15 6 0 10 7 10 15 0 8 -2 15 -4 15 -2 0
-6 -7 -10 -15z"/>
<path d="M4535 2580 c-8 -13 5 -13 25 0 13 8 13 10 -2 10 -9 0 -20 -4 -23 -10z"/>
<path d="M1656 2537 c-5 -21 -6 -41 -2 -44 12 -12 17 5 14 43 l-4 39 -8 -38z"/>
<path d="M4025 2537 c-4 -13 -5 -30 -3 -38 2 -9 -7 -15 -29 -17 -17 -2 -37
-10 -43 -18 -7 -8 -23 -14 -35 -14 -23 0 -50 -23 -43 -37 1 -4 50 15 108 44
67 33 97 52 81 52 -20 1 -22 5 -17 26 4 14 2 25 -4 25 -5 0 -12 -10 -15 -23z"/>
<path d="M891 2541 c-8 -5 -9 -11 -3 -15 13 -8 42 3 42 15 0 11 -21 11 -39 0z"/>
<path d="M1567 2522 c-19 -20 -23 -37 -7 -27 10 6 33 45 27 45 -2 0 -11 -8
-20 -18z"/>
<path d="M2055 2483 c-16 -9 -43 -19 -59 -22 -16 -4 -32 -13 -34 -20 -4 -11 2
-13 24 -8 42 8 124 46 124 57 0 14 -21 11 -55 -7z"/>
<path d="M3616 2483 c-2 -10 -7 -28 -11 -40 -4 -13 -2 -23 4 -23 5 0 12 8 15
18 2 9 7 27 11 40 4 12 2 22 -4 22 -5 0 -12 -8 -15 -17z"/>
<path d="M3760 2431 c0 -17 5 -33 10 -36 6 -4 10 8 10 29 0 20 -4 36 -10 36
-5 0 -10 -13 -10 -29z"/>
<path d="M2837 2439 c-9 -6 -26 -7 -37 -4 -10 3 -27 2 -37 -3 -10 -6 -30 -15
-45 -21 -16 -6 -28 -17 -28 -25 0 -20 28 -28 52 -15 32 17 121 15 148 -4 l23
-16 -28 -11 c-22 -8 -35 -8 -52 1 -18 10 -26 10 -35 1 -7 -7 -22 -12 -35 -12
-13 0 -23 -4 -23 -9 0 -5 -9 -11 -20 -14 -25 -6 -37 -34 -21 -50 8 -8 14 -8
23 1 14 14 57 16 77 3 9 -6 21 -5 33 2 24 15 39 -5 36 -48 -5 -50 26 -43 88
22 30 32 60 65 64 74 13 22 -50 94 -95 110 -19 7 -35 17 -35 21 0 11 -31 9
-53 -3z"/>
<path d="M1497 2409 c-27 -22 -35 -35 -28 -42 8 -8 22 -1 48 23 21 19 42 38
48 42 5 5 0 8 -11 8 -11 0 -37 -14 -57 -31z"/>
<path d="M222 2398 c5 -15 28 -23 28 -10 0 5 -7 13 -16 16 -10 4 -14 1 -12 -6z"/>
<path d="M1807 2383 c-20 -16 -47 -36 -59 -46 l-23 -18 35 7 c19 3 40 12 46
19 6 8 35 25 65 39 l54 24 -41 1 c-30 1 -51 -6 -77 -26z"/>
<path d="M1000 2380 c0 -5 7 -10 15 -10 8 0 15 5 15 10 0 6 -7 10 -15 10 -8 0
-15 -4 -15 -10z"/>
<path d="M785 2365 c-16 -8 -42 -19 -57 -24 -16 -6 -28 -17 -28 -25 0 -12 10
-10 46 9 26 14 59 25 73 25 38 0 72 11 65 21 -8 14 -65 10 -99 -6z"/>
<path d="M4605 2370 c-18 -7 -18 -9 -3 -15 9 -3 25 -2 35 3 10 5 25 7 33 5 13
-4 13 -3 0 6 -18 12 -37 13 -65 1z"/>
<path d="M530 2324 c0 -13 18 -39 24 -34 2 3 -2 14 -10 24 -8 11 -14 16 -14
10z"/>
<path d="M1012 2318 c5 -15 28 -23 28 -10 0 5 -7 13 -16 16 -10 4 -14 1 -12
-6z"/>
<path d="M1840 2320 c0 -5 4 -10 9 -10 6 0 13 5 16 10 3 6 -1 10 -9 10 -9 0
-16 -4 -16 -10z"/>
<path d="M1936 2316 c10 -8 21 -12 24 -10 5 6 -21 24 -34 24 -6 0 -1 -6 10
-14z"/>
<path d="M4367 2313 c-10 -9 -9 -23 2 -23 5 0 11 7 15 15 5 15 -5 20 -17 8z"/>
<path d="M3995 2301 c-3 -5 8 -9 24 -9 17 1 28 5 25 10 -7 11 -41 10 -49 -1z"/>
<path d="M50 2280 c0 -12 28 -25 36 -17 3 3 -4 10 -15 17 -15 7 -21 7 -21 0z"/>
<path d="M593 2256 c4 -10 7 -33 7 -52 0 -31 3 -34 30 -34 20 0 30 -5 30 -15
0 -9 10 -20 23 -25 31 -12 118 -101 171 -175 14 -19 15 -19 22 -2 4 12 -1 26
-15 41 -27 28 -27 36 2 36 12 0 28 4 35 9 11 7 10 10 -3 15 -9 3 -27 6 -40 6
-27 0 -48 30 -39 54 5 13 1 13 -23 4 -26 -10 -34 -7 -81 27 -29 20 -55 47 -58
60 -3 12 -19 33 -36 45 -26 19 -30 20 -25 6z"/>
<path d="M4370 2220 c0 -5 -11 -10 -25 -10 -14 0 -25 -4 -25 -9 0 -20 19 -20
45 0 20 16 29 19 38 10 6 -6 18 -11 26 -11 11 0 10 4 -5 15 -22 17 -54 20 -54
5z"/>
<path d="M1976 2211 c-4 -6 -3 -18 2 -27 6 -11 11 -13 16 -5 4 6 3 18 -2 27
-6 11 -11 13 -16 5z"/>
<path d="M3718 2195 c-22 -29 -22 -39 -2 -56 10 -8 13 -21 9 -38 -6 -24 -5
-25 10 -10 13 12 13 21 4 47 -9 27 -8 36 5 51 19 21 20 31 4 31 -7 0 -21 -11
-30 -25z"/>
<path d="M4130 2211 c0 -5 7 -11 15 -15 8 -3 15 -1 15 3 0 5 -7 11 -15 15 -8
3 -15 1 -15 -3z"/>
<path d="M355 2166 c11 -8 23 -12 28 -9 13 8 -3 23 -26 23 -20 0 -20 0 -2 -14z"/>
<path d="M3855 2170 c-3 -5 3 -10 15 -10 12 0 18 5 15 10 -3 6 -10 10 -15 10
-5 0 -12 -4 -15 -10z"/>
<path d="M4650 2170 c0 -5 5 -10 10 -10 6 0 10 5 10 10 0 6 -4 10 -10 10 -5 0
-10 -4 -10 -10z"/>
<path d="M835 2140 c-3 -5 1 -10 9 -10 9 0 16 5 16 10 0 6 -4 10 -9 10 -6 0
-13 -4 -16 -10z"/>
<path d="M3995 2126 l-40 -21 28 -3 c31 -4 81 23 72 38 -8 13 -12 12 -60 -14z"/>
<path d="M279 2120 c-31 -25 -18 -25 23 0 20 12 26 20 17 20 -9 0 -27 -9 -40
-20z"/>
<path d="M3367 2122 c-19 -20 -23 -37 -7 -27 10 6 33 45 27 45 -2 0 -11 -8
-20 -18z"/>
<path d="M4319 2119 c-23 -19 -23 -20 -3 -14 13 3 26 -1 34 -10 7 -8 20 -15
29 -15 14 1 14 2 -1 11 -10 5 -18 19 -18 29 0 25 -12 25 -41 -1z"/>
<path d="M4545 2130 c3 -5 13 -10 21 -10 8 0 12 5 9 10 -3 6 -13 10 -21 10 -8
0 -12 -4 -9 -10z"/>
<path d="M3420 2052 c0 -29 4 -52 9 -52 8 0 3 90 -5 99 -2 2 -4 -19 -4 -47z"/>
<path d="M4632 2084 c1 -9 9 -19 16 -22 9 -3 13 2 10 14 -1 9 -9 19 -16 22 -9
3 -13 -2 -10 -14z"/>
<path d="M510 2066 c0 -18 16 -29 30 -21 13 8 1 35 -16 35 -8 0 -14 -6 -14
-14z"/>
<path d="M2202 2067 c-10 -11 -9 -17 3 -27 24 -20 45 4 24 26 -14 13 -17 13
-27 1z"/>
<path d="M22 2058 c-7 -7 -12 -21 -12 -32 1 -18 3 -17 16 7 17 31 15 44 -4 25z"/>
<path d="M180 2051 c0 -11 5 -23 10 -26 6 -4 10 5 10 19 0 14 -4 26 -10 26 -5
0 -10 -9 -10 -19z"/>
<path d="M3840 2049 c-19 -11 -40 -19 -47 -19 -17 0 -27 -20 -15 -32 11 -11
68 18 92 47 19 23 9 25 -30 4z"/>
<path d="M4100 2038 c0 -18 20 -38 38 -38 19 0 10 20 -16 38 -19 12 -22 12
-22 0z"/>
<path d="M4286 2029 c-14 -11 -26 -25 -26 -32 0 -6 9 -1 20 11 12 12 29 22 40
22 10 0 22 5 25 10 11 18 -32 10 -59 -11z"/>
<path d="M4405 2031 c-10 -17 11 -21 31 -6 18 14 18 14 -3 15 -12 0 -24 -4
-28 -9z"/>
<path d="M4543 2009 c2 -34 2 -34 -38 -32 l-40 2 32 -11 c18 -6 39 -8 47 -5
17 7 21 44 7 66 -7 10 -9 4 -8 -20z"/>
<path d="M394 2005 c11 -8 22 -12 25 -9 6 6 -19 24 -34 24 -5 -1 -1 -7 9 -15z"/>
<path d="M3620 1991 c0 -16 5 -33 10 -36 6 -4 10 6 10 24 0 16 -4 33 -10 36
-6 4 -10 -6 -10 -24z"/>
<path d="M1958 1980 c-26 -27 -27 -40 -2 -40 14 0 46 58 36 64 -4 2 -19 -9
-34 -24z"/>
<path d="M1880 1992 c0 -5 7 -15 15 -22 8 -7 15 -8 15 -2 0 5 -7 15 -15 22 -8
7 -15 8 -15 2z"/>
<path d="M4613 1984 c-3 -8 -1 -25 5 -37 l11 -22 0 23 c1 12 8 25 16 28 22 9
18 24 -5 24 -11 0 -23 -7 -27 -16z"/>
<path d="M678 1954 c-6 -48 -2 -55 12 -20 6 17 7 34 1 43 -6 12 -10 6 -13 -23z"/>
<path d="M3945 1980 c-3 -5 1 -10 9 -10 9 0 16 5 16 10 0 6 -4 10 -9 10 -6 0
-13 -4 -16 -10z"/>
<path d="M2932 1969 c-40 -12 -37 -33 5 -37 21 -2 34 -11 41 -28 7 -13 16 -24
21 -24 5 0 22 -13 38 -29 56 -55 115 -13 95 69 -8 33 -11 35 -43 32 -20 -1
-55 4 -78 13 -24 8 -44 15 -45 14 0 0 -16 -5 -34 -10z"/>
<path d="M151 1938 c-10 -26 -87 -183 -120 -243 -11 -21 -21 -53 -21 -70 l1
-30 16 30 c9 17 29 45 44 63 20 22 29 44 29 67 0 18 4 36 9 39 5 3 12 18 15
32 4 15 18 43 32 63 25 37 32 71 14 71 -6 0 -14 -10 -19 -22z"/>
<path d="M600 1945 c-16 -19 0 -19 26 0 16 12 16 14 3 15 -9 0 -22 -7 -29 -15z"/>
<path d="M4383 1943 c9 -2 23 -2 30 0 6 3 -1 5 -18 5 -16 0 -22 -2 -12 -5z"/>
<path d="M4430 1913 c-29 -11 -81 -45 -76 -51 7 -6 96 40 96 50 0 5 -1 8 -2 7
-2 0 -10 -3 -18 -6z"/>
<path d="M3859 1883 c-13 -15 -12 -15 11 -3 34 17 36 20 18 20 -9 0 -22 -7
-29 -17z"/>
<path d="M3577 1843 c-11 -13 -16 -27 -13 -31 10 -9 38 24 34 41 -2 12 -7 9
-21 -10z"/>
<path d="M3406 1843 c-8 -21 8 -38 29 -29 13 4 14 10 5 26 -13 24 -26 26 -34
3z"/>
<path d="M2274 1833 c-9 -14 -17 -15 -62 -6 -58 11 -56 14 -65 -64 -3 -31 -2
-33 28 -33 17 0 36 5 42 11 19 19 66 -11 77 -48 5 -18 13 -33 17 -33 15 0 21
48 9 70 -7 12 -9 37 -6 55 5 23 2 38 -9 49 -20 19 -18 20 -31 -1z"/>
<path d="M4267 1844 c-14 -14 -7 -35 11 -32 9 2 17 10 17 17 0 16 -18 25 -28
15z"/>
<path d="M4611 1841 c-10 -6 -5 -13 20 -25 40 -20 67 -4 35 20 -23 16 -35 17
-55 5z"/>
<path d="M3252 1791 c-18 -27 -32 -54 -32 -59 0 -6 -6 -15 -13 -19 -15 -9 -31
-43 -28 -57 4 -17 -20 -75 -36 -88 -14 -11 -16 -11 -8 2 4 8 -4 2 -18 -13 -27
-28 -47 -29 -47 -1 0 8 -4 13 -9 10 -5 -4 -4 5 2 19 7 14 19 27 28 30 9 3 25
16 37 28 21 22 21 24 5 60 -11 23 -27 40 -45 46 -15 6 -28 14 -28 19 0 6 -24
15 -52 20 -29 6 -72 17 -95 26 -38 14 -45 14 -95 -3 -31 -11 -54 -25 -56 -34
-4 -21 7 -21 44 -2 33 17 122 11 167 -12 38 -19 70 -71 54 -88 -9 -10 -19 -9
-47 6 -37 20 -70 25 -70 10 0 -9 76 -41 97 -41 7 0 18 -10 24 -22 11 -21 11
-22 -5 -8 -16 13 -20 12 -30 -1 -7 -10 -17 -13 -26 -9 -58 29 -67 31 -93 21
-44 -17 -34 -45 36 -102 34 -29 64 -55 67 -59 3 -3 14 -10 25 -14 18 -6 17 -9
-12 -27 -24 -15 -50 -21 -100 -21 -108 0 -252 27 -273 51 -8 10 -44 31 -72 44
-16 6 -28 15 -28 19 0 4 -12 8 -26 8 -22 0 -25 -4 -23 -27 2 -16 8 -35 15 -43
13 -17 29 -61 26 -72 -1 -5 2 -8 6 -8 17 0 31 -48 23 -77 -9 -29 -9 -29 -31
30 -5 16 -15 25 -21 22 -6 -4 -13 2 -16 14 -6 24 -20 26 -47 6 -11 -8 -30 -12
-46 -9 -19 4 -29 1 -33 -9 -5 -13 2 -15 38 -13 59 4 75 -7 41 -29 -29 -19 -34
-43 -11 -51 10 -4 13 -14 9 -29 -4 -17 0 -26 15 -34 16 -9 19 -18 14 -42 -6
-30 -5 -31 16 -20 17 9 21 9 21 -3 0 -23 -31 -28 -52 -9 -11 10 -23 18 -26 18
-4 0 -6 6 -4 13 2 6 -3 12 -11 12 -27 0 -37 21 -21 46 14 21 14 24 -6 44 -17
17 -19 24 -9 36 7 8 8 14 3 13 -18 -5 -61 24 -78 52 -21 35 -26 36 -64 4 -35
-29 -78 -37 -50 -9 20 21 3 74 -25 74 -24 0 -74 26 -117 61 -24 20 -46 29 -70
29 -20 0 -52 9 -73 19 -20 10 -37 15 -37 10 0 -5 -7 -9 -15 -9 -8 0 -15 5 -15
10 0 31 -85 -9 -94 -45 -6 -25 14 -87 32 -99 5 -3 29 1 52 9 56 20 78 19 125
-5 22 -11 45 -20 52 -20 7 0 18 -9 25 -20 7 -11 19 -20 26 -20 7 0 15 -7 18
-15 4 -9 15 -20 26 -26 13 -7 18 -7 14 -1 -3 6 -2 13 3 16 5 3 11 -2 15 -12 3
-9 12 -35 20 -57 15 -37 14 -42 -4 -67 -26 -36 -25 -39 6 -27 22 8 30 6 46
-11 11 -11 20 -33 21 -48 1 -15 4 -29 7 -32 12 -12 30 -62 25 -71 -4 -5 -1 -9
4 -9 6 0 14 -18 17 -40 4 -22 11 -43 15 -46 5 -3 9 -16 9 -29 0 -13 4 -26 8
-29 5 -3 14 -31 21 -63 27 -121 67 -202 108 -222 15 -7 20 -16 17 -26 -8 -19
41 -75 64 -75 18 0 41 -29 42 -52 0 -10 4 -18 9 -18 6 0 12 -21 16 -48 3 -26
10 -69 17 -97 6 -27 12 -81 14 -120 1 -38 2 -73 3 -77 2 -13 22 -9 50 11 14
10 37 21 51 22 14 2 25 11 25 19 0 8 4 18 9 21 4 4 11 27 13 53 3 25 11 50 18
56 6 5 41 15 76 20 35 6 78 13 95 16 28 5 32 3 43 -27 6 -17 11 -49 11 -69 0
-20 3 -40 6 -43 8 -7 44 56 44 77 0 7 7 19 15 26 8 7 15 27 15 44 0 43 16 60
68 75 34 10 47 10 58 0 13 -10 12 -15 -1 -35 -8 -13 -15 -32 -15 -43 0 -11 -4
-23 -10 -26 -21 -13 -9 -25 24 -25 18 0 39 -7 46 -15 10 -12 10 -15 0 -15 -9
0 -11 -10 -6 -32 8 -41 24 -58 35 -39 12 20 51 4 51 -21 0 -14 5 -18 15 -14 8
3 15 1 15 -5 0 -6 6 -9 14 -6 8 3 17 1 19 -6 8 -22 47 24 47 55 0 15 5 28 11
28 27 0 109 -34 109 -45 0 -22 53 -25 73 -4 10 10 22 19 27 19 6 0 10 8 10 18
0 15 3 14 18 -4 16 -20 20 -20 49 -8 38 16 35 41 -5 46 -24 3 -27 8 -27 38 0
29 4 36 22 38 17 3 26 -3 33 -22 13 -36 26 -32 40 10 9 26 9 39 1 47 -18 18
-13 34 29 83 23 25 38 49 35 52 -9 9 -56 -41 -74 -78 -18 -39 -49 -51 -63 -25
-9 15 -11 15 -29 -1 -10 -9 -22 -32 -25 -52 -6 -28 -14 -38 -50 -53 -27 -13
-53 -17 -69 -13 -21 5 -27 2 -32 -15 -5 -21 -19 -26 -47 -15 -24 9 -20 26 13
54 20 17 31 36 33 60 3 30 0 35 -21 38 -21 3 -23 7 -18 43 3 21 1 39 -4 39 -5
0 -9 -24 -9 -52 0 -79 -8 -97 -52 -119 -33 -17 -44 -18 -72 -8 -32 11 -66 56
-66 86 0 9 -9 30 -20 49 -23 36 -19 84 7 84 13 0 13 -3 3 -15 -17 -20 -5 -32
15 -15 12 10 18 10 30 0 12 -10 16 -9 21 4 3 9 3 27 0 40 -4 17 1 28 17 42 12
10 16 12 10 4 -23 -25 -14 -32 13 -11 40 31 73 28 85 -9 13 -35 20 -37 44 -10
17 19 15 50 -5 50 -14 0 -12 11 5 34 13 18 16 18 49 2 40 -19 56 -20 56 -5 0
5 4 8 9 5 5 -3 7 -34 4 -67 -6 -60 -5 -61 15 -50 27 14 30 26 24 87 -3 32 0
54 7 58 6 4 11 17 11 28 0 18 4 20 35 15 19 -3 35 -4 35 -2 0 3 -17 20 -37 39
l-37 33 27 32 c38 46 33 56 -13 25 -22 -15 -42 -25 -45 -23 -2 3 -7 24 -11 47
-6 40 -6 42 20 42 34 0 34 18 0 26 -28 7 -44 -7 -44 -38 0 -23 -6 -23 -37 2
-14 11 -34 20 -44 20 -13 0 -19 7 -19 24 0 32 -43 60 -105 66 -45 5 -50 8 -53
32 -3 21 6 34 43 65 26 21 51 47 56 58 5 11 14 28 21 37 7 9 10 20 7 23 -14
13 -42 -11 -59 -51 -10 -23 -31 -51 -47 -61 -15 -10 -35 -27 -45 -38 -23 -28
-28 -17 -16 39 9 43 14 50 49 65 21 9 42 24 45 34 9 28 -6 35 -23 10 -9 -13
-26 -23 -39 -23 -29 0 -30 11 -4 35 11 10 26 38 32 63 13 53 34 64 59 31 l17
-24 7 27 c9 34 0 48 -30 48 -33 0 -38 13 -15 43 21 27 26 47 11 47 -18 0 -78
-66 -85 -92 -3 -15 -24 -42 -47 -60 -22 -18 -52 -43 -66 -55 -25 -22 -63 -30
-76 -16 -4 3 3 17 14 29 20 21 20 24 5 30 -9 3 -16 12 -16 19 0 15 106 114
143 134 31 16 39 34 31 66 -6 23 -7 23 -51 -18 -25 -23 -49 -53 -55 -67 l-10
-25 -14 34 c-14 33 -13 36 9 55 39 33 86 111 81 132 -4 15 6 25 40 43 25 12
47 29 50 37 8 20 -7 17 -37 -6 -14 -11 -32 -20 -41 -20 -8 0 -20 -9 -26 -20
-10 -19 -49 -27 -63 -13 -4 3 -1 13 7 22 17 18 53 105 71 171 7 25 16 53 20
63 15 35 -13 15 -43 -32z m-69 -330 c-54 -85 -147 -150 -127 -89 9 31 88 106
116 111 13 2 25 5 26 6 2 0 -4 -12 -15 -28z m-35 -168 l-25 -25 -5 26 c-3 15
3 38 15 58 l21 33 9 -33 c9 -29 7 -36 -15 -59z m-128 8 c0 -5 -5 -22 -10 -36
-9 -23 -13 -25 -25 -15 -18 15 -19 32 -3 48 14 14 38 16 38 3z m-670 -43 c0
-4 -7 -8 -15 -8 -16 0 -38 34 -28 44 7 7 43 -23 43 -36z m560 16 c7 -19 7 -31
-1 -40 -6 -8 -15 -29 -18 -47 -5 -23 -13 -33 -29 -35 -20 -3 -22 1 -22 48 0
43 4 55 28 75 15 13 28 25 30 25 1 0 7 -12 12 -26z m-228 -145 c4 -10 3 -21
-2 -24 -11 -7 -40 5 -40 16 0 5 -18 20 -41 35 -22 14 -38 28 -35 31 3 4 2 11
-3 17 -5 6 -7 24 -4 39 5 28 6 28 62 -34 31 -34 59 -70 63 -80z m643 61 c0
-18 -6 -26 -23 -28 -27 -4 -40 22 -22 44 19 22 45 13 45 -16z m-307 -11 c-3
-24 -33 -48 -44 -36 -4 4 -2 18 4 32 14 31 45 34 40 4z m-222 -23 c8 -35 -4
-68 -24 -64 -17 3 -28 48 -18 74 9 23 35 16 42 -10z m484 -41 c0 -29 -4 -36
-26 -41 -34 -9 -79 7 -79 26 0 16 59 50 88 50 13 0 17 -8 17 -35z m-141 9 c6
-6 -60 -74 -72 -74 -4 0 -5 5 -2 10 3 6 1 10 -4 10 -16 0 -13 22 5 49 13 18
22 21 43 16 14 -4 28 -9 30 -11z m-332 -63 c15 12 15 10 -1 -9 -11 -12 -25
-22 -32 -22 -18 0 -27 -41 -20 -92 18 -137 19 -174 1 -191 -13 -14 -20 -15
-31 -6 -8 6 -14 18 -14 26 0 7 -12 37 -26 65 -14 28 -33 73 -40 100 -19 64 -1
104 51 114 26 5 33 9 25 18 -6 9 -6 16 2 24 9 9 18 6 40 -15 24 -23 29 -24 45
-12z m-256 -40 c11 -25 33 -72 48 -103 l28 -58 -32 -24 c-18 -14 -41 -23 -51
-21 -79 16 -76 14 -69 45 6 25 3 31 -19 41 -14 7 -26 15 -26 18 0 3 -3 16 -6
29 -8 26 8 29 50 7 36 -19 43 -13 22 19 -8 14 -14 31 -11 38 3 7 -9 21 -27 32
l-33 20 30 6 c55 11 74 1 96 -49z m683 21 c3 -5 8 -32 12 -61 l7 -52 -35 6
c-23 4 -38 3 -43 -5 -4 -7 -18 -9 -36 -5 -22 5 -29 3 -29 -9 0 -9 -8 -16 -20
-16 -13 0 -24 -11 -33 -32 -8 -18 -21 -39 -30 -47 -22 -18 -21 -28 3 -34 11
-3 20 -10 20 -15 0 -15 -37 -21 -49 -9 -8 8 -20 6 -43 -5 -54 -25 -59 -12 -19
56 20 35 50 87 66 117 41 72 69 99 102 99 15 0 35 5 43 10 18 12 77 13 84 2z
m-279 -103 c4 -5 -5 -27 -19 -48 -14 -20 -26 -41 -26 -46 0 -14 -32 -45 -47
-45 -19 0 -17 74 3 94 8 9 19 16 24 16 4 0 10 9 13 20 5 21 41 28 52 9z m383
-167 c13 -19 12 -22 -3 -28 -21 -8 -40 12 -49 50 -7 28 -7 29 15 14 12 -8 29
-24 37 -36z m-497 8 c10 -6 19 -17 19 -25 0 -19 -16 -19 -24 0 -3 8 -12 15
-21 15 -8 0 -15 5 -15 10 0 13 16 13 41 0z m317 0 c18 0 7 -85 -21 -173 -18
-56 -19 -69 -8 -76 24 -15 -8 -24 -39 -11 -21 9 -34 9 -49 1 -20 -11 -20 -11
3 -36 27 -29 51 -34 42 -9 -5 14 -4 15 9 4 21 -17 19 -67 -4 -87 -50 -46 -50
-46 -96 -32 -37 11 -45 18 -56 52 -7 21 -20 42 -28 45 -44 15 -66 63 -41 88 5
5 13 32 16 59 7 44 6 48 -11 41 -15 -5 -16 -4 -5 9 8 10 17 12 28 6 19 -11 57
6 86 38 15 16 31 21 73 21 50 0 53 1 43 19 -15 28 -2 54 24 47 11 -3 27 -6 34
-6z m-305 -355 c5 -16 13 -43 19 -60 14 -41 15 -67 3 -71 -12 -4 -85 115 -85
138 0 41 51 36 63 -7z m-41 -92 c22 -20 23 -36 3 -53 -20 -16 -45 3 -45 35 0
37 14 44 42 18z"/>
<path d="M2542 894 c10 -10 20 -16 22 -13 3 3 -5 11 -17 18 -21 13 -21 12 -5
-5z"/>
<path d="M3083 648 c-12 -15 -27 -58 -19 -58 6 0 37 62 32 67 -2 2 -8 -2 -13
-9z"/>
<path d="M2920 531 c0 -8 50 -22 74 -20 14 1 -44 28 -61 29 -7 0 -13 -4 -13
-9z"/>
<path d="M1420 1787 c0 -19 10 -27 26 -20 21 8 17 33 -6 33 -11 0 -20 -6 -20
-13z"/>
<path d="M4219 1795 c-1 -6 -3 -21 -4 -35 -1 -14 -6 -38 -10 -54 -5 -19 -4
-27 2 -23 18 12 37 97 24 110 -6 6 -12 7 -12 2z"/>
<path d="M4553 1788 c-20 -26 -26 -41 -15 -34 12 7 36 46 29 46 -3 0 -9 -6
-14 -12z"/>
<path d="M180 1765 c0 -18 4 -23 15 -19 8 4 15 15 15 25 0 10 -7 19 -15 19 -9
0 -15 -9 -15 -25z"/>
<path d="M705 1767 c-22 -11 -61 -57 -48 -57 4 0 26 16 48 35 39 34 39 42 0
22z"/>
<path d="M4611 1767 c-18 -22 -41 -98 -34 -111 4 -6 -1 -5 -10 3 -9 7 -17 20
-17 27 0 21 -16 17 -87 -23 l-65 -36 23 -18 c29 -22 39 -24 39 -5 0 8 9 24 19
37 16 19 22 22 32 12 7 -7 21 -13 30 -13 10 0 27 -17 40 -40 20 -35 26 -39 56
-37 l33 2 -1 75 c-1 95 -30 159 -58 127z m29 -71 c0 -17 -28 -41 -37 -32 -10
9 16 58 27 51 6 -3 10 -12 10 -19z"/>
<path d="M1890 1750 c0 -13 7 -20 20 -20 11 0 20 3 20 8 0 4 -9 13 -20 20 -18
11 -20 10 -20 -8z"/>
<path d="M3680 1735 c0 -8 6 -15 14 -15 8 0 16 7 20 15 4 10 -1 15 -14 15 -11
0 -20 -7 -20 -15z"/>
<path d="M2025 1730 c3 -5 13 -10 21 -10 8 0 14 5 14 10 0 6 -9 10 -21 10 -11
0 -17 -4 -14 -10z"/>
<path d="M3332 1715 c-6 -14 -8 -25 -4 -25 12 0 32 23 32 37 0 22 -16 15 -28
-12z"/>
<path d="M3456 1697 c-25 -24 -46 -48 -46 -54 0 -19 38 -2 55 23 8 13 22 35
31 49 23 36 13 31 -40 -18z"/>
<path d="M4158 1729 c-19 -11 -24 -29 -8 -29 5 0 14 9 20 20 12 23 12 23 -12
9z"/>
<path d="M144 1695 c-10 -8 -14 -14 -9 -15 15 0 40 18 34 24 -3 3 -14 -1 -25
-9z"/>
<path d="M1417 1690 c-3 -13 -2 -31 3 -39 8 -14 9 -14 16 2 3 10 2 28 -3 40
-10 21 -10 21 -16 -3z"/>
<path d="M360 1691 c0 -5 5 -13 10 -16 6 -3 10 -18 10 -33 0 -20 3 -23 12 -14
8 8 9 20 2 39 -9 26 -34 44 -34 24z"/>
<path d="M1070 1675 c0 -8 2 -15 4 -15 2 0 6 7 10 15 3 8 1 15 -4 15 -6 0 -10
-7 -10 -15z"/>
<path d="M4270 1664 c0 -9 5 -14 12 -12 18 6 21 28 4 28 -9 0 -16 -7 -16 -16z"/>
<path d="M3642 1658 c-14 -14 -16 -28 -2 -28 5 0 14 9 20 20 12 22 1 27 -18 8z"/>
<path d="M4070 1630 c-25 -22 -38 -40 -31 -40 22 0 91 51 91 66 0 21 -11 16
-60 -26z"/>
<path d="M1590 1651 c0 -13 29 -35 37 -28 7 8 -15 37 -28 37 -5 0 -9 -4 -9 -9z"/>
<path d="M1684 1634 c3 -9 6 -18 6 -20 0 -2 4 -4 9 -4 5 0 7 9 4 20 -3 11 -10
20 -15 20 -6 0 -7 -7 -4 -16z"/>
<path d="M3748 1638 c-16 -5 -28 -14 -28 -20 0 -6 8 -7 18 -3 9 4 32 9 50 12
17 3 32 10 32 14 0 12 -38 10 -72 -3z"/>
<path d="M4208 1600 c-9 -17 -33 -40 -53 -51 -41 -25 -47 -43 -8 -28 46 17 89
62 83 87 -5 21 -6 20 -22 -8z"/>
<path d="M4338 1593 c-19 -5 -25 -23 -9 -23 17 0 41 12 41 21 0 9 -4 10 -32 2z"/>
<path d="M1351 1548 c-1 -15 4 -30 9 -33 12 -7 12 12 0 40 -8 18 -9 17 -9 -7z"/>
<path d="M3500 1540 c-9 -18 -8 -20 15 -20 18 0 25 -5 25 -19 0 -11 5 -23 10
-26 14 -9 12 10 -4 50 -17 40 -30 44 -46 15z"/>
<path d="M700 1540 c0 -5 7 -10 16 -10 8 0 12 5 9 10 -3 6 -10 10 -16 10 -5 0
-9 -4 -9 -10z"/>
<path d="M1455 1540 c-4 -6 -3 -16 3 -22 6 -6 12 -6 17 2 4 6 3 16 -3 22 -6 6
-12 6 -17 -2z"/>
<path d="M3943 1538 c-13 -6 -23 -17 -23 -25 0 -8 3 -13 8 -11 48 24 62 32 62
40 0 11 -20 9 -47 -4z"/>
<path d="M4276 1524 c-4 -9 -4 -19 -1 -22 2 -3 7 3 11 12 4 9 4 19 1 22 -2 3
-7 -3 -11 -12z"/>
<path d="M3412 1519 c2 -7 10 -15 17 -17 8 -3 12 1 9 9 -2 7 -10 15 -17 17 -8
3 -12 -1 -9 -9z"/>
<path d="M4559 1502 c-15 -15 -28 -36 -31 -47 -2 -14 -12 -21 -33 -23 -59 -5
-75 -12 -75 -32 0 -11 -9 -29 -20 -40 -29 -29 -26 -52 5 -44 17 4 27 1 31 -9
8 -22 -13 -57 -34 -57 -22 0 -42 -19 -42 -39 0 -9 -15 -23 -33 -31 -44 -21
-48 -54 -8 -68 27 -9 31 -9 31 6 1 9 23 36 50 60 48 42 50 43 50 19 0 -13 9
-36 20 -50 11 -14 23 -39 26 -56 5 -25 1 -34 -22 -55 -35 -31 -54 -33 -54 -6
0 27 -15 25 -39 -6 -23 -30 -28 -93 -9 -112 9 -9 5 -12 -18 -12 -47 0 -132
-29 -143 -48 -8 -13 -14 -15 -28 -6 -10 6 -24 9 -30 7 -24 -9 -13 -22 28 -33
83 -23 55 -70 -42 -70 -37 0 -59 -4 -62 -12 -3 -9 -12 -6 -29 10 -25 23 -48
29 -48 12 0 -5 14 -16 30 -25 23 -12 30 -22 30 -45 0 -17 -5 -39 -12 -50 -18
-28 -4 -34 35 -15 43 20 69 10 92 -35 10 -20 23 -30 39 -30 12 0 31 -9 41 -20
10 -11 24 -20 31 -20 15 0 44 -50 44 -75 0 -9 14 -30 31 -47 24 -24 30 -38 27
-64 -3 -43 6 -50 25 -20 15 22 15 27 1 56 -9 17 -13 38 -10 46 9 23 39 13 46
-15 8 -34 30 -39 30 -7 0 30 11 33 32 9 11 -13 14 -34 11 -73 -9 -122 -9 -176
0 -187 5 -7 6 -13 1 -13 -5 0 -3 -4 5 -9 8 -5 16 -18 17 -28 2 -9 8 -19 13
-21 6 -2 11 -11 11 -19 0 -10 6 -13 15 -9 9 3 18 -1 21 -8 9 -24 33 -27 54 -6
19 19 20 34 19 523 -2 550 -6 644 -28 639 -8 -2 -37 2 -64 9 -36 8 -52 8 -60
0 -26 -26 -65 -2 -51 32 6 15 84 53 144 70 55 16 60 33 30 98 -16 33 -30 49
-48 54 l-25 6 27 28 c14 15 23 30 19 34 -13 14 -39 6 -64 -21z m71 -122 c49
-26 9 -70 -64 -70 -19 0 -45 -9 -60 -21 -14 -11 -30 -18 -35 -14 -15 9 0 78
23 104 18 20 27 22 68 18 26 -4 57 -11 68 -17z m-140 -390 c0 -16 -40 -51 -50
-45 -16 10 -12 33 8 44 22 13 42 14 42 1z m-95 -143 l40 -2 6 -48 c5 -45 19
-66 45 -67 6 0 19 -9 29 -20 17 -18 16 -19 -11 -25 -16 -4 -34 -8 -41 -10 -9
-3 -3 -22 17 -61 38 -70 39 -116 5 -138 -19 -12 -23 -13 -19 -2 4 9 -6 16 -31
20 -60 12 -82 26 -101 68 -22 50 -38 61 -29 19 9 -42 -6 -40 -55 9 -22 22 -46
40 -52 40 -16 0 -50 58 -42 71 3 5 13 9 22 9 9 0 44 14 77 30 71 35 91 37 98
9 8 -28 31 -19 35 14 3 21 -2 28 -23 33 -14 3 -42 4 -61 1 -18 -3 -34 -4 -34
-2 0 2 -3 10 -6 18 -9 25 25 50 60 42 17 -3 49 -7 71 -8z m175 -75 c0 -16 -6
-36 -13 -46 -12 -16 -14 -16 -26 -2 -8 9 -22 16 -32 16 -16 0 -37 35 -26 46 2
2 17 -2 33 -11 46 -24 71 -16 42 13 -9 9 -8 12 5 12 12 0 17 -8 17 -28z m6
-145 c7 -20 -14 -69 -29 -65 -17 6 -21 46 -7 64 15 18 29 18 36 1z"/>
<path d="M4281 711 c-10 -7 -10 -10 -1 -16 6 -4 16 -3 22 3 13 13 -4 23 -21
13z"/>
<path d="M4325 650 c-16 -7 -17 -9 -3 -9 9 -1 20 4 23 9 7 11 7 11 -20 0z"/>
<path d="M4430 576 c0 -17 14 -29 23 -20 8 8 -3 34 -14 34 -5 0 -9 -6 -9 -14z"/>
<path d="M3670 1490 c0 -5 7 -10 15 -10 8 0 15 5 15 10 0 6 -7 10 -15 10 -8 0
-15 -4 -15 -10z"/>
<path d="M646 1455 c-3 -9 -6 -22 -5 -28 0 -7 5 -1 10 12 5 13 8 26 5 28 -2 2
-6 -3 -10 -12z"/>
<path d="M1267 1464 c-12 -12 4 -24 29 -24 14 0 35 -5 46 -11 61 -33 228 -52
228 -26 0 7 -9 18 -20 25 -11 7 -20 19 -20 27 0 8 -4 15 -10 15 -5 0 -10 -12
-10 -26 0 -25 -1 -26 -52 -19 -29 4 -79 16 -110 26 -63 21 -72 22 -81 13z"/>
<path d="M451 1438 c-8 -13 -21 -33 -29 -45 -8 -13 -10 -23 -5 -23 15 0 55 59
51 76 -2 11 -7 9 -17 -8z"/>
<path d="M4203 1423 c-9 -25 -23 -33 -59 -33 -17 0 -37 -6 -43 -14 -9 -11 -4
-13 29 -12 22 0 40 4 40 9 0 4 11 12 24 16 13 5 26 19 29 30 6 25 -11 28 -20
4z"/>
<path d="M3895 1420 c-8 -13 25 -13 45 0 12 8 9 10 -12 10 -15 0 -30 -4 -33
-10z"/>
<path d="M3563 1361 c3 -34 12 -72 19 -83 13 -20 11 -25 -36 -71 -28 -27 -46
-51 -40 -54 13 -4 93 47 114 72 8 9 31 25 51 36 43 22 53 34 45 55 -5 13 -9
13 -35 -1 -65 -33 -101 -12 -101 59 0 19 -5 38 -12 42 -8 5 -10 -10 -5 -55z"/>
<path d="M681 1383 c-12 -14 -19 -28 -16 -31 5 -5 44 38 45 51 0 13 -8 7 -29
-20z"/>
<path d="M3788 1389 c-22 -12 -43 -49 -29 -49 6 0 25 13 43 30 32 29 23 41
-14 19z"/>
<path d="M1357 1363 c-11 -10 -8 -83 3 -83 6 0 10 20 10 45 0 46 -2 50 -13 38z"/>
<path d="M4263 1353 c-14 -5 -18 -43 -5 -43 14 0 43 36 35 43 -7 8 -12 8 -30
0z"/>
<path d="M820 1335 c0 -8 4 -15 9 -15 5 0 11 7 15 15 3 9 0 15 -9 15 -8 0 -15
-7 -15 -15z"/>
<path d="M3485 1300 c-3 -5 3 -10 15 -10 12 0 18 5 15 10 -3 6 -10 10 -15 10
-5 0 -12 -4 -15 -10z"/>
<path d="M90 1285 c-8 -9 -8 -15 -2 -15 12 0 26 19 19 26 -2 2 -10 -2 -17 -11z"/>
<path d="M536 1244 c-4 -14 -5 -29 -2 -31 3 -3 8 7 12 21 3 15 4 29 1 32 -2 3
-8 -7 -11 -22z"/>
<path d="M4200 1260 c0 -5 4 -10 9 -10 6 0 13 5 16 10 3 6 -1 10 -9 10 -9 0
-16 -4 -16 -10z"/>
<path d="M835 1250 c3 -5 10 -10 16 -10 5 0 9 5 9 10 0 6 -7 10 -16 10 -8 0
-12 -4 -9 -10z"/>
<path d="M4646 1251 c-3 -5 0 -14 8 -20 11 -9 15 -7 19 9 5 20 -16 29 -27 11z"/>
<path d="M583 1230 c3 -11 1 -20 -4 -20 -5 0 -9 -5 -9 -11 0 -8 5 -8 15 1 17
14 20 50 4 50 -6 0 -9 -9 -6 -20z"/>
<path d="M308 1223 c-8 -10 -19 -25 -23 -33 -8 -13 -7 -13 9 -1 16 14 41 51
33 51 -2 0 -11 -8 -19 -17z"/>
<path d="M0 1222 c0 -4 19 -18 41 -30 23 -13 39 -19 35 -14 -8 14 -76 53 -76
44z"/>
<path d="M157 1223 c-4 -3 -7 -11 -7 -17 0 -6 5 -5 12 2 6 6 9 14 7 17 -3 3
-9 2 -12 -2z"/>
<path d="M3757 1224 c-11 -11 3 -24 25 -24 17 0 18 2 8 15 -13 16 -23 19 -33
9z"/>
<path d="M4153 1205 c-8 -22 6 -33 17 -15 13 20 12 30 0 30 -6 0 -13 -7 -17
-15z"/>
<path d="M815 1190 c-4 -12 -5 -24 -2 -27 3 -2 8 5 12 17 4 12 5 24 2 27 -3 2
-8 -5 -12 -17z"/>
<path d="M4233 1170 c6 -16 13 -28 15 -26 6 6 -10 56 -18 56 -5 0 -3 -13 3
-30z"/>
<path d="M524 1093 c-3 -21 -12 -48 -20 -60 -18 -29 -18 -39 2 -22 19 16 54
83 54 104 0 32 -29 14 -36 -22z"/>
<path d="M1312 1123 c-7 -2 -17 -14 -23 -25 -11 -20 -10 -20 20 1 39 28 41 39
3 24z"/>
<path d="M4170 1107 c0 -13 9 -32 20 -42 24 -22 26 -9 4 33 -19 38 -24 40 -24
9z"/>
<path d="M1750 1110 c0 -5 5 -10 10 -10 6 0 10 5 10 10 0 6 -4 10 -10 10 -5 0
-10 -4 -10 -10z"/>
<path d="M1820 1110 c0 -5 7 -10 15 -10 8 0 15 5 15 10 0 6 -7 10 -15 10 -8 0
-15 -4 -15 -10z"/>
<path d="M1887 1114 c-8 -8 43 -64 59 -64 19 0 54 -67 61 -116 7 -54 30 -59
38 -9 3 19 8 52 12 73 8 47 5 62 -15 85 -12 13 -25 17 -45 13 -16 -3 -44 1
-64 9 -41 17 -38 17 -46 9z"/>
<path d="M4041 1085 c-43 -49 -39 -58 6 -13 20 21 34 40 31 43 -3 3 -19 -10
-37 -30z"/>
<path d="M3577 1056 c-3 -8 -2 -18 3 -21 13 -8 24 15 12 27 -6 6 -11 4 -15 -6z"/>
<path d="M1791 1009 c-28 -27 -51 -54 -51 -60 0 -5 -6 -9 -12 -9 -7 0 -40 -23
-73 -50 -33 -28 -63 -50 -67 -50 -3 0 -9 -13 -13 -30 -4 -17 -13 -30 -22 -30
-17 0 -14 -34 5 -36 6 -1 17 -2 22 -3 6 0 10 -7 10 -15 0 -18 43 -33 48 -17 2
6 10 11 18 11 8 0 19 11 24 25 5 14 14 25 20 25 5 0 10 7 10 15 0 8 18 29 40
46 22 18 40 41 40 51 0 10 5 18 10 18 6 0 10 9 10 20 0 11 4 28 9 38 14 27 41
89 41 96 0 16 -22 2 -69 -45z"/>
<path d="M4153 1014 c-8 -20 13 -42 27 -28 12 12 3 44 -11 44 -5 0 -12 -7 -16
-16z"/>
<path d="M110 992 c6 -13 14 -21 18 -18 3 4 -2 14 -12 24 -18 16 -18 16 -6 -6z"/>
<path d="M3960 999 c0 -9 7 -22 15 -29 19 -16 19 0 0 26 -12 16 -14 16 -15 3z"/>
<path d="M4248 998 c9 -9 15 -9 24 0 9 9 7 12 -12 12 -19 0 -21 -3 -12 -12z"/>
<path d="M3498 959 l-28 -31 28 7 c15 4 41 8 57 9 22 2 30 8 30 22 0 14 -8 20
-30 21 -23 2 -37 -5 -57 -28z"/>
<path d="M454 963 c-3 -10 -16 -39 -30 -65 -14 -27 -20 -48 -15 -48 6 0 11 7
11 15 0 8 14 21 30 30 23 12 30 22 30 45 0 34 -18 50 -26 23z"/>
<path d="M563 953 c-7 -3 -13 -12 -13 -21 0 -15 2 -15 17 1 18 18 16 27 -4 20z"/>
<path d="M4141 920 c-9 -28 -9 -29 9 -20 21 11 26 35 11 44 -5 3 -14 -8 -20
-24z"/>
<path d="M746 915 c4 -8 8 -15 10 -15 2 0 4 7 4 15 0 8 -4 15 -10 15 -5 0 -7
-7 -4 -15z"/>
<path d="M3856 894 c-64 -43 -85 -64 -67 -64 18 0 102 54 126 80 28 31 -2 23
-59 -16z"/>
<path d="M10 891 c7 -14 7 -20 -2 -23 -8 -3 -8 -9 -1 -22 6 -12 7 -33 2 -55
-10 -42 -10 -144 -1 -216 6 -40 11 -50 26 -50 14 0 23 12 33 48 9 31 19 47 30
47 13 0 15 8 10 48 -3 26 -9 73 -13 105 -5 50 -10 60 -31 68 -13 5 -29 22 -34
39 -6 16 -15 30 -20 30 -6 0 -5 -8 1 -19z"/>
<path d="M222 875 c0 -16 2 -22 5 -12 2 9 2 23 0 30 -3 6 -5 -1 -5 -18z"/>
<path d="M4100 880 c-9 -6 -10 -10 -3 -10 6 0 15 5 18 10 8 12 4 12 -15 0z"/>
<path d="M1056 829 c-14 -17 -24 -35 -20 -40 9 -15 24 -10 24 9 0 10 7 28 16
40 22 32 10 27 -20 -9z"/>
<path d="M4030 841 c0 -12 5 -21 10 -21 6 0 10 6 10 14 0 8 -4 18 -10 21 -5 3
-10 -3 -10 -14z"/>
<path d="M441 841 c-1 -8 -8 -23 -18 -33 -9 -10 -14 -21 -10 -24 9 -9 40 44
34 58 -4 10 -6 9 -6 -1z"/>
<path d="M350 724 c0 -8 5 -12 10 -9 6 3 10 10 10 16 0 5 -4 9 -10 9 -5 0 -10
-7 -10 -16z"/>
<path d="M423 708 c-24 -14 -33 -27 -33 -46 0 -27 0 -27 21 7 11 18 29 35 40
38 10 3 19 9 19 14 0 13 -11 10 -47 -13z"/>
<path d="M770 720 c0 -5 5 -10 10 -10 6 0 10 5 10 10 0 6 -4 10 -10 10 -5 0
-10 -4 -10 -10z"/>
<path d="M310 671 c0 -3 7 -14 15 -24 13 -18 14 -18 24 1 9 17 7 20 -14 24
-14 3 -25 2 -25 -1z"/>
<path d="M425 610 c-3 -5 1 -10 9 -10 9 0 16 5 16 10 0 6 -4 10 -9 10 -6 0
-13 -4 -16 -10z"/>
<path d="M190 606 c0 -2 7 -6 15 -10 8 -3 15 -1 15 4 0 6 -7 10 -15 10 -8 0
-15 -2 -15 -4z"/>
<path d="M3735 559 c-4 -6 -5 -13 -2 -15 7 -8 57 7 57 17 0 13 -47 11 -55 -2z"/>
<path d="M4056 555 c4 -8 10 -15 15 -15 4 0 6 7 3 15 -4 8 -10 15 -15 15 -4 0
-6 -7 -3 -15z"/>
<path d="M3850 512 c-19 -2 -39 -7 -44 -12 -8 -8 74 -2 83 6 8 7 -4 9 -39 6z"/>
<path d="M4064 455 c-7 -40 8 -61 36 -47 31 15 137 8 157 -10 21 -20 53 -24
53 -8 0 6 -7 10 -16 10 -9 0 -22 8 -29 17 -15 21 -122 30 -154 14 -29 -16 -44
-5 -30 21 7 14 8 23 1 30 -7 7 -13 -1 -18 -27z"/>
<path d="M3997 456 c-3 -8 -18 -16 -34 -19 l-28 -4 31 -2 c28 -1 54 13 54 31
0 14 -18 9 -23 -6z"/>
<path d="M3675 440 c-8 -13 25 -13 45 0 12 8 9 10 -12 10 -15 0 -30 -4 -33
-10z"/>
<path d="M3515 430 c-10 -16 6 -77 26 -99 28 -30 95 -29 104 0 8 23 -8 48 -19
30 -9 -14 -46 -14 -46 0 0 6 -7 26 -16 45 -16 33 -37 44 -49 24z"/>
<path d="M3961 359 c-13 -39 -13 -39 -1 -39 6 0 10 9 10 19 0 10 7 21 15 25
19 7 20 26 1 26 -8 0 -19 -14 -25 -31z"/>
<path d="M510 344 c-9 -10 -10 -18 -3 -25 8 -8 14 -5 22 9 13 25 -2 38 -19 16z"/>
<path d="M4192 348 c5 -15 28 -18 29 -3 0 6 -7 12 -17 13 -10 3 -15 -1 -12
-10z"/>
<path d="M406 305 c-9 -14 -13 -25 -8 -25 10 0 42 33 42 43 0 15 -19 5 -34
-18z"/>
<path d="M588 293 c-29 -38 -29 -59 1 -44 17 9 46 81 33 81 -4 -1 -19 -17 -34
-37z"/>
<path d="M3400 295 c0 -8 5 -15 10 -15 6 0 10 7 10 15 0 8 -4 15 -10 15 -5 0
-10 -7 -10 -15z"/>
<path d="M3933 247 c-16 -20 -23 -46 -13 -52 11 -7 40 22 40 40 0 20 -16 27
-27 12z"/>
<path d="M4321 199 c-6 -18 -11 -43 -11 -57 l0 -26 20 22 c15 16 33 22 60 22
35 0 40 -3 40 -22 0 -19 2 -20 10 -8 21 32 11 49 -35 61 -26 7 -45 17 -45 25
0 27 -28 14 -39 -17z"/>
<path d="M3824 194 c3 -9 6 -25 7 -37 0 -21 1 -21 10 2 11 28 5 51 -12 51 -6
0 -8 -7 -5 -16z"/>
<path d="M2900 170 c0 -13 5 -18 14 -14 8 3 12 12 9 20 -8 21 -23 17 -23 -6z"/>
<path d="M4020 150 c0 -5 12 -10 26 -10 14 0 23 4 19 10 -3 6 -15 10 -26 10
-10 0 -19 -4 -19 -10z"/>
</g>
</svg>
