<?xml version="1.0" standalone="no"?>
<!--<!DOCTYPE svg PUBLIC "-//W3C//DTD SVG 20010904//EN"-->
<!-- "http://www.w3.org/TR/2001/REC-SVG-20010904/DTD/svg10.dtd">-->
<svg version="1.0" xmlns="http://www.w3.org/2000/svg"
 width="422.000000pt" height="331.000000pt" viewBox="0 0 422.000000 331.000000"
 preserveAspectRatio="xMidYMid meet" style="background-color: #DAA520FF;
filter: blur(.5rem)">

<g transform="translate(0.000000,331.000000) scale(0.100000,-0.100000)"
fill="#CD5C5CFF" stroke="none">
<path d="M0 1655 l0 -1655 2110 0 2110 0 0 1655 0 1655 -2110 0 -2110 0 0
-1655z m2207 1387 c3 -13 -1 -48 -10 -76 -26 -82 -29 -120 -17 -166 9 -32 14
-40 21 -29 5 8 9 23 9 34 0 34 56 138 90 170 18 17 43 52 55 79 21 44 24 46
34 28 18 -34 12 -76 -19 -138 -32 -61 -51 -166 -33 -177 5 -3 21 20 36 52 16
34 46 76 74 102 89 83 123 120 123 134 0 23 17 18 23 -7 9 -33 -2 -69 -33
-108 -39 -51 -68 -112 -76 -159 -8 -49 8 -55 31 -12 22 43 98 117 145 141 22
11 59 39 81 62 22 22 42 38 46 35 16 -16 -22 -91 -72 -146 -54 -58 -94 -128
-95 -165 0 -13 18 -1 69 47 42 39 94 77 135 96 36 17 84 47 106 67 37 34 40
35 40 14 0 -35 -34 -81 -100 -140 -62 -53 -102 -105 -115 -147 -9 -32 4 -29
50 12 45 40 130 87 192 105 22 7 64 30 92 51 28 21 51 33 51 26 -1 -27 -48
-93 -87 -122 -23 -16 -62 -45 -87 -62 -44 -32 -105 -118 -92 -130 3 -4 26 8
51 26 55 39 97 57 193 82 53 13 91 31 128 59 56 42 60 36 18 -30 -30 -49 -58
-71 -142 -116 -73 -39 -142 -101 -142 -128 0 -11 15 -8 63 14 64 29 154 50
214 50 36 0 121 38 142 64 24 29 31 16 10 -19 -36 -61 -105 -113 -179 -135
-70 -21 -160 -80 -160 -105 0 -18 3 -18 64 0 32 10 91 15 166 15 104 0 122 3
165 25 27 13 51 23 52 21 7 -7 -52 -69 -87 -91 -21 -13 -67 -28 -109 -34 -85
-13 -161 -43 -178 -70 -11 -18 -7 -19 85 -17 66 1 121 -5 174 -18 72 -18 81
-18 133 -4 56 15 56 15 38 -4 -40 -44 -93 -62 -208 -68 -105 -6 -164 -21 -172
-45 -2 -6 32 -15 79 -22 46 -6 119 -25 163 -43 64 -25 91 -31 137 -28 32 2 58
0 58 -3 0 -4 -24 -17 -52 -29 -58 -25 -88 -27 -225 -15 -67 6 -100 4 -122 -5
-17 -7 -29 -16 -26 -19 2 -4 30 -13 62 -20 32 -7 104 -37 161 -67 89 -47 111
-55 163 -57 l60 -1 -37 -19 c-63 -32 -131 -33 -222 -3 -82 28 -181 33 -189 11
-2 -6 18 -19 45 -28 51 -19 104 -53 191 -124 37 -30 67 -45 108 -53 48 -10 54
-14 37 -23 -10 -6 -48 -11 -84 -11 -57 -1 -75 4 -150 41 -125 62 -257 74 -147
13 23 -13 80 -63 127 -110 87 -89 145 -129 190 -131 24 -1 24 -1 -5 -10 -68
-22 -166 6 -240 69 -52 43 -175 91 -175 68 0 -3 27 -30 60 -62 33 -31 80 -89
104 -128 30 -47 58 -79 85 -96 80 -48 81 -51 26 -44 -74 9 -143 46 -209 114
-79 79 -204 130 -132 53 42 -44 90 -122 115 -185 22 -54 49 -86 111 -131 l25
-18 -30 6 c-71 14 -139 59 -200 133 -59 71 -130 130 -143 117 -3 -3 0 -16 8
-28 41 -66 63 -113 84 -187 20 -67 33 -91 68 -127 37 -39 40 -44 18 -38 -77
23 -152 92 -185 172 -18 43 -125 145 -125 119 0 -2 11 -34 25 -71 14 -36 29
-105 34 -152 7 -72 14 -92 40 -130 18 -25 30 -47 28 -49 -2 -2 -25 10 -50 26
-46 29 -107 108 -107 139 0 30 -48 116 -80 146 l-33 30 9 -45 c8 -46 10 -116
4 -225 -3 -46 1 -70 17 -103 12 -23 19 -42 16 -42 -4 0 -21 11 -39 25 -51 39
-75 88 -85 170 -8 78 -40 155 -63 155 -11 0 -14 -15 -15 -59 0 -38 -10 -88
-27 -137 -26 -77 -29 -133 -8 -189 12 -34 -52 32 -72 73 -13 28 -15 53 -11
115 5 78 -13 177 -32 177 -4 0 -15 -29 -24 -63 -9 -37 -35 -96 -62 -140 -44
-70 -47 -79 -43 -131 1 -31 0 -56 -4 -56 -14 0 -58 99 -58 128 0 16 9 55 20
87 21 62 26 130 10 155 -11 17 -10 19 -43 -51 -15 -30 -51 -82 -80 -115 -66
-73 -80 -97 -87 -154 l-5 -45 -18 49 c-24 70 -21 105 13 159 17 26 37 64 45
84 16 38 20 103 7 103 -4 0 -27 -27 -50 -60 -23 -33 -68 -79 -100 -102 -78
-59 -111 -96 -118 -135 -10 -53 -24 -38 -24 25 0 60 13 89 65 147 33 37 75
117 75 145 0 11 -2 20 -4 20 -3 0 -31 -26 -63 -58 -32 -32 -94 -79 -139 -104
-62 -36 -88 -58 -112 -95 l-32 -48 0 38 c0 54 23 93 101 169 56 55 109 129
109 153 0 14 -29 2 -51 -21 -31 -33 -118 -85 -194 -115 -34 -13 -80 -42 -107
-67 -51 -48 -59 -41 -29 24 18 39 59 79 151 147 45 33 108 112 98 122 -3 4
-31 -10 -62 -30 -30 -19 -93 -47 -138 -61 -125 -40 -138 -45 -186 -82 -41 -31
-43 -32 -37 -10 18 59 81 117 177 163 57 28 147 109 135 121 -4 4 -31 -4 -59
-19 -62 -30 -107 -43 -202 -56 -39 -6 -96 -23 -128 -39 -32 -16 -58 -25 -58
-20 0 5 23 31 51 58 36 34 70 56 122 75 83 30 144 64 171 94 26 29 16 35 -30
17 -61 -22 -91 -28 -210 -35 -81 -5 -121 -13 -152 -28 -50 -25 -53 -18 -9 24
42 40 96 66 181 87 72 18 135 45 153 68 18 21 -339 16 -389 -5 -47 -20 -49 -8
-5 25 56 43 92 57 188 71 57 9 112 24 139 38 l45 24 -95 6 c-52 3 -122 14
-154 24 -56 16 -95 16 -166 -1 l-25 -6 25 22 c50 43 90 54 220 60 76 4 135 11
150 20 23 12 19 14 -70 35 -52 11 -115 32 -140 44 -32 17 -62 24 -107 24 -34
0 -60 4 -57 8 14 23 96 41 156 35 241 -24 302 -17 182 23 -37 12 -97 40 -135
62 -49 30 -83 42 -126 47 l-58 6 40 12 c63 20 126 16 203 -11 67 -23 173 -34
171 -17 0 4 -27 20 -61 36 -33 16 -84 50 -113 76 -39 35 -66 51 -106 61 -47
11 -51 14 -29 20 63 18 122 10 192 -27 71 -36 168 -57 168 -35 0 6 -4 11 -9
11 -19 0 -104 75 -141 124 -28 39 -53 60 -90 77 -51 23 -52 23 -24 31 41 11
100 -1 137 -28 80 -59 123 -84 154 -90 19 -4 36 -4 38 -2 3 2 -19 29 -48 59
-28 30 -65 79 -81 109 -32 61 -71 99 -120 117 l-31 11 47 1 c66 1 89 -10 167
-83 61 -58 136 -104 148 -92 3 3 -13 28 -35 58 -23 29 -58 91 -80 138 -37 81
-61 112 -107 139 -17 11 -15 12 19 7 53 -7 108 -46 155 -110 43 -57 107 -116
128 -116 19 0 17 4 -25 75 -21 35 -49 100 -62 144 -17 60 -32 91 -60 121 -43
46 -29 53 34 16 45 -27 71 -57 106 -129 34 -68 139 -168 115 -109 -41 100 -57
155 -62 211 -6 66 -32 143 -52 155 -24 15 -9 26 17 12 49 -26 80 -70 112 -158
19 -52 45 -101 65 -125 39 -44 43 -34 19 48 -13 42 -15 76 -10 156 5 81 3 110
-9 139 -19 47 -19 47 10 28 42 -27 69 -83 76 -154 6 -67 49 -180 68 -180 7 0
8 28 5 78 -5 66 -2 88 20 157 20 59 25 90 20 118 -6 36 -5 38 14 28 38 -20 53
-72 46 -163 -10 -135 37 -234 49 -104 6 64 15 88 70 190 15 27 27 63 27 80 l1
31 19 -24 c11 -13 23 -35 27 -49z"/>
<path d="M2074 2636 c-248 -60 -456 -248 -603 -543 -86 -172 -114 -313 -91
-453 50 -310 288 -548 627 -626 106 -25 309 -25 415 -1 381 89 628 363 663
737 7 82 -7 215 -31 289 -23 69 -87 192 -131 252 -92 125 -266 259 -402 310
-128 48 -329 63 -447 35z m236 -66 c24 -1 24 -1 5 -12 -29 -16 -131 -103 -198
-169 l-58 -57 -174 -4 c-96 -2 -175 -1 -175 3 0 13 101 100 160 138 109 70
263 115 365 106 28 -3 61 -5 75 -5z m141 -30 c5 0 -46 -53 -113 -117 -94 -92
-126 -118 -146 -116 -13 1 -27 5 -30 8 -17 17 240 240 265 231 8 -4 19 -6 24
-6z m110 -50 c18 -10 16 -14 -23 -53 -24 -23 -70 -73 -104 -111 -60 -68 -62
-70 -95 -60 l-33 10 110 112 c61 61 114 112 118 112 4 0 16 -5 27 -10z m188
-147 c47 -49 100 -113 118 -143 40 -67 88 -206 98 -279 l7 -55 -83 77 c-96 89
-232 183 -336 233 -40 19 -75 39 -78 43 -2 5 26 43 63 86 37 42 76 88 86 101
11 13 24 24 29 24 5 0 48 -39 96 -87z m-765 -91 c2 -4 -3 -17 -12 -29 -17 -21
-21 -21 -185 -15 l-167 7 15 23 c16 21 21 22 180 22 90 0 166 -4 169 -8z m165
-28 c2 -2 -4 -15 -13 -29 -17 -25 -49 -32 -75 -16 -11 7 -10 13 5 35 16 21 24
25 49 20 17 -4 32 -8 34 -10z m149 -77 c-18 -24 -25 -28 -51 -23 -41 8 -42 11
-18 44 20 28 23 29 56 20 l34 -11 -21 -30z m-431 -23 l23 -6 -20 -28 -19 -27
-88 13 c-48 8 -113 14 -144 14 -64 0 -72 5 -56 32 11 19 20 20 147 15 74 -3
145 -9 157 -13z m675 -50 c131 -74 247 -161 341 -256 79 -81 87 -99 67 -152
-9 -25 -11 -24 -112 77 -132 132 -269 233 -418 307 -25 12 -47 24 -48 26 -2 1
4 16 14 33 22 38 27 37 156 -35z m-514 20 c27 -8 27 -15 4 -44 -16 -19 -24
-22 -56 -16 l-37 7 21 30 c22 30 30 33 68 23z m166 -57 c18 -13 18 -15 1 -41
-15 -22 -23 -26 -44 -21 -40 10 -46 21 -27 49 18 29 43 33 70 13z m-466 -38
c34 -6 62 -16 62 -21 0 -5 -13 -28 -28 -51 -76 -111 -175 -316 -202 -417 l-12
-45 -20 39 c-61 120 -80 247 -54 373 9 45 23 96 30 115 l15 34 73 -7 c40 -5
101 -13 136 -20z m784 -128 c58 -39 136 -98 174 -132 80 -72 204 -208 204
-224 0 -15 -38 -75 -49 -75 -5 0 -34 31 -65 69 -72 88 -185 196 -278 264 -77
56 -206 137 -220 137 -14 0 -9 21 13 51 l20 29 48 -25 c27 -13 96 -56 153 -94z
m-585 78 l31 -10 -50 -82 c-104 -174 -173 -339 -200 -480 -7 -37 -17 -67 -23
-67 -6 0 -24 13 -39 29 l-28 29 22 84 c25 99 70 212 112 288 60 107 131 220
138 220 4 0 21 -5 37 -11z m166 -60 c12 -7 23 -13 25 -14 2 -2 -15 -36 -37
-77 -95 -175 -167 -385 -186 -543 -4 -33 -9 -63 -12 -67 -5 -9 -78 26 -87 41
-9 14 22 166 56 271 45 139 178 400 205 400 8 0 24 -5 36 -11z m193 -105 c137
-82 328 -255 429 -389 l45 -60 -39 -35 c-82 -75 -217 -140 -343 -166 -75 -16
-270 -19 -328 -6 l-35 8 1 70 c1 139 59 346 145 517 27 53 53 97 57 97 5 0 35
-16 68 -36z"/>
</g>
</svg>
