<?xml version="1.0" encoding="utf-8"?><svg xmlns="http://www.w3.org/2000/svg" xmlns:xlink="http://www.w3.org/1999/xlink" width="1376" height="667" preserveAspectRatio="xMidYMid" viewBox="0 0 1376 667" style="z-index:1;margin-right:-2px;display:block;background-repeat-y:initial;background-repeat-x:initial;background-color:rgb(241, 242, 243);animation-play-state:paused" ><g transform="translate(688,333.5) scale(1,1) translate(-688,-333.5)" style="transform:matrix(1, 0, 0, 1, 0, 0);animation-play-state:paused" ><linearGradient id="lg-0.24914677098799953" x1="0" x2="0.5" y1="0" y2="0" gradientUnits="objectBoundingBox" style="animation-play-state:paused" ><stop stop-color="#91eff0" offset="0" style="animation-play-state:paused" ></stop>

  
<stop stop-color="#87e7b2" offset="1" style="animation-play-state:paused" ></stop></linearGradient>
<path d="M -651.308 667 Q -587.811 569.836 -607.007 462.682 T -476.038 267.294 T -264.127 89.3752 T 19.4661 -63.2989 T 362.346 -184.055 T 749.527 -267.617 T 1164.09 -310.331 T 1587.91 -310.331 T 2002.47 -267.617 T 2389.65 -184.055 T 2732.53 -63.2989 T 3016.13 89.3752 T 3228.04 267.294 T 3359.01 462.682 T 3403.31 667" fill="url(#lg-0.24914677098799953)" opacity="0.9" style="opacity:0.9;animation-play-state:paused" ></path>
<path d="M -426.052 667 Q -363.919 572.595 -380.87 472.623 T -247.592 287.992 T -32.9007 122.367 T 252.439 -15.9483 T 594.119 -120.018 T 975.006 -184.623 T 1376 -206.524 T 1776.99 -184.623 T 2157.88 -120.018 T 2499.56 -15.9483 T 2784.9 122.367 T 2999.59 287.992 T 3132.87 472.623 T 3178.05 667" fill="url(#lg-0.24914677098799953)" opacity="0.9" style="opacity:0.9;animation-play-state:paused" ></path>
<path d="M -200.795 667 Q -115.694 570.891 -147.067 469.176 T 10.4553 284.833 T 261.037 126.535 T 587.602 5.06807 T 967.895 -71.2891 T 1376 -97.3332 T 1784.1 -71.2891 T 2164.4 5.06807 T 2490.96 126.535 T 2741.54 284.833 T 2899.07 469.176 T 2952.8 667" fill="url(#lg-0.24914677098799953)" opacity="0.9" style="opacity:0.9;animation-play-state:paused" ></path>
<path d="M 24.4612 667 Q 79.8779 566.129 90.6103 464.55 T 282.582 281.917 T 581.585 136.978 T 958.352 43.9223 T 1376 11.8573 T 1793.65 43.9223 T 2170.41 136.978 T 2469.42 281.917 T 2661.39 464.55 T 2727.54 667" fill="url(#lg-0.24914677098799953)" opacity="0.9" style="opacity:0.9;animation-play-state:paused" ></path>
<path d="M 249.718 667 Q 318.538 577.294 317.641 480.273 T 513.218 316.069 T 812.859 194.191 T 1180.42 129.342 T 1571.58 129.342 T 1939.14 194.191 T 2238.78 316.069 T 2434.36 480.273 T 2502.28 667" fill="url(#lg-0.24914677098799953)" opacity="0.9" style="opacity:0.9;animation-play-state:paused" ></path>
<path d="M 474.974 667 Q 560.128 575.63 564.204 477.496 T 814.22 325.526 T 1175.5 241.189 T 1576.5 241.189 T 1937.78 325.526 T 2187.8 477.496 T 2277.03 667" fill="url(#lg-0.24914677098799953)" opacity="0.9" style="opacity:0.9;animation-play-state:paused" ></path>
<path d="M 700.231 667 Q 739.624 581.349 829.291 474.458 T 1167.18 355.461 T 1584.82 355.461 T 1922.71 474.458 T 2051.77 667" fill="url(#lg-0.24914677098799953)" opacity="0.9" style="opacity:0.9;animation-play-state:paused" ></path>
<path d="M 925.487 667 Q 998.698 594.241 1057.44 512.581 T 1376 448.619 T 1694.56 512.581 T 1826.51 667" fill="url(#lg-0.24914677098799953)" opacity="0.9" style="opacity:0.9;animation-play-state:paused" ></path>
<path d="M 1150.74 667 Q 1255.89 604.925 1376 557.81 T 1601.26 667" fill="url(#lg-0.24914677098799953)" opacity="0.9" style="opacity:0.9;animation-play-state:paused" ></path></g></svg>