<svg width="567.3150268554688px" height="112.4375px" xmlns="http://www.w3.org/2000/svg" viewBox="-33.657513427734386 18.78125 567.3150268554688 112.4375" style="background: rgb(245, 244, 240);" preserveAspectRatio="xMidYMid"><defs><filter id="editing-marble" x="-100%" y="-100%" width="300%" height="300%"><feFlood flood-color="#2d2b31" result="flood-1"></feFlood><feComposite operator="in" in="flood-1" in2="SourceAlpha" result="flood-2"></feComposite><feTurbulence baseFrequency="0.06" type="fractalNoise" numOctaves="1" seed="2" result="bs-1"></feTurbulence><feGaussianBlur stdDeviation="1" in="flood-2" result="bs-2"></feGaussianBlur><feDisplacementMap scale="179" in="bs-2" in2="bs-1" result="bs-3"></feDisplacementMap><feComposite operator="in" in="bs-3" in2="SourceAlpha" result="texture"></feComposite><feMerge><feMergeNode in="SourceGraphic"></feMergeNode><feMergeNode in="texture"></feMergeNode></feMerge></filter></defs><g filter="url(#editing-marble)"><g transform="translate(47.22250008583069, 97.56781387329102)"><path d="M24.88-30.79L24.88-30.79L24.88-30.79Q24.88-30.19 25.13-29.78L25.13-29.78L25.13-29.78Q25.38-29.37 25.38-29.04L25.38-29.04L25.38-29.04Q25.27-28.49 25.59-27.75L25.59-27.75L25.59-27.75Q25.92-27.02 25.92-26.25L25.92-26.25L25.92-26.25Q25.81-25.92 25.07-25.40L25.07-25.40L25.07-25.40Q24.34-24.88 23.43-24.28L23.43-24.28L23.43-24.28Q22.53-23.68 21.68-23.11L21.68-23.11L21.68-23.11Q20.84-22.53 20.51-22.20L20.51-22.20L20.51-22.20Q20.78-21.77 21.19-21.49L21.19-21.49L21.19-21.49Q21.60-21.22 21.98-20.95L21.98-20.95L21.98-20.95Q22.31-20.67 22.94-20.15L22.94-20.15L22.94-20.15Q23.57-19.63 24.25-19.03L24.25-19.03L24.25-19.03Q24.94-18.43 25.51-17.88L25.51-17.88L25.51-17.88Q26.09-17.34 26.25-17.06L26.25-17.06L26.25-17.06Q26.36-17.01 26.44-16.68L26.44-16.68L26.44-16.68Q26.52-16.35 26.58-15.94L26.58-15.94L26.58-15.94Q26.63-15.53 26.66-15.15L26.66-15.15L26.66-15.15Q26.69-14.77 26.69-14.66L26.69-14.66L26.69-14.66Q26.63-14.05 26.71-13.78L26.71-13.78L26.71-13.78Q26.80-13.51 26.88-13.21L26.88-13.21L26.88-13.21Q26.96-12.91 27.02-12.63L27.02-12.63L27.02-12.63Q27.07-12.36 27.07-12.36L27.07-12.36L27.07-12.36Q27.07-12.03 26.77-11.76L26.77-11.76L26.77-11.76Q26.47-11.48 26.20-11.27L26.20-11.27L26.20-11.27Q25.92-11.05 25.68-10.83L25.68-10.83L25.68-10.83Q25.43-10.61 25.16-10.34L25.16-10.34L25.16-10.34Q24.83-10.06 24.42-9.82L24.42-9.82L24.42-9.82Q24.01-9.57 23.68-9.30L23.68-9.30L23.68-9.30Q23.46-9.19 23.30-9.00L23.30-9.00L23.30-9.00Q23.13-8.80 22.97-8.70L22.97-8.70L22.97-8.70Q22.48-8.26 21.88-7.85L21.88-7.85L21.88-7.85Q21.27-7.44 20.73-7.11L20.73-7.11L20.73-7.11Q20.13-6.73 19.58-6.32L19.58-6.32L19.58-6.32Q19.03-5.91 18.43-5.47L18.43-5.47L18.43-5.47Q17.61-4.98 16.82-4.51L16.82-4.51L16.82-4.51Q16.02-4.05 15.26-3.55L15.26-3.55L15.26-3.55Q14.88-3.28 14.52-3.01L14.52-3.01L14.52-3.01Q14.16-2.73 13.78-2.52L13.78-2.52L13.78-2.52Q12.69-1.91 11.59-1.26L11.59-1.26L11.59-1.26Q10.50-0.60 9.46 0.16L9.46 0.16L9.46 0.16Q8.59 0.38 8.20 0.52L8.20 0.52L8.20 0.52Q7.82 0.66 7.44 0.66L7.44 0.66L7.44 0.66Q7.11 0.66 7.03 0.41L7.03 0.41L7.03 0.41Q6.95 0.16 6.73 0.16L6.73 0.16L6.73 0.16Q5.91 0.27 5.82 0.19L5.82 0.19L5.82 0.19Q5.74 0.11 5.58 0L5.58 0L5.58 0Q4.76 0.11 4.21 0L4.21 0L4.21 0Q4.05-0.27 3.99-0.68L3.99-0.68L3.99-0.68Q3.94-1.09 3.66-1.37L3.66-1.37L3.66-1.37Q3.77-1.91 3.69-2.41L3.69-2.41L3.69-2.41Q3.61-2.90 3.72-3.39L3.72-3.39L3.72-3.39Q3.55-4.05 3.55-4.59L3.55-4.59L3.55-4.59Q3.55-5.30 3.72-6.07L3.72-6.07L3.72-6.07Q3.55-6.56 3.55-7.05L3.55-7.05L3.55-7.05Q3.55-7.49 3.61-7.93L3.61-7.93L3.61-7.93Q3.66-8.37 3.66-8.80L3.66-8.80L3.66-8.80Q3.66-9.35 3.45-9.79L3.45-9.79L3.45-9.79Q3.45-10.77 3.42-11.73L3.42-11.73L3.42-11.73Q3.39-12.69 3.39-13.67L3.39-13.67L3.39-13.67Q3.39-14.11 3.39-14.55L3.39-14.55L3.39-14.55Q3.39-14.98 3.45-15.48L3.45-15.48L3.45-15.48Q3.39-15.75 3.39-16.30L3.39-16.30L3.39-16.30Q3.39-16.63 3.50-16.87L3.50-16.87L3.50-16.87Q3.61-17.12 3.61-17.39L3.61-17.39L3.61-17.39Q3.61-17.99 3.53-18.54L3.53-18.54L3.53-18.54Q3.45-19.09 3.45-19.69L3.45-19.69L3.45-19.69Q3.45-20.23 3.53-20.73L3.53-20.73L3.53-20.73Q3.61-21.22 3.61-21.77L3.61-21.77L3.61-21.77Q3.45-21.98 3.39-22.26L3.39-22.26L3.39-22.26Q3.34-22.53 3.34-22.80L3.34-22.80L3.34-22.80Q3.34-23.02 3.45-23.46L3.45-23.46L3.45-23.46Q3.45-23.90 3.39-24.39L3.39-24.39L3.39-24.39Q3.34-24.88 3.34-25.32L3.34-25.32L3.34-25.32Q3.34-25.54 3.36-25.70L3.36-25.70L3.36-25.70Q3.39-25.87 3.45-26.09L3.45-26.09L3.45-26.09Q3.34-26.47 3.34-26.85L3.34-26.85L3.34-26.85Q3.34-27.23 3.34-27.62L3.34-27.62L3.34-27.62Q3.34-28.11 3.39-28.63L3.39-28.63L3.39-28.63Q3.45-29.15 3.45-29.64L3.45-29.64L3.45-29.64Q3.39-30.46 3.47-30.93L3.47-30.93L3.47-30.93Q3.55-31.39 3.61-31.88L3.61-31.88L3.61-35L3.61-35Q3.61-35.44 3.50-35.96L3.50-35.96L3.50-35.96Q3.39-36.48 3.39-36.97L3.39-36.97L3.39-36.97Q3.39-37.24 3.45-37.79L3.45-37.79L3.45-37.79Q3.50-38.34 3.61-38.61L3.61-38.61L3.61-38.61Q4.38-39.76 5.41-39.92L5.41-39.92L5.41-39.92Q5.63-40.03 5.74-40.22L5.74-40.22L5.74-40.22Q5.85-40.41 6.23-40.41L6.23-40.41L6.23-40.41Q6.89-40.96 7.11-41.26L7.11-41.26L7.11-41.26Q7.33-41.56 7.66-41.84L7.66-41.84L7.66-41.84Q7.82-41.84 7.96-41.92L7.96-41.92L7.96-41.92Q8.09-42 8.31-42L8.31-42L8.31-42Q8.70-41.89 8.94-41.78L8.94-41.78L8.94-41.78Q9.19-41.67 9.46-41.62L9.46-41.62L9.46-41.62Q10.55-40.80 11.62-40.00L11.62-40.00L11.62-40.00Q12.69-39.21 13.78-38.34L13.78-38.34L13.78-38.34Q14.27-37.90 14.74-37.46L14.74-37.46L14.74-37.46Q15.20-37.02 15.70-36.64L15.70-36.64L15.70-36.64Q15.97-36.48 16.30-36.31L16.30-36.31L16.30-36.31Q16.63-36.15 16.90-35.93L16.90-35.93L16.90-35.93Q17.50-35.55 18.10-35.14L18.10-35.14L18.10-35.14Q18.70-34.73 19.30-34.34L19.30-34.34L23.24-31.88L23.24-31.88Q23.68-31.61 24.09-31.34L24.09-31.34L24.09-31.34Q24.50-31.06 24.88-30.79ZM17.06-28.44L17.06-28.44L17.06-28.44Q16.24-28.82 15.50-29.37L15.50-29.37L15.50-29.37Q14.77-29.91 13.95-30.19L13.95-30.19L13.95-30.19Q13.51-30.63 13.02-30.79L13.02-30.79L13.02-30.79Q12.52-30.95 12.09-31.28L12.09-31.28L12.09-31.28Q11.59-31.72 11.21-32.05L11.21-32.05L11.21-32.05Q10.83-32.38 10.23-32.65L10.23-32.65L10.23-32.65Q9.95-30.95 9.82-29.34L9.82-29.34L9.82-29.34Q9.68-27.73 9.68-26.09L9.68-26.09L9.68-26.09Q9.68-24.39 10.01-22.86L10.01-22.86L10.01-22.86Q10.61-23.13 11.16-23.46L11.16-23.46L11.16-23.46Q11.70-23.79 12.25-24.12L12.25-24.12L12.25-24.12Q12.47-24.23 12.66-24.34L12.66-24.34L12.66-24.34Q12.85-24.45 13.13-24.55L13.13-24.55L13.13-24.55Q13.40-24.77 13.67-24.99L13.67-24.99L13.67-24.99Q13.95-25.21 14.22-25.38L14.22-25.38L14.22-25.38Q14.82-25.81 15.39-26.17L15.39-26.17L15.39-26.17Q15.97-26.52 16.57-26.96L16.57-26.96L16.57-26.96Q16.84-27.18 17.17-27.32L17.17-27.32L17.17-27.32Q17.50-27.45 17.83-27.73L17.83-27.73L17.83-27.73Q17.77-27.95 17.47-28.08L17.47-28.08L17.47-28.08Q17.17-28.22 17.06-28.44ZM15.48-18.21L15.48-18.21L15.48-18.21Q15.31-18.21 15.15-18.29L15.15-18.29L15.15-18.29Q14.98-18.38 14.77-18.38L14.77-18.38L14.77-18.38Q14.11-17.94 13.54-17.64L13.54-17.64L13.54-17.64Q12.96-17.34 12.36-16.95L12.36-16.95L12.36-16.95Q12.09-16.79 11.81-16.57L11.81-16.57L11.81-16.57Q11.54-16.35 11.27-16.24L11.27-16.24L11.27-16.24Q10.55-15.80 10.17-15.50L10.17-15.50L10.17-15.50Q9.79-15.20 9.57-14.77L9.57-14.77L9.57-14.77Q9.68-13.23 9.65-11.70L9.65-11.70L9.65-11.70Q9.63-10.17 9.63-8.59L9.63-8.59L9.63-8.59Q9.63-8.31 9.79-7.98L9.79-7.98L9.79-7.98Q10.28-8.04 11.54-8.72L11.54-8.72L11.54-8.72Q12.80-9.41 14.19-10.28L14.19-10.28L14.19-10.28Q15.59-11.16 16.87-11.98L16.87-11.98L16.87-11.98Q18.16-12.80 18.76-13.18L18.76-13.18L18.76-13.18Q19.20-13.29 19.77-13.62L19.77-13.62L19.77-13.62Q20.34-13.95 20.45-14.38L20.45-14.38L20.45-14.38Q19.41-15.59 18.05-16.38L18.05-16.38L18.05-16.38Q16.68-17.17 15.48-18.21ZM39.27-14.33L39.27-14.33L39.27-14.33Q39.38-14.05 40.06-13.18L40.06-13.18L40.06-13.18Q40.74-12.30 41.62-11.27L41.62-11.27L41.62-11.27Q42.49-10.23 43.29-9.27L43.29-9.27L43.29-9.27Q44.08-8.31 44.41-7.88L44.41-7.88L44.41-7.88Q45.01-7.11 45.58-6.37L45.58-6.37L45.58-6.37Q46.16-5.63 46.65-4.81L46.65-4.81L47.63-3.17L47.63-3.17Q48.07-2.63 48.43-2.24L48.43-2.24L48.43-2.24Q48.78-1.86 49-1.20L49-1.20L49-1.20Q49.11-0.77 49.11-0.60L49.11-0.60L49.11-0.60Q49.11-0.22 48.84-0.05L48.84-0.05L48.84-0.05Q48.40-0.05 48.37 0.08L48.37 0.08L48.37 0.08Q48.34 0.22 48.13 0.33L48.13 0.33L48.13 0.33Q47.91 0.44 47.44 0.46L47.44 0.46L47.44 0.46Q46.98 0.49 46.70 0.49L46.70 0.49L46.70 0.49Q46.21 0.49 45.47 0.46L45.47 0.46L45.47 0.46Q44.73 0.44 44.30 0.60L44.30 0.60L44.30 0.60Q44.19 0.66 43.97 0.77L43.97 0.77L43.97 0.77Q43.75 0.88 43.64 0.88L43.64 0.88L43.64 0.88Q43.20 0.88 43.01 0.74L43.01 0.74L43.01 0.74Q42.82 0.60 42.49 0.55L42.49 0.55L42.49 0.55Q42.05 0.05 41.75-0.46L41.75-0.46L41.75-0.46Q41.45-0.98 41.07-1.53L41.07-1.53L41.07-1.53Q40.69-1.91 40.30-2.21L40.30-2.21L40.30-2.21Q39.92-2.52 39.65-2.90L39.65-2.90L39.65-2.90Q38.83-4.10 37.95-5.25L37.95-5.25L37.95-5.25Q37.08-6.40 36.15-7.49L36.15-7.49L36.15-7.49Q35.71-8.09 35.22-8.59L35.22-8.59L35.22-8.59Q34.73-9.08 34.29-9.68L34.29-9.68L34.29-9.68Q33.85-10.23 33.47-10.86L33.47-10.86L33.47-10.86Q33.09-11.48 32.70-12.09L32.70-12.09L32.70-12.09Q32.38-12.58 31.83-13.37L31.83-13.37L31.83-13.37Q31.28-14.16 30.63-14.96L30.63-14.96L30.63-14.96Q29.97-15.75 29.31-16.46L29.31-16.46L29.31-16.46Q28.66-17.17 28.22-17.55L28.22-17.55L28.22-17.55Q28.16-17.88 27.95-18.07L27.95-18.07L27.95-18.07Q27.73-18.27 27.45-18.43L27.45-18.43L27.45-18.43Q27.34-18.70 27.21-18.95L27.21-18.95L27.21-18.95Q27.07-19.20 27.07-19.47L27.07-19.47L27.07-19.47Q27.07-19.85 27.23-20.18L27.23-20.18L27.23-20.18Q27.34-20.40 27.37-20.59L27.37-20.59L27.37-20.59Q27.40-20.78 27.51-21L27.51-21L27.51-21Q27.78-21.60 28.25-22.18L28.25-22.18L28.25-22.18Q28.71-22.75 28.98-23.41L28.98-23.41L28.98-23.41Q29.09-23.57 29.09-23.76L29.09-23.76L29.09-23.76Q29.09-23.95 29.20-24.12L29.20-24.12L29.20-24.12Q29.31-24.55 29.67-24.86L29.67-24.86L29.67-24.86Q30.02-25.16 30.24-25.54L30.24-25.54L30.24-25.54Q30.52-25.98 30.76-26.44L30.76-26.44L30.76-26.44Q31.01-26.91 31.28-27.45L31.28-27.45L31.28-27.45Q32.10-28.82 33.00-30.11L33.00-30.11L33.00-30.11Q33.91-31.39 34.84-32.70L34.84-32.70L34.84-32.70Q35.55-33.80 36.23-34.81L36.23-34.81L36.23-34.81Q36.91-35.82 37.63-36.86L37.63-36.86L37.63-36.86Q38.01-37.35 38.45-38.01L38.45-38.01L38.45-38.01Q38.88-38.66 39.40-39.32L39.40-39.32L39.40-39.32Q39.92-39.98 40.47-40.52L40.47-40.52L40.47-40.52Q41.02-41.07 41.56-41.40L41.56-41.40L41.56-41.40Q42.38-41.45 42.66-41.04L42.66-41.04L42.66-41.04Q42.93-40.63 43.48-40.63L43.48-40.63L43.48-40.63Q44.19-40.47 44.41-40.20L44.41-40.20L44.41-40.20Q44.63-39.92 44.90-39.65L44.90-39.65L44.90-39.65Q45.66-39.65 46.13-39.38L46.13-39.38L46.13-39.38Q46.59-39.10 47.03-38.55L47.03-38.55L47.03-38.55Q46.87-37.95 46.54-37.49L46.54-37.49L46.54-37.49Q46.21-37.02 45.94-36.53L45.94-36.53L45.94-36.53Q45.50-36.31 45.31-35.93L45.31-35.93L45.31-35.93Q45.12-35.55 44.73-35.33L44.73-35.33L44.73-35.33Q44.19-34.40 43.59-33.55L43.59-33.55L43.59-33.55Q42.98-32.70 42.38-31.88L42.38-31.88L42.38-31.88Q42.05-31.39 41.70-31.01L41.70-31.01L41.70-31.01Q41.34-30.63 41.07-30.19L41.07-30.19L41.07-30.19Q40.96-30.02 40.88-29.83L40.88-29.83L40.88-29.83Q40.80-29.64 40.69-29.48L40.69-29.48L40.69-29.48Q40.03-28.44 39.27-27.54L39.27-27.54L39.27-27.54Q38.50-26.63 37.84-25.54L37.84-25.54L37.84-25.54Q37.63-25.16 37.49-24.75L37.49-24.75L37.49-24.75Q37.35-24.34 37.13-23.95L37.13-23.95L37.13-23.95Q36.91-23.63 36.50-23.08L36.50-23.08L36.50-23.08Q36.09-22.53 35.71-21.90L35.71-21.90L35.71-21.90Q35.33-21.27 35.03-20.70L35.03-20.70L35.03-20.70Q34.73-20.13 34.73-19.74L34.73-19.74L34.73-19.74Q34.78-19.47 35.41-18.68L35.41-18.68L35.41-18.68Q36.04-17.88 36.83-16.98L36.83-16.98L36.83-16.98Q37.63-16.08 38.34-15.29L38.34-15.29L38.34-15.29Q39.05-14.49 39.27-14.33ZM42.88-24.28L42.88-24.28L42.88-24.28Q43.26-23.46 43.70-22.86L43.70-22.86L43.70-22.86Q43.86-22.64 44.08-22.48L44.08-22.48L44.08-22.48Q44.30-22.31 44.41-22.04L44.41-22.04L44.41-22.04Q44.52-21.93 44.63-21.57L44.63-21.57L44.63-21.57Q44.73-21.22 44.84-21.05L44.84-21.05L44.84-21.05Q45.01-20.62 45.50-20.07L45.50-20.07L45.50-20.07Q45.99-19.52 45.99-19.09L45.99-19.09L45.99-19.09Q45.99-18.81 45.88-18.48L45.88-18.48L45.88-18.48Q45.77-18.16 45.72-17.88L45.72-17.88L45.72-17.88Q45.66-17.55 45.66-17.20L45.66-17.20L45.66-17.20Q45.66-16.84 45.45-16.57L45.45-16.57L45.45-16.57Q45.17-16.30 44.84-16.24L44.84-16.24L44.84-16.24Q44.52-16.19 44.24-15.97L44.24-15.97L44.24-15.97Q44.13-15.86 43.91-15.59L43.91-15.59L43.91-15.59Q43.70-15.31 43.48-14.98L43.48-14.98L43.48-14.98Q43.26-14.66 43.07-14.36L43.07-14.36L43.07-14.36Q42.88-14.05 42.88-13.89L42.88-13.89L42.88-13.89Q42.22-13.84 42.03-13.86L42.03-13.86L42.03-13.86Q41.84-13.89 41.62-13.84L41.62-13.84L41.62-13.84Q41.34-14.11 41.04-14.30L41.04-14.30L41.04-14.30Q40.74-14.49 40.30-14.66L40.30-14.66L40.30-14.66Q40.20-15.09 39.81-15.67L39.81-15.67L39.81-15.67Q39.43-16.24 39.16-16.63L39.16-16.63L38.77-17.12L38.77-17.12Q37.95-18.27 37.27-19.33L37.27-19.33L37.27-19.33Q36.59-20.40 36.26-21.71L36.26-21.71L36.26-21.71Q37.30-22.48 37.87-22.86L37.87-22.86L37.87-22.86Q38.45-23.24 39.10-23.57L39.10-23.57L39.10-23.57Q39.76-23.90 40.39-24.20L40.39-24.20L40.39-24.20Q41.02-24.50 41.56-24.94L41.56-24.94L41.56-24.94Q42-24.94 42.16-24.88L42.16-24.88L42.16-24.88Q42.33-24.83 42.38-24.77L42.38-24.77L42.38-24.77Q42.44-24.72 42.52-24.58L42.52-24.58L42.52-24.58Q42.60-24.45 42.88-24.28ZM75.74 0.16L75.36 0.11L75.36 0.11Q75.09 0.77 74.21 1.20L74.21 1.20L74.21 1.20Q73.83 0.98 73.53 0.68L73.53 0.68L73.53 0.68Q73.23 0.38 72.79 0.22L72.79 0.22L72.79 0.22Q72.46-0.44 72.30-0.57L72.30-0.57L72.30-0.57Q72.13-0.71 71.91-0.77L71.91-0.77L71.91-0.77Q71.59-1.04 71.37-1.42L71.37-1.42L71.37-1.42Q71.15-1.80 70.88-2.08L70.88-2.08L70.88-2.08Q70.77-2.13 70.46-2.43L70.46-2.43L70.46-2.43Q70.16-2.73 69.84-3.06L69.84-3.06L69.84-3.06Q69.51-3.39 69.23-3.69L69.23-3.69L69.23-3.69Q68.96-3.99 68.91-3.99L68.91-3.99L68.91-3.99Q68.41-4.32 68.03-4.70L68.03-4.70L68.03-4.70Q67.92-4.87 67.79-5.06L67.79-5.06L67.79-5.06Q67.65-5.25 67.54-5.36L67.54-5.36L67.54-5.36Q67.10-5.52 66.83-5.82L66.83-5.82L66.83-5.82Q66.55-6.13 66.31-6.51L66.31-6.51L66.31-6.51Q66.06-6.89 65.76-7.19L65.76-7.19L65.76-7.19Q65.46-7.49 65.08-7.66L65.08-7.66L65.08-7.66Q64.70-8.20 64.15-8.56L64.15-8.56L64.15-8.56Q63.60-8.91 63.22-9.41L63.22-9.41L63.22-9.41Q62.89-9.79 62.51-10.14L62.51-10.14L62.51-10.14Q62.13-10.50 61.69-10.83L61.69-10.83L61.69-10.83Q61.47-11.16 60.98-11.79L60.98-11.79L60.98-11.79Q60.48-12.41 60.10-12.47L60.10-12.47L60.10-12.47Q60.05-11.21 60.02-9.95L60.02-9.95L60.02-9.95Q59.99-8.70 59.94-7.44L59.94-7.44L59.94-7.44Q59.94-6.78 59.96-6.07L59.96-6.07L59.96-6.07Q59.99-5.36 59.94-4.65L59.94-4.65L59.94-4.65Q59.88-4.38 59.80-4.07L59.80-4.07L59.80-4.07Q59.72-3.77 59.72-3.45L59.72-3.45L59.72-3.45Q59.72-2.79 59.64-2.60L59.64-2.60L59.64-2.60Q59.55-2.41 59.50-2.24L59.50-2.24L59.50-2.24Q59.34-1.70 59.20-0.90L59.20-0.90L59.20-0.90Q59.06-0.11 58.63 0.33L58.63 0.33L58.63 0.33Q58.02 0.38 57.70 0.22L57.70 0.22L57.70 0.22Q57.59 0.33 57.48 0.44L57.48 0.44L57.48 0.44Q57.37 0.55 57.15 0.55L57.15 0.55L57.15 0.55Q57.04 0.44 56.79 0.36L56.79 0.36L56.79 0.36Q56.55 0.27 56.44 0.27L56.44 0.27L56.44 0.27Q56.16 0.27 55.86 0.38L55.86 0.38L55.86 0.38Q55.56 0.49 55.29 0.49L55.29 0.49L55.29 0.49Q55.02 0.49 54.82 0.36L54.82 0.36L54.82 0.36Q54.63 0.22 54.36 0.22L54.36 0.22L54.36 0.22Q54.20 0.22 53.98 0.38L53.98 0.38L53.98 0.38Q53.76 0.55 53.54 0.55L53.54 0.55L53.54 0.55Q53.27 0.55 53.07 0.46L53.07 0.46L53.07 0.46Q52.88 0.38 52.66 0.33L52.66 0.33L52.66 0.33Q52.66 0.16 52.69 0L52.69 0L52.69 0Q52.72-0.16 52.66-0.33L52.66-0.33L52.45-1.70L52.45-1.70Q52.50-2.08 52.58-2.46L52.58-2.46L52.58-2.46Q52.66-2.84 52.72-3.17L52.72-3.17L52.72-3.17Q52.77-4.05 52.80-4.84L52.80-4.84L52.80-4.84Q52.83-5.63 52.83-6.45L52.83-6.45L52.83-6.45Q52.83-7.88 52.80-9.24L52.80-9.24L52.80-9.24Q52.77-10.61 52.83-12.03L52.83-12.03L52.83-12.03Q52.88-12.52 52.96-13.04L52.96-13.04L52.96-13.04Q53.05-13.56 53.05-14.05L53.05-14.05L53.05-14.05Q53.05-15.48 53.21-16.84L53.21-16.84L53.21-16.84Q53.38-18.21 53.48-19.63L53.48-19.63L53.48-19.63Q53.59-20.73 53.59-21.77L53.59-21.77L53.59-21.77Q53.59-22.80 53.59-23.84L53.59-23.84L53.59-23.84Q53.59-25.87 53.54-27.86L53.54-27.86L53.54-27.86Q53.48-29.86 53.48-31.83L53.48-31.83L53.48-31.83Q53.48-32.48 53.54-33.61L53.54-33.61L53.54-33.61Q53.59-34.73 53.43-35.33L53.43-35.33L53.43-35.33Q53.48-36.91 53.43-38.45L53.43-38.45L53.43-38.45Q53.65-38.55 53.68-38.77L53.68-38.77L53.68-38.77Q53.70-38.99 53.70-39.21L53.70-39.21L53.70-39.98L53.70-39.98Q54.20-40.52 54.52-40.52L54.52-40.52L54.52-40.52Q54.80-40.52 55.07-40.47L55.07-40.47L55.07-40.47Q55.34-40.41 55.62-40.25L55.62-40.25L55.62-40.25Q56.33-40.41 56.55-40.30L56.55-40.30L56.55-40.30Q56.77-40.20 57.04-40.09L57.04-40.09L57.04-40.09Q57.48-40.14 57.64-40.47L57.64-40.47L57.64-40.47Q58.24-40.36 58.24-40.20L58.24-40.20L58.24-40.20Q58.24-40.03 58.35-39.87L58.35-39.87L58.35-39.87Q58.90-39.81 59.09-39.95L59.09-39.95L59.09-39.95Q59.28-40.09 59.55-40.14L59.55-40.14L59.55-40.14Q60.05-40.03 60.21-39.87L60.21-39.87L60.21-39.87Q60.21-39.54 60.38-39.13L60.38-39.13L60.38-39.13Q60.54-38.72 60.54-38.06L60.54-38.06L60.54-38.06Q60.54-37.57 60.48-37.11L60.48-37.11L60.48-37.11Q60.43-36.64 60.43-36.20L60.43-36.20L60.43-36.20Q60.43-35.44 60.48-34.73L60.48-34.73L60.48-34.73Q60.54-34.02 60.54-33.25L60.54-33.25L60.54-33.25Q60.54-33.03 60.51-32.84L60.51-32.84L60.51-32.84Q60.48-32.65 60.48-32.43L60.48-32.43L60.48-32.43Q60.48-30.35 60.59-28.22L60.59-28.22L60.59-28.22Q60.70-26.09 60.70-23.95L60.70-23.95L60.70-23.95Q60.70-23.84 60.65-23.65L60.65-23.65L60.65-23.65Q60.59-23.46 60.70-23.35L60.70-23.35L60.70-23.35Q61.63-24.34 62.29-25.46L62.29-25.46L62.29-25.46Q62.95-26.58 63.71-27.67L63.71-27.67L63.71-27.67Q64.37-28.49 65.05-29.64L65.05-29.64L65.05-29.64Q65.73-30.79 66.23-31.72L66.23-31.72L66.23-31.72Q66.45-32.05 66.61-32.38L66.61-32.38L66.61-32.38Q66.77-32.70 66.99-33.03L66.99-33.03L66.99-33.03Q67.10-33.30 67.29-33.55L67.29-33.55L67.29-33.55Q67.48-33.80 67.59-34.13L67.59-34.13L67.59-34.13Q67.87-34.56 68.09-34.97L68.09-34.97L68.09-34.97Q68.30-35.38 68.58-35.82L68.58-35.82L68.58-35.82Q68.85-36.26 69.15-36.61L69.15-36.61L69.15-36.61Q69.45-36.97 69.73-37.35L69.73-37.35L69.73-37.35Q70.16-38.06 70.66-38.80L70.66-38.80L70.66-38.80Q71.15-39.54 71.53-40.30L71.53-40.30L71.53-40.30Q72.08-40.58 72.52-40.93L72.52-40.93L72.52-40.93Q72.95-41.29 73.45-41.56L73.45-41.56L73.45-41.56Q73.99-40.85 74.24-40.58L74.24-40.58L74.24-40.58Q74.48-40.30 74.92-40.25L74.92-40.25L74.92-40.25Q75.03-40.09 75.06-39.87L75.06-39.87L75.06-39.87Q75.09-39.65 75.25-39.54L75.25-39.54L75.25-39.54Q75.91-39.48 76.02-39.54L76.02-39.54L76.02-39.54Q76.18-39.27 76.48-39.13L76.48-39.13L76.48-39.13Q76.78-38.99 77.05-38.88L77.05-38.88L77.05-38.88Q77.05-38.72 77.05-38.53L77.05-38.53L77.05-38.53Q77.05-38.34 77.11-38.23L77.11-38.23L77.11-38.23Q77.77-37.95 77.77-37.19L77.77-37.19L77.77-37.19Q76.73-35.33 75.50-33.66L75.50-33.66L75.50-33.66Q74.27-31.99 73.34-30.08L73.34-30.08L73.34-30.08Q73.06-29.48 72.71-28.93L72.71-28.93L72.71-28.93Q72.35-28.38 72.13-27.78L72.13-27.78L72.13-27.78Q71.75-27.40 71.53-26.99L71.53-26.99L71.53-26.99Q71.31-26.58 70.98-26.20L70.98-26.20L70.98-26.20Q70.77-25.92 70.55-25.62L70.55-25.62L70.55-25.62Q70.33-25.32 70.11-25.05L70.11-25.05L70.11-25.05Q69.67-24.45 69.32-23.82L69.32-23.82L69.32-23.82Q68.96-23.19 68.47-22.59L68.47-22.59L68.47-22.59Q68.14-22.04 67.70-21.49L67.70-21.49L67.70-21.49Q67.27-20.89 66.96-20.15L66.96-20.15L66.96-20.15Q66.66-19.41 66.23-18.81L66.23-18.81L66.23-18.81Q65.79-18.16 65.76-17.86L65.76-17.86L65.76-17.86Q65.73-17.55 65.46-16.84L65.46-16.84L65.46-16.84Q65.84-16.24 66.34-15.75L66.34-15.75L66.34-15.75Q66.83-15.26 67.38-14.82L67.38-14.82L67.38-14.82Q67.81-14.22 68.39-13.75L68.39-13.75L68.39-13.75Q68.96-13.29 69.56-12.74L69.56-12.74L69.56-12.74Q69.78-12.52 69.95-12.33L69.95-12.33L69.95-12.33Q70.11-12.14 70.33-11.98L70.33-11.98L70.33-11.98Q70.93-11.32 71.78-10.72L71.78-10.72L71.78-10.72Q72.63-10.12 73.39-9.57L73.39-9.57L73.39-9.57Q73.99-9.02 74.89-8.23L74.89-8.23L74.89-8.23Q75.80-7.44 76.78-6.54L76.78-6.54L76.78-6.54Q77.77-5.63 78.53-4.84L78.53-4.84L78.53-4.84Q79.30-4.05 79.30-3.83L79.30-3.83L79.30-3.83Q79.02-3.01 78.67-2.82L78.67-2.82L78.67-2.82Q78.31-2.63 78.15-2.24L78.15-2.24L78.15-2.24Q77.82-2.13 77.82-2.02L77.82-2.02L77.82-2.02Q77.82-1.91 77.66-1.64L77.66-1.64L77.66-1.64Q77.27-1.37 77-1.01L77-1.01L77-1.01Q76.73-0.66 76.45-0.33L76.45-0.33L76.45-0.33Q76.23-0.22 76.04-0.14L76.04-0.14L76.04-0.14Q75.85-0.05 75.74 0.16L75.74 0.16ZM99.37-41.73L99.37-41.73L99.37-41.73Q99.42-41.56 99.89-41.34L99.89-41.34L99.89-41.34Q100.35-41.13 100.46-41.13L100.46-41.13L100.46-41.13Q101.23-41.23 101.36-41.10L101.36-41.10L101.36-41.10Q101.50-40.96 101.66-40.80L101.66-40.80L101.66-40.80Q101.88-40.91 102.02-41.04L102.02-41.04L102.02-41.04Q102.16-41.18 102.43-41.18L102.43-41.18L102.43-41.18Q102.70-41.02 102.79-40.71L102.79-40.71L102.79-40.71Q102.87-40.41 103.03-40.14L103.03-40.14L103.03-40.14Q102.98-39.43 103.03-39.24L103.03-39.24L103.03-39.24Q103.09-39.05 103.09-38.83L103.09-38.83L103.09-38.83Q103.09-38.01 102.59-37.05L102.59-37.05L102.59-37.05Q102.10-36.09 101.88-35.27L101.88-35.27L101.88-35.27Q101.61-35 101.53-34.67L101.53-34.67L101.53-34.67Q101.45-34.34 101.23-34.07L101.23-34.07L101.23-34.07Q101.06-33.52 100.73-33.11L100.73-33.11L100.73-33.11Q100.41-32.70 100.30-32.16L100.30-32.16L100.30-32.16Q100.24-32.10 100.05-31.77L100.05-31.77L100.05-31.77Q99.86-31.45 99.64-31.06L99.64-31.06L99.64-31.06Q99.42-30.68 99.23-30.30L99.23-30.30L99.23-30.30Q99.04-29.91 98.98-29.80L98.98-29.80L98.98-29.80Q98.82-29.53 98.74-29.29L98.74-29.29L98.74-29.29Q98.66-29.04 98.49-28.82L98.49-28.82L98.49-28.82Q98.38-28.49 98.14-28.03L98.14-28.03L98.14-28.03Q97.89-27.56 97.59-27.07L97.59-27.07L97.59-27.07Q97.29-26.58 97.07-26.11L97.07-26.11L97.07-26.11Q96.85-25.65 96.85-25.43L96.85-25.43L96.85-25.43Q96.47-24.99 96.41-24.45L96.41-24.45L96.41-24.45Q94.94-21.66 93.79-18.73L93.79-18.73L93.79-18.73Q92.64-15.80 91.33-12.96L91.33-12.96L91.33-12.96Q91.22-12.47 91.19-12.36L91.19-12.36L91.19-12.36Q91.16-12.25 91.05-12.20L91.05-12.20L91.05-12.20Q90.89-11.81 90.67-11.46L90.67-11.46L90.67-11.46Q90.45-11.10 90.34-10.72L90.34-10.72L90.34-10.72Q90.13-10.12 89.99-9.60L89.99-9.60L89.99-9.60Q89.85-9.08 89.47-8.53L89.47-8.53L89.47-8.53Q89.41-8.20 89.25-7.90L89.25-7.90L89.25-7.90Q89.09-7.60 89.14-7.27L89.14-7.27L89.14-7.27Q89.30-7.11 89.66-7.08L89.66-7.08L89.66-7.08Q90.02-7.05 90.23-7.05L90.23-7.05L90.23-7.05Q90.56-7.05 90.89-7.08L90.89-7.08L90.89-7.08Q91.22-7.11 91.55-7.11L91.55-7.11L91.55-7.11Q91.88-7.11 92.15-7.08L92.15-7.08L92.15-7.08Q92.42-7.05 92.70-7.05L92.70-7.05L94.06-7.05L94.06-7.05Q94.28-7.05 94.47-7.03L94.47-7.03L94.47-7.03Q94.66-7 94.83-7L94.83-7L94.83-7Q95.43-7 96.11-7.05L96.11-7.05L96.11-7.05Q96.80-7.11 97.45-7.11L97.45-7.11L97.45-7.11Q97.84-7.11 98.27-7.14L98.27-7.14L98.27-7.14Q98.71-7.16 99.15-7.05L99.15-7.05L99.15-7.05Q99.31-7 99.39-6.89L99.39-6.89L99.39-6.89Q99.48-6.78 99.75-6.89L99.75-6.89L99.75-6.89Q100.24-6.40 100.35-6.29L100.35-6.29L100.35-6.29Q100.46-6.18 100.57-6.07L100.57-6.07L100.57-6.07Q100.57-5.85 100.60-5.71L100.60-5.71L100.60-5.71Q100.63-5.58 100.63-5.41L100.63-5.41L100.63-5.41Q100.63-4.81 100.73-4.59L100.73-4.59L100.73-4.59Q100.41-4.10 100.52-3.88L100.52-3.88L100.24-3.28L100.24-3.28Q100.24-3.01 100.13-2.71L100.13-2.71L100.13-2.71Q100.02-2.41 100.13-2.13L100.13-2.13L100.13-2.13Q99.86-1.70 99.78-1.18L99.78-1.18L99.78-1.18Q99.70-0.66 99.42-0.22L99.42-0.22L99.42-0.22Q98.98-0.05 98.55-0.08L98.55-0.08L98.55-0.08Q98.11-0.11 97.67 0L97.67 0L97.67 0Q97.40-0.11 96.91-0.11L96.91-0.11L96.91-0.11Q96.47-0.11 96.06-0.05L96.06-0.05L96.06-0.05Q95.65 0 95.21 0L95.21 0L95.21 0Q95.05 0 94.88-0.03L94.88-0.03L94.88-0.03Q94.72-0.05 94.55-0.05L94.55-0.05L94.55-0.05Q93.95 0.05 93.93 0L93.93 0L93.93 0Q93.90-0.05 93.79-0.05L93.79-0.05L93.79-0.05Q93.19-0.05 92.59-0.03L92.59-0.03L92.59-0.03Q91.98 0 91.38 0L91.38 0L91.38 0Q91.16 0 91 0.05L91 0.05L91 0.05Q90.84 0.11 90.67 0.11L90.67 0.11L90.67 0.11Q90.51 0.11 90.34 0.05L90.34 0.05L90.34 0.05Q90.18 0 90.02 0L90.02 0L90.02 0Q89.74 0 89.41 0.05L89.41 0.05L89.41 0.05Q89.09 0.11 88.76 0.11L88.76 0.11L88.76 0.11Q88.59 0.11 88.43 0.08L88.43 0.08L88.43 0.08Q88.27 0.05 88.10 0.05L88.10 0.05L88.10 0.05Q87.83 0.05 87.55 0.16L87.55 0.16L87.55 0.16Q87.28 0.27 86.95 0.16L86.95 0.16L86.19 0.27L86.19 0.27Q85.31 0.27 84.46 0.38L84.46 0.38L84.46 0.38Q83.62 0.49 82.74 0.49L82.74 0.49L82.74 0.49Q82.25 0.49 82.09 0.44L82.09 0.44L82.09 0.44Q81.81 0.22 81.43 0.16L81.43 0.16L81.43 0.16Q81.05 0.11 80.72-0.05L80.72-0.05L80.72-0.05Q80.66-0.49 80.34-0.71L80.34-0.71L80.34-0.71Q80.01-0.93 79.73-1.20L79.73-1.20L79.73-1.20Q79.79-1.86 79.63-2.02L79.63-2.02L79.63-2.02Q79.68-2.90 79.30-3.17L79.30-3.17L79.30-3.17Q79.35-3.66 79.68-4.10L79.68-4.10L79.68-4.10Q80.01-4.54 80.06-5.03L80.06-5.03L80.06-5.03Q80.50-5.47 80.61-5.69L80.61-5.69L80.61-5.69Q80.72-5.91 80.72-6.18L80.72-6.18L80.72-6.18Q81.05-6.56 81.35-7.14L81.35-7.14L81.35-7.14Q81.65-7.71 81.92-8.37L81.92-8.37L81.92-8.37Q82.20-9.02 82.41-9.65L82.41-9.65L82.41-9.65Q82.63-10.28 82.80-10.77L82.80-10.77L82.80-10.77Q83.23-11.38 83.45-12.03L83.45-12.03L83.45-12.03Q83.67-12.69 83.95-13.34L83.95-13.34L83.95-13.34Q84.38-14.11 84.52-14.46L84.52-14.46L84.52-14.46Q84.66-14.82 84.93-15.09L84.93-15.09L84.93-15.09Q84.98-15.31 85.23-15.94L85.23-15.94L85.23-15.94Q85.48-16.57 85.75-17.28L85.75-17.28L85.75-17.28Q86.02-17.99 86.32-18.57L86.32-18.57L86.32-18.57Q86.63-19.14 86.73-19.30L86.73-19.30L86.73-19.30Q86.79-19.58 86.95-19.85L86.95-19.85L86.95-19.85Q87.12-20.13 87.12-20.40L87.12-20.40L87.12-20.40Q87.66-21.11 87.99-22.15L87.99-22.15L87.99-22.15Q88.32-23.19 88.70-23.95L88.70-23.95L88.70-23.95Q89.09-24.77 89.52-25.57L89.52-25.57L89.52-25.57Q89.96-26.36 90.40-27.18L90.40-27.18L90.40-27.18Q92.09-30.46 93.79-33.80L93.79-33.80L93.79-33.80Q93.68-34.07 93.32-34.07L93.32-34.07L93.32-34.07Q92.97-34.07 92.75-34.23L92.75-34.23L92.75-34.23Q92.31-34.13 91.93-34.18L91.93-34.18L91.93-34.18Q91.55-34.23 91.11-34.23L91.11-34.23L91.11-34.23Q90.07-34.45 89.39-34.43L89.39-34.43L89.39-34.43Q88.70-34.40 88.05-34.40L88.05-34.40L88.05-34.40Q87.72-34.40 87.36-34.45L87.36-34.45L87.36-34.45Q87.01-34.51 86.68-34.51L86.68-34.51L86.68-34.51Q85.86-34.51 85.01-34.40L85.01-34.40L85.01-34.40Q84.16-34.29 83.40-34.13L83.40-34.13L83.40-34.13Q82.91-34.23 82.39-34.23L82.39-34.23L82.39-34.23Q81.87-34.23 81.43-34.34L81.43-34.34L81.43-34.34Q81.21-35.16 81.32-35.27L81.32-35.27L81.32-35.27Q81.21-35.44 81.07-35.57L81.07-35.57L81.07-35.57Q80.94-35.71 80.83-35.88L80.83-35.88L80.83-35.88Q80.88-36.37 80.75-36.50L80.75-36.50L80.75-36.50Q80.61-36.64 80.50-36.91L80.50-36.91L80.50-36.91Q80.50-37.30 80.47-37.65L80.47-37.65L80.47-37.65Q80.45-38.01 80.55-38.39L80.55-38.39L80.55-38.39Q80.45-38.61 80.28-38.75L80.28-38.75L80.28-38.75Q80.12-38.88 80.01-39.05L80.01-39.05L80.01-39.05Q80.06-39.32 80.04-39.51L80.04-39.51L80.04-39.51Q80.01-39.70 80.06-39.92L80.06-39.92L80.06-39.92Q80.39-40.20 80.77-40.33L80.77-40.33L80.77-40.33Q81.16-40.47 81.38-40.80L81.38-40.80L81.38-40.80Q82.09-41.02 82.82-41.07L82.82-41.07L82.82-41.07Q83.56-41.13 84.27-41.13L84.27-41.13L84.27-41.13Q85.04-41.13 85.72-41.10L85.72-41.10L85.72-41.10Q86.41-41.07 87.06-41.02L87.06-41.02L87.06-41.02Q87.55-41.02 87.96-40.88L87.96-40.88L87.96-40.88Q88.38-40.74 88.81-40.69L88.81-40.69L88.81-40.69Q89.09-40.63 89.36-40.66L89.36-40.66L89.36-40.66Q89.63-40.69 89.91-40.69L89.91-40.69L89.91-40.69Q90.84-40.69 91.79-40.66L91.79-40.66L91.79-40.66Q92.75-40.63 93.68-40.63L93.68-40.63L93.68-40.63Q94.45-40.63 95.10-40.63L95.10-40.63L95.10-40.63Q95.76-40.63 96.41-40.74L96.41-40.74L96.41-40.74Q96.63-40.96 96.74-41.18L96.74-41.18L96.74-41.18Q96.85-41.40 96.96-41.62L96.96-41.62L96.96-41.62Q97.45-41.62 97.62-41.59L97.62-41.59L97.62-41.59Q97.78-41.56 97.89-41.56L97.89-41.56L98.55-41.29L98.55-41.29Q98.77-41.29 99.04-41.37L99.04-41.37L99.04-41.37Q99.31-41.45 99.37-41.73ZM129.23-40.63L129.77-40.47L129.77-40.47Q130.43-40.63 130.70-40.61L130.70-40.61L130.70-40.61Q130.98-40.58 131.25-40.52L131.25-40.52L131.25-40.52Q131.58-40.30 131.80-39.98L131.80-39.98L131.80-39.98Q131.80-38.83 131.77-37.71L131.77-37.71L131.77-37.71Q131.74-36.59 131.74-35.44L131.74-35.44L131.74-35.44Q131.74-33.36 131.80-31.28L131.80-31.28L131.80-31.28Q131.85-29.20 131.80-27.13L131.80-27.13L131.80-27.13Q131.91-26.63 131.85-26.58L131.85-26.58L131.85-26.58Q131.80-26.52 131.80-26.41L131.80-26.41L131.80-26.41Q131.80-24.34 131.91-22.31L131.91-22.31L131.91-22.31Q132.02-20.29 132.02-18.21L132.02-18.21L132.02-10.94L132.02-10.94Q132.02-8.59 132.15-6.29L132.15-6.29L132.15-6.29Q132.29-3.99 132.29-1.70L132.29-1.70L132.29-1.70Q132.29-1.48 132.02-1.09L132.02-1.09L132.02-1.09Q131.91-0.66 131.69-0.38L131.69-0.38L131.69-0.38Q131.20-0.33 130.76-0.55L130.76-0.55L130.76-0.55Q130.54-0.55 130.46-0.41L130.46-0.41L130.46-0.41Q130.38-0.27 130.21-0.16L130.21-0.16L130.21-0.16Q129.77-0.16 129.50 0.05L129.50 0.05L129.50 0.05Q129.23 0.27 128.84 0.27L128.84 0.27L128.84 0.27Q128.52 0.27 128.21 0.19L128.21 0.19L128.21 0.19Q127.91 0.11 127.53 0.11L127.53 0.11L127.53 0.11Q127.42 0.11 127.20 0.30L127.20 0.30L127.20 0.30Q126.98 0.49 126.88 0.55L126.88 0.55L126.88 0.55Q126.60 0.55 126.38 0.63L126.38 0.63L126.38 0.63Q126.16 0.71 125.89 0.71L125.89 0.71L125.89 0.71Q125.62 0.49 125.64 0.05L125.64 0.05L125.64 0.05Q125.67-0.38 125.29-0.49L125.29-0.49L125.29-0.49Q125.29-0.77 125.32-1.09L125.32-1.09L125.32-1.09Q125.34-1.42 125.34-1.75L125.34-1.75L125.34-1.75Q125.34-3.88 125.23-6.04L125.23-6.04L125.23-6.04Q125.13-8.20 125.07-10.34L125.07-10.34L125.07-10.34Q125.02-11.27 125.04-12.17L125.04-12.17L125.04-12.17Q125.07-13.07 125.07-14L125.07-14L125.07-14Q125.07-14.49 125.07-14.98L125.07-14.98L125.07-14.98Q125.07-15.48 124.96-15.91L124.96-15.91L124.96-15.91Q124.63-15.97 124.39-15.83L124.39-15.83L124.39-15.83Q124.14-15.70 123.87-15.70L123.87-15.70L123.87-15.70Q122.72-15.31 122.34-14.93L122.34-14.93L122.34-14.93Q122.01-14.93 121.79-14.82L121.79-14.82L121.79-14.82Q121.57-14.71 121.30-14.60L121.30-14.60L121.30-14.60Q120.86-14.49 120.45-14.41L120.45-14.41L120.45-14.41Q120.04-14.33 119.60-14.16L119.60-14.16L119.60-14.16Q119.33-14.05 119.05-13.95L119.05-13.95L119.05-13.95Q118.78-13.84 118.51-13.73L118.51-13.73L118.51-13.73Q117.91-13.51 117.30-13.32L117.30-13.32L117.30-13.32Q116.70-13.13 116.10-12.91L116.10-12.91L116.10-12.91Q115.50-12.80 115.06-12.58L115.06-12.58L115.06-12.58Q114.63-12.36 114.19-12.14L114.19-12.14L114.19-12.14Q113.80-9.57 113.78-7.25L113.78-7.25L113.78-7.25Q113.75-4.92 113.91-2.63L113.91-2.63L113.91-2.63Q113.80-2.30 113.80-1.89L113.80-1.89L113.80-1.89Q113.80-1.48 113.64-1.20L113.64-1.20L113.64-1.20Q113.04-1.04 112.85-1.18L112.85-1.18L112.85-1.18Q112.66-1.31 112.44-1.42L112.44-1.42L112.44-1.42Q112.22-1.37 112.08-1.20L112.08-1.20L112.08-1.20Q111.95-1.04 111.84-0.93L111.84-0.93L111.84-0.93Q111.40-0.93 111.15-0.74L111.15-0.74L111.15-0.74Q110.91-0.55 110.69-0.44L110.69-0.44L110.69-0.44Q110.52-0.38 110.36-0.44L110.36-0.44L110.36-0.44Q110.20-0.49 109.98-0.38L109.98-0.38L109.98-0.38Q109.43-0.38 109.46-0.52L109.46-0.52L109.46-0.52Q109.48-0.66 109.32-0.66L109.32-0.66L109.32-0.66Q109.10-0.66 109.02-0.46L109.02-0.46L109.02-0.46Q108.94-0.27 108.72-0.16L108.72-0.16L108.72-0.16Q108.50-0.05 108.23-0.03L108.23-0.03L108.23-0.03Q107.95 0 107.68 0.11L107.68 0.11L107.68 0.11Q107.41-0.16 107.41-0.49L107.41-0.49L107.41-0.49Q107.41-0.82 107.13-1.09L107.13-1.09L107.13-1.09Q107.02-1.86 107.00-2.60L107.00-2.60L107.00-2.60Q106.97-3.34 106.80-4.10L106.80-4.10L106.80-4.10Q106.91-5.63 106.89-6.56L106.89-6.56L106.89-6.56Q106.86-7.49 106.86-8.48L106.86-8.48L106.86-8.48Q106.86-9.35 106.80-10.23L106.80-10.23L106.80-10.23Q106.75-11.10 106.70-11.98L106.70-11.98L106.70-11.98Q106.59-13.56 106.50-15.20L106.50-15.20L106.50-15.20Q106.42-16.84 106.42-18.48L106.42-18.48L106.42-18.48Q106.42-19.85 106.56-21.16L106.56-21.16L106.56-21.16Q106.70-22.48 106.70-23.84L106.70-23.84L106.70-23.84Q106.70-24.77 106.72-25.68L106.72-25.68L106.72-25.68Q106.75-26.58 106.75-27.51L106.75-27.51L106.75-27.51Q106.75-28.27 106.72-29.01L106.72-29.01L106.72-29.01Q106.70-29.75 106.70-30.46L106.70-30.46L106.70-30.46Q106.70-31.28 106.80-32.07L106.80-32.07L106.80-32.07Q106.91-32.87 106.91-33.63L106.91-33.63L106.91-33.63Q106.91-34.56 106.80-35.46L106.80-35.46L106.80-35.46Q106.70-36.37 106.70-37.30L106.70-37.30L106.70-37.30Q106.70-37.57 106.75-37.82L106.75-37.82L106.75-37.82Q106.80-38.06 106.80-38.34L106.80-38.34L106.80-38.34Q106.75-38.94 106.86-39.07L106.86-39.07L106.86-39.07Q106.97-39.21 107.08-39.43L107.08-39.43L107.08-39.43Q107.35-39.48 107.68-39.59L107.68-39.59L107.68-39.59Q108.01-39.70 108.28-39.59L108.28-39.59L108.28-39.59Q108.61-39.92 109.18-39.92L109.18-39.92L109.18-39.92Q109.76-39.92 110.03-40.30L110.03-40.30L110.03-40.30Q110.41-40.25 110.55-40.28L110.55-40.28L110.55-40.28Q110.69-40.30 110.80-40.30L110.80-40.30L110.80-40.30Q111.29-40.20 111.32-40.33L111.32-40.33L111.32-40.33Q111.34-40.47 111.51-40.47L111.51-40.47L111.51-40.47Q111.78-40.47 112.36-40.44L112.36-40.44L112.36-40.44Q112.93-40.41 113.15-40.20L113.15-40.20L113.15-40.20Q113.70-37.30 113.75-34.29L113.75-34.29L113.75-34.29Q113.80-31.28 113.80-28.33L113.80-28.33L113.80-28.33Q113.80-27.56 113.86-26.77L113.86-26.77L113.86-26.77Q113.91-25.98 113.80-25.21L113.80-25.21L113.80-25.21Q113.80-24.88 113.75-24.58L113.75-24.58L113.75-24.58Q113.70-24.28 113.70-23.95L113.70-23.95L113.70-23.95Q113.70-23.02 113.59-22.01L113.59-22.01L113.59-22.01Q113.48-21 113.48-20.07L113.48-20.07L113.48-20.07Q114.13-19.69 114.60-19.82L114.60-19.82L114.60-19.82Q115.06-19.96 115.50-20.13L115.50-20.13L115.50-20.13Q116.05-20.29 116.51-20.48L116.51-20.48L116.51-20.48Q116.98-20.67 117.47-20.84L117.47-20.84L117.47-20.84Q117.91-21.05 118.43-21.19L118.43-21.19L118.43-21.19Q118.95-21.33 119.38-21.44L119.38-21.44L119.38-21.44Q120.80-21.93 122.17-22.64L122.17-22.64L122.17-22.64Q123.54-23.35 124.96-23.79L124.96-23.79L124.96-23.79Q124.85-26.80 124.85-29.78L124.85-29.78L124.85-29.78Q124.85-32.76 124.85-35.71L124.85-35.71L124.85-35.71Q124.85-36.53 124.85-37.41L124.85-37.41L124.85-37.41Q124.85-38.28 124.96-39.10L124.96-39.10L124.96-39.10Q125.02-39.32 125.10-39.46L125.10-39.46L125.10-39.46Q125.18-39.59 125.18-39.87L125.18-39.87L125.18-39.87Q125.34-40.14 125.56-40.25L125.56-40.25L125.56-40.25Q125.78-40.36 125.89-40.58L125.89-40.58L125.89-40.58Q126-40.47 126.14-40.39L126.14-40.39L126.14-40.39Q126.27-40.30 126.44-40.25L126.44-40.25L126.44-40.25Q126.88-40.36 126.96-40.41L126.96-40.41L126.96-40.41Q127.04-40.47 127.15-40.52L127.15-40.52L127.15-40.52Q127.42-40.63 127.86-40.63L127.86-40.63L127.86-40.63Q128.30-40.63 128.57-40.63L128.57-40.63L129.23-40.63ZM149.90-41.45L150.01-41.40L150.01-41.40Q150.28-40.41 150.55-39.46L150.55-39.46L150.55-39.46Q150.83-38.50 151.21-37.57L151.21-37.57L151.21-37.57Q152.03-37.46 152.22-37.41L152.22-37.41L152.22-37.41Q152.41-37.35 152.69-37.24L152.69-37.24L152.69-37.24Q153.29-35.82 153.43-34.21L153.43-34.21L153.43-34.21Q153.56-32.59 153.84-31.06L153.84-31.06L153.84-31.06Q154.88-29.70 155.34-28.14L155.34-28.14L155.34-28.14Q155.80-26.58 156.41-24.99L156.41-24.99L156.41-24.99Q156.57-24.45 156.63-24.31L156.63-24.31L156.63-24.31Q156.68-24.17 156.68-24.06L156.68-24.06L156.68-24.06Q157.01-23.13 157.34-22.15L157.34-22.15L157.34-22.15Q157.66-21.16 158.05-20.23L158.05-20.23L158.05-20.23Q158.21-19.74 158.40-19.28L158.40-19.28L158.40-19.28Q158.59-18.81 158.76-18.38L158.76-18.38L158.76-18.38Q158.92-17.83 159.06-17.25L159.06-17.25L159.06-17.25Q159.20-16.68 159.36-16.13L159.36-16.13L159.36-16.13Q159.74-15.04 160.18-13.95L160.18-13.95L160.18-13.95Q160.62-12.85 161.05-11.76L161.05-11.76L161.05-11.76Q161.22-11.38 161.68-10.06L161.68-10.06L161.68-10.06Q162.15-8.75 162.64-7.30L162.64-7.30L162.64-7.30Q163.13-5.85 163.54-4.62L163.54-4.62L163.54-4.62Q163.95-3.39 163.95-3.12L163.95-3.12L163.95-3.12Q163.95-2.68 164.04-2.21L164.04-2.21L164.04-2.21Q164.12-1.75 164.17-1.26L164.17-1.26L164.17-1.26Q163.95-0.71 163.63-0.66L163.63-0.66L163.63-0.66Q163.30-0.60 163.02-0.71L163.02-0.71L163.02-0.71Q162.75-0.60 162.50-0.49L162.50-0.49L162.50-0.49Q162.26-0.38 162.04-0.27L162.04-0.27L162.04-0.27Q161.88-0.22 161.77-0.11L161.77-0.11L161.77-0.11Q161.66 0 161.49 0L161.49 0L161.49 0Q160.84 0 160.64 0.14L160.64 0.14L160.64 0.14Q160.45 0.27 160.07 0.27L160.07 0.27L160.07 0.27Q159.58 0.11 159.44 0.25L159.44 0.25L159.44 0.25Q159.30 0.38 159.20 0.44L159.20 0.44L159.20 0.44Q158.98 0.55 158.70 0.55L158.70 0.55L158.70 0.55Q158.43 0.55 158.16 0.60L158.16 0.60L158.16 0.60Q158.05 0.38 157.96 0.16L157.96 0.16L157.96 0.16Q157.88-0.05 157.72-0.33L157.72-0.33L157.72-0.33Q157.12-1.20 156.87-2.02L156.87-2.02L156.87-2.02Q156.63-2.84 156.46-3.34L156.46-3.34L156.46-3.34Q156.19-3.94 156.00-4.54L156.00-4.54L156.00-4.54Q155.80-5.14 155.53-5.74L155.53-5.74L155.53-5.74Q155.20-5.63 154.93-5.50L154.93-5.50L154.93-5.50Q154.66-5.36 154.49-5.14L154.49-5.14L154.49-5.14Q153.84-5.14 153.84-4.98L153.84-4.98L153.84-4.98Q153.84-4.81 153.73-4.65L153.73-4.65L153.73-4.65Q153.40-4.54 153.21-4.43L153.21-4.43L153.21-4.43Q153.02-4.32 152.58-4.38L152.58-4.38L152.58-4.38Q152.30-4.10 152.03-3.91L152.03-3.91L152.03-3.91Q151.76-3.72 151.32-3.66L151.32-3.66L151.32-3.66Q150.88-3.23 150.42-2.93L150.42-2.93L150.42-2.93Q149.95-2.63 149.35-2.79L149.35-2.79L149.35-2.79Q148.59-2.63 147.82-2.49L147.82-2.49L147.82-2.49Q147.05-2.35 146.29-2.35L146.29-2.35L146.29-2.35Q145.41-2.63 145.20-2.84L145.20-2.84L145.20-2.84Q144.98-3.06 144.54-3.06L144.54-3.06L144.54-3.06Q144.59-3.83 144.21-4.10L144.21-4.10L144.21-4.10Q144.21-4.27 144.24-4.62L144.24-4.62L144.24-4.62Q144.27-4.98 144.38-5.09L144.38-5.09L144.38-5.09Q145.09-5.41 145.20-5.80L145.20-5.80L145.20-5.80Q145.30-6.18 145.80-6.29L145.80-6.29L145.80-6.29Q145.91-6.51 146.04-6.70L146.04-6.70L146.04-6.70Q146.18-6.89 146.29-7.11L146.29-7.11L146.29-7.11Q146.56-7.22 146.75-7.27L146.75-7.27L146.75-7.27Q146.95-7.33 147.05-7.60L147.05-7.60L147.05-7.60Q147.33-7.60 147.88-7.96L147.88-7.96L147.88-7.96Q148.42-8.31 148.59-8.53L148.59-8.53L148.59-8.53Q149.02-8.70 149.13-8.83L149.13-8.83L149.13-8.83Q149.24-8.97 149.41-9.08L149.41-9.08L149.41-9.08Q149.95-9.02 150.12-9.19L150.12-9.19L150.12-9.19Q150.55-8.97 151.10-8.97L151.10-8.97L151.10-8.97Q151.32-8.97 151.48-9.00L151.48-9.00L151.48-9.00Q151.65-9.02 151.87-9.02L151.87-9.02L151.87-9.02Q152.30-9.46 152.99-9.60L152.99-9.60L152.99-9.60Q153.67-9.73 154.11-10.17L154.11-10.17L154.11-10.17Q153.95-10.61 153.84-11.24L153.84-11.24L153.84-11.24Q153.73-11.87 153.45-12.25L153.45-12.25L153.45-12.25Q153.34-12.96 153.10-13.62L153.10-13.62L153.10-13.62Q152.85-14.27 152.69-14.88L152.69-14.88L152.69-14.88Q152.09-17.17 151.27-19.36L151.27-19.36L151.27-19.36Q150.45-21.55 149.90-23.84L149.90-23.84L149.90-23.84Q149.79-24.12 149.65-24.42L149.65-24.42L149.65-24.42Q149.52-24.72 149.41-24.99L149.41-24.99L149.41-24.99Q149.13-24.34 149.13-24.25L149.13-24.25L149.13-24.25Q149.13-24.17 149.02-24.06L149.02-24.06L149.02-24.06Q148.97-23.79 148.91-23.60L148.91-23.60L148.91-23.60Q148.86-23.41 148.75-23.13L148.75-23.13L148.75-23.13Q148.59-22.70 148.45-22.18L148.45-22.18L148.45-22.18Q148.31-21.66 148.20-21.22L148.20-21.22L148.20-21.22Q147.93-20.29 147.71-19.28L147.71-19.28L147.71-19.28Q147.49-18.27 147.22-17.28L147.22-17.28L147.22-17.28Q146.67-15.59 146.10-13.92L146.10-13.92L146.10-13.92Q145.52-12.25 144.98-10.55L144.98-10.55L144.98-10.55Q144.87-9.79 144.73-9.38L144.73-9.38L144.73-9.38Q144.59-8.97 144.46-8.56L144.46-8.56L144.46-8.56Q144.32-8.15 144.24-7.77L144.24-7.77L144.24-7.77Q144.16-7.38 144.16-7.16L144.16-7.16L144.16-7.16Q143.39-5.41 142.87-3.61L142.87-3.61L142.87-3.61Q142.35-1.80 141.59-0.11L141.59-0.11L141.59-0.11Q141.37 0 141.20 0.16L141.20 0.16L141.20 0.16Q141.04 0.33 140.82 0.33L140.82 0.33L140.82 0.33Q140.38 0.33 140.36 0.11L140.36 0.11L140.36 0.11Q140.33-0.11 140.11-0.11L140.11-0.11L140.11-0.11Q139.89-0.11 139.73-0.03L139.73-0.03L139.73-0.03Q139.56 0.05 139.40 0.16L139.40 0.16L139.40 0.16Q139.13 0.05 138.77 0.03L138.77 0.03L138.77 0.03Q138.41 0 138.25-0.22L138.25-0.22L138.25-0.22Q137.87 0.05 137.48 0.05L137.48 0.05L137.48 0.05Q137.05 0.05 136.61-0.22L136.61-0.22L136.61-0.22Q136.28-0.11 135.95-0.11L135.95-0.11L135.95-0.11Q135.79-0.11 135.57-0.16L135.57-0.16L135.57-0.16Q135.35-0.22 135.24-0.33L135.24-0.33L135.24-0.33Q135.19-0.55 135.19-0.77L135.19-0.77L135.19-0.77Q135.19-0.98 135.19-1.26L135.19-1.26L135.19-1.26Q135.19-1.80 135.08-2.08L135.08-2.08L135.08-2.08Q136.06-4.87 136.99-7.74L136.99-7.74L136.99-7.74Q137.92-10.61 138.85-13.56L138.85-13.56L138.85-13.56Q139.34-14.93 139.81-16.24L139.81-16.24L139.81-16.24Q140.27-17.55 140.71-18.92L140.71-18.92L140.71-18.92Q140.93-19.69 141.09-20.37L141.09-20.37L141.09-20.37Q141.26-21.05 141.53-21.71L141.53-21.71L141.53-21.71Q141.97-23.13 142.43-24.58L142.43-24.58L142.43-24.58Q142.90-26.03 143.28-27.45L143.28-27.45L143.28-27.45Q143.50-27.62 143.55-27.84L143.55-27.84L143.55-27.84Q143.61-28.05 143.72-28.33L143.72-28.33L143.66-29.04L143.66-29.04Q144.05-29.59 144.18-30.00L144.18-30.00L144.18-30.00Q144.32-30.41 144.38-30.84L144.38-30.84L144.38-30.84Q144.65-31.50 144.87-32.27L144.87-32.27L144.87-32.27Q145.09-33.03 145.20-33.69L145.20-33.69L145.20-33.69Q145.30-34.56 145.33-35.68L145.33-35.68L145.33-35.68Q145.36-36.80 145.63-37.57L145.63-37.57L145.63-37.57Q145.74-37.79 145.82-37.87L145.82-37.87L145.82-37.87Q145.91-37.95 145.91-38.23L145.91-38.23L145.91-38.23Q146.02-38.34 146.15-38.47L146.15-38.47L146.15-38.47Q146.29-38.61 146.34-38.77L146.34-38.77L146.34-38.77Q146.62-39.21 146.54-39.54L146.54-39.54L146.54-39.54Q146.45-39.87 146.45-40.25L146.45-40.25L146.45-40.25Q146.95-40.52 146.89-40.74L146.89-40.74L146.89-40.74Q146.84-40.96 146.84-41.18L146.84-41.18L146.84-41.18Q146.84-41.45 147.19-41.70L147.19-41.70L147.19-41.70Q147.55-41.95 147.66-42.22L147.66-42.22L147.66-42.22Q147.98-42.16 148.31-42.14L148.31-42.14L148.31-42.14Q148.64-42.11 148.97-42.16L148.97-42.16L148.97-42.16Q149.35-41.45 149.90-41.45L149.90-41.45ZM185.17-40.80L185.17-40.80L185.17-40.80Q186.05-40.91 186.51-40.66L186.51-40.66L186.51-40.66Q186.98-40.41 187.47-40.36L187.47-40.36L187.47-40.36Q187.74-40.30 188.04-40.33L188.04-40.33L188.04-40.33Q188.34-40.36 188.67-40.36L188.67-40.36L188.67-40.36Q189.38-40.36 189.79-40.20L189.79-40.20L189.79-40.20Q190.20-40.03 190.64-39.48L190.64-39.48L190.64-39.48Q190.75-39.38 190.94-39.18L190.94-39.18L190.94-39.18Q191.13-38.99 191.13-38.83L191.13-38.83L191.13-38.83Q191.13-38.39 190.91-38.06L190.91-38.06L190.91-38.06Q190.70-37.73 190.70-37.13L190.70-37.13L190.70-37.13Q190.70-36.20 190.91-35.30L190.91-35.30L190.91-35.30Q191.13-34.40 191.19-33.47L191.19-33.47L191.19-33.47Q191.46-30.08 191.49-26.66L191.49-26.66L191.49-26.66Q191.52-23.24 191.52-19.91L191.52-19.91L191.52-19.91Q191.52-19.47 191.49-19.11L191.49-19.11L191.49-19.11Q191.46-18.76 191.24-18.48L191.24-18.48L191.24-17.77L191.24-17.77Q191.19-16.35 191.30-14.90L191.30-14.90L191.30-14.90Q191.41-13.45 191.41-12.03L191.41-12.03L191.41-12.03Q191.41-10.77 191.27-9.52L191.27-9.52L191.27-9.52Q191.13-8.26 191.13-6.95L191.13-6.95L191.13-6.95Q191.13-5.74 191.30-4.59L191.30-4.59L191.30-4.59Q191.46-3.45 191.46-2.24L191.46-2.24L191.46-2.24Q191.19-1.75 191.13-1.48L191.13-1.48L191.13-1.48Q191.08-1.20 190.91-0.98L190.91-0.98L190.91-0.98Q190.75-0.88 190.56-0.93L190.56-0.93L190.56-0.93Q190.37-0.98 190.26-0.82L190.26-0.82L190.26-0.82Q189.98-0.49 189.88-0.05L189.88-0.05L189.88-0.05Q189.77 0.38 189.33 0.66L189.33 0.66L189.33 0.66Q189.22 1.42 188.75 1.83L188.75 1.83L188.75 1.83Q188.29 2.24 188.07 2.90L188.07 2.90L188.07 2.90Q187.41 2.95 187.17 2.84L187.17 2.84L187.17 2.84Q186.92 2.73 186.65 2.63L186.65 2.63L186.65 2.63Q186.59 1.70 186.68 1.29L186.68 1.29L186.68 1.29Q186.76 0.88 186.76 0.44L186.76 0.44L186.76 0.44Q186.76-0.11 186.48-0.38L186.48-0.38L186.48-0.38Q186.21-0.66 186.10-1.09L186.10-1.09L186.10-1.09Q185.50-1.48 185.28-1.61L185.28-1.61L185.28-1.61Q185.06-1.75 184.90-1.97L184.90-1.97L184.90-1.97Q184.57-2.41 184.35-2.90L184.35-2.90L184.35-2.90Q184.13-3.39 183.86-3.83L183.86-3.83L183.86-3.83Q183.09-5.09 182.30-6.40L182.30-6.40L182.30-6.40Q181.51-7.71 180.58-8.97L180.58-8.97L180.58-8.97Q180.41-9.24 180.20-9.46L180.20-9.46L180.20-9.46Q179.98-9.68 179.81-9.95L179.81-9.95L179.81-9.95Q178.88-11.43 178.06-12.96L178.06-12.96L178.06-12.96Q177.24-14.49 176.15-15.86L176.15-15.86L176.15-15.86Q175.71-16.41 175.49-17.09L175.49-17.09L175.49-17.09Q175.27-17.77 174.84-18.27L174.84-18.27L174.84-18.27Q174.78-17.99 174.78-17.66L174.78-17.66L174.78-17.66Q174.78-17.34 174.78-17.06L174.78-17.06L174.78-17.06Q174.78-15.20 174.86-13.37L174.86-13.37L174.86-13.37Q174.95-11.54 174.95-9.68L174.95-9.68L174.95-9.68Q174.95-9.30 174.86-9.00L174.86-9.00L174.86-9.00Q174.78-8.70 174.78-8.31L174.78-8.31L174.78-8.31Q174.78-7.77 174.84-7.27L174.84-7.27L174.84-7.27Q174.89-6.78 174.89-6.29L174.89-6.29L174.89-6.29Q174.89-5.69 174.86-5.14L174.86-5.14L174.86-5.14Q174.84-4.59 174.78-4.05L174.78-4.05L174.78-4.05Q174.67-3.34 174.51-2.71L174.51-2.71L174.51-2.71Q174.34-2.08 174.34-1.42L174.34-1.42L174.34-1.42Q174.34-1.04 174.43-0.71L174.43-0.71L174.43-0.71Q174.51-0.38 174.51-0.11L174.51-0.11L174.51-0.11Q174.13 0.49 173.55 0.49L173.55 0.49L173.55 0.49Q172.98 0.49 172.59 0.93L172.59 0.93L172.59 0.93Q172.27 0.88 172.07 0.98L172.07 0.98L172.07 0.98Q171.88 1.09 171.72 1.09L171.72 1.09L171.72 1.09Q171.50 1.09 171.36 1.04L171.36 1.04L171.36 1.04Q171.23 0.98 171.06 0.98L171.06 0.98L171.06 0.98Q170.79 0.98 170.52 1.26L170.52 1.26L170.52 1.26Q170.24 1.53 169.97 1.53L169.97 1.53L169.97 1.53Q169.80 1.53 169.39 1.31L169.39 1.31L169.39 1.31Q168.98 1.09 168.52 0.79L168.52 0.79L168.52 0.79Q168.05 0.49 167.67 0.19L167.67 0.19L167.67 0.19Q167.29-0.11 167.29-0.27L167.29-0.27L167.29-0.27Q167.23-0.55 167.23-1.04L167.23-1.04L167.23-1.04Q167.23-1.70 167.32-2.32L167.32-2.32L167.32-2.32Q167.40-2.95 167.51-3.61L167.51-3.61L167.51-3.61Q167.67-5.47 167.67-7.30L167.67-7.30L167.67-7.30Q167.67-9.13 167.67-10.99L167.67-10.99L167.67-10.99Q167.67-11.76 167.70-12.52L167.70-12.52L167.70-12.52Q167.73-13.29 167.73-14.05L167.73-14.05L167.73-14.05Q167.73-15.86 167.59-17.69L167.59-17.69L167.59-17.69Q167.45-19.52 167.45-21.33L167.45-21.33L167.45-21.33Q167.45-22.59 167.56-23.82L167.56-23.82L167.56-23.82Q167.67-25.05 167.67-26.25L167.67-26.25L167.67-26.25Q167.67-27.18 167.62-28.05L167.62-28.05L167.62-28.05Q167.56-28.93 167.56-29.86L167.56-29.86L167.56-29.86Q167.51-30.46 167.56-31.14L167.56-31.14L167.56-31.14Q167.62-31.83 167.62-32.43L167.62-32.43L167.62-32.43Q167.62-33.14 167.43-33.77L167.43-33.77L167.43-33.77Q167.23-34.40 167.23-34.95L167.23-34.95L167.23-34.95Q167.23-35.27 167.37-35.57L167.37-35.57L167.37-35.57Q167.51-35.88 167.51-36.20L167.51-36.20L167.51-36.20Q167.51-36.64 167.37-37.08L167.37-37.08L167.37-37.08Q167.23-37.52 167.23-37.95L167.23-37.95L167.23-37.95Q167.23-38.39 167.34-38.77L167.34-38.77L167.34-38.77Q167.45-39.16 167.45-39.59L167.45-39.59L167.45-39.59Q168.22-39.98 168.82-39.98L168.82-39.98L168.82-39.98Q169.42-39.98 169.70-39.54L169.70-39.54L169.70-39.54Q169.70-38.55 169.80-38.04L169.80-38.04L169.80-38.04Q169.91-37.52 169.97-36.97L169.97-36.97L169.97-36.97Q169.97-36.64 169.94-36.20L169.94-36.20L169.94-36.20Q169.91-35.77 169.97-35.36L169.97-35.36L169.97-35.36Q170.02-34.95 170.21-34.67L170.21-34.67L170.21-34.67Q170.41-34.40 170.90-34.40L170.90-34.40L170.90-34.40Q171.01-34.13 171.17-33.91L171.17-33.91L171.17-33.91Q171.34-33.69 171.39-33.36L171.39-33.36L171.39-33.36Q171.72-33.58 171.77-33.96L171.77-33.96L171.77-33.96Q171.83-34.34 171.77-34.67L171.77-34.67L171.77-34.67Q172.05-34.56 172.27-34.59L172.27-34.59L172.27-34.59Q172.48-34.62 172.70-34.51L172.70-34.51L172.70-34.51Q172.81-33.74 172.98-33.17L172.98-33.17L172.98-33.17Q173.14-32.59 173.09-31.83L173.09-31.83L173.09-31.83Q174.18-31.01 174.97-29.50L174.97-29.50L174.97-29.50Q175.77-28 176.48-26.80L176.48-26.80L176.48-26.80Q176.86-26.20 177.38-25.68L177.38-25.68L177.38-25.68Q177.90-25.16 178.17-24.45L178.17-24.45L178.17-24.45Q178.61-24.17 178.88-23.73L178.88-23.73L178.88-23.73Q179.16-23.30 179.38-22.86L179.38-22.86L179.38-22.86Q180.47-20.95 181.78-19.14L181.78-19.14L181.78-19.14Q183.09-17.34 184.52-15.59L184.52-15.59L184.52-15.59Q184.57-15.97 184.57-16.32L184.57-16.32L184.57-16.32Q184.57-16.68 184.57-17.06L184.57-17.06L184.52-21.98L184.52-21.98Q184.52-22.42 184.49-22.80L184.49-22.80L184.49-22.80Q184.46-23.19 184.41-23.63L184.41-23.63L184.41-23.63Q184.30-25.05 184.35-26.41L184.35-26.41L184.35-26.41Q184.41-27.78 184.35-29.20L184.35-29.20L184.35-29.20Q184.24-30.68 184.21-32.21L184.21-32.21L184.21-32.21Q184.19-33.74 184.08-35.27L184.08-35.27L184.08-35.27Q184.02-36.20 183.97-37.13L183.97-37.13L183.97-37.13Q183.91-38.06 183.91-38.99L183.91-38.99L183.91-38.99Q183.91-40.14 184.13-41.07L184.13-41.07L184.13-41.07Q184.24-41.18 184.38-41.26L184.38-41.26L184.38-41.26Q184.52-41.34 184.73-41.34L184.73-41.34L184.73-41.34Q185.06-41.34 185.17-40.80ZM229.41-40.69L229.41-40.69L229.41-40.69Q229.80-39.98 229.80-39.05L229.80-39.05L229.80-39.05Q229.80-38.23 229.47-37.30L229.47-37.30L229.47-37.30Q229.14-36.37 228.43-35.88L228.43-35.88L228.43-35.88Q227.94-34.78 227.47-34.10L227.47-34.10L227.47-34.10Q227.01-33.41 226.57-32.76L226.57-32.76L226.57-32.76Q226.41-32.38 226.24-32.02L226.24-32.02L226.24-32.02Q226.08-31.66 225.80-31.28L225.80-31.28L225.80-31.28Q225.64-31.01 225.09-30.19L225.09-30.19L225.09-30.19Q224.55-29.37 223.97-28.46L223.97-28.46L223.97-28.46Q223.40-27.56 222.96-26.74L222.96-26.74L222.96-26.74Q222.52-25.92 222.52-25.70L222.52-25.70L222.52-25.70Q222.52-25.48 223.04-25.16L223.04-25.16L223.04-25.16Q223.56-24.83 223.73-24.66L223.73-24.66L223.73-24.66Q224-24.39 224.25-24.12L224.25-24.12L224.25-24.12Q224.49-23.84 224.77-23.57L224.77-23.57L224.77-23.57Q225.37-23.08 225.94-22.59L225.94-22.59L225.94-22.59Q226.52-22.09 227.12-21.49L227.12-21.49L227.12-21.49Q228.27-20.45 229.52-19.52L229.52-19.52L229.52-19.52Q230.78-18.59 231.77-17.34L231.77-17.34L231.77-17.34Q232.70-17.06 232.97-16.02L232.97-16.02L232.97-16.02Q233.24-14.98 233.13-14.05L233.13-14.05L233.13-14.05Q233.24-13.89 233.32-13.73L233.32-13.73L233.32-13.73Q233.41-13.56 233.52-13.34L233.52-13.34L233.52-13.34Q233.52-12.47 233.27-12.06L233.27-12.06L233.27-12.06Q233.02-11.65 232.75-11.05L232.75-11.05L232.75-11.05Q232.48-10.50 232.39-9.95L232.39-9.95L232.39-9.95Q232.31-9.41 232.04-8.97L232.04-8.97L232.04-8.97Q231.93-8.80 231.74-8.70L231.74-8.70L231.74-8.70Q231.55-8.59 231.44-8.37L231.44-8.37L231.44-8.37Q231.22-7.98 231.08-7.46L231.08-7.46L231.08-7.46Q230.95-6.95 230.73-6.51L230.73-6.51L230.73-6.51Q230.56-6.07 230.32-5.63L230.32-5.63L230.32-5.63Q230.07-5.20 229.91-4.76L229.91-4.76L229.91-4.76Q229.80-4.48 229.71-4.10L229.71-4.10L229.71-4.10Q229.63-3.72 229.20-3.55L229.20-3.55L229.20-3.55Q228.92-2.57 228.46-1.64L228.46-1.64L228.46-1.64Q227.99-0.71 227.72 0.27L227.72 0.27L227.72 0.27Q227.23 0.44 226.49 0.90L226.49 0.90L226.49 0.90Q225.75 1.37 225.31 1.37L225.31 1.37L225.31 1.37Q225.15 1.37 225.04 1.20L225.04 1.20L225.04 1.20Q224.93 1.04 224.71 0.93L224.71 0.93L224.71 0.93Q224.60 0.88 224.41 0.93L224.41 0.93L224.41 0.93Q224.22 0.98 224.11 0.98L224.11 0.98L224.11 0.98Q223.84 0.98 223.70 0.77L223.70 0.77L223.70 0.77Q223.56 0.55 223.34 0.44L223.34 0.44L223.34 0.44Q223.18 0.49 223.02 0.55L223.02 0.55L223.02 0.55Q222.85 0.60 222.69 0.60L222.69 0.60L222.69 0.60Q222.30 0.60 222.25 0.41L222.25 0.41L222.25 0.41Q222.20 0.22 221.92 0.05L221.92 0.05L221.92 0.05Q221.27-0.27 221.16-0.55L221.16-0.55L221.16-0.55Q221.05-0.82 220.83-0.93L220.83-0.93L220.83-0.93Q221.21-2.35 221.87-3.64L221.87-3.64L221.87-3.64Q222.52-4.92 223.13-6.23L223.13-6.23L223.13-6.23Q223.29-6.67 223.54-7.05L223.54-7.05L223.54-7.05Q223.78-7.44 224-7.88L224-7.88L224-7.88Q224.16-8.26 224.49-8.86L224.49-8.86L224.49-8.86Q224.82-9.46 225.09-10.12L225.09-10.12L225.09-10.12Q225.37-10.77 225.59-11.35L225.59-11.35L225.59-11.35Q225.80-11.92 225.80-12.30L225.80-12.30L225.80-12.30Q225.80-13.07 225.37-13.45L225.37-13.45L225.37-13.45Q223.78-14.77 222.39-16.13L222.39-16.13L222.39-16.13Q220.99-17.50 219.46-18.92L219.46-18.92L219.46-18.92Q218.48-19.80 217.33-20.73L217.33-20.73L217.33-20.73Q217.11-20.89 217-21.22L217-21.22L217-21.22Q216.89-21.55 216.67-21.82L216.67-21.82L216.67-21.82Q216.56-22.04 216.34-22.15L216.34-22.15L216.34-22.15Q216.13-22.26 216.02-22.48L216.02-22.48L216.02-22.48Q215.85-22.70 215.80-23.00L215.80-23.00L215.80-23.00Q215.74-23.30 215.47-23.46L215.47-23.46L215.47-23.46Q215.20-23.73 214.81-23.79L214.81-23.79L214.81-23.79Q214.43-23.84 214.16-24.12L214.16-24.12L214.16-24.12Q214.32-24.28 214.29-24.47L214.29-24.47L214.29-24.47Q214.27-24.66 214.27-24.83L214.27-24.83L214.27-24.83Q214.27-25.21 214.59-25.38L214.59-25.38L214.59-25.38Q214.92-25.54 214.92-25.98L214.92-25.98L214.92-25.98Q215.14-26.41 215.25-26.52L215.25-26.52L215.25-26.52Q215.85-28 216.62-29.37L216.62-29.37L216.62-29.37Q217.38-30.73 218.20-32.10L218.20-32.10L218.20-32.10Q218.48-32.54 218.72-32.95L218.72-32.95L218.72-32.95Q218.97-33.36 219.24-33.80L219.24-33.80L219.24-33.80Q219.41-34.18 219.54-34.48L219.54-34.48L219.54-34.48Q219.68-34.78 219.95-35.05L219.95-35.05L219.95-35.05Q220.72-35.93 221.24-36.70L221.24-36.70L221.24-36.70Q221.76-37.46 222.03-38.55L222.03-38.55L222.03-38.55Q222.09-38.83 222.25-39.32L222.25-39.32L222.25-39.32Q222.41-39.81 222.66-40.30L222.66-40.30L222.66-40.30Q222.91-40.80 223.18-41.18L223.18-41.18L223.18-41.18Q223.45-41.56 223.78-41.56L223.78-41.56L223.78-41.56Q224.05-41.56 224.57-41.34L224.57-41.34L224.57-41.34Q225.09-41.13 225.48-41.02L225.48-41.02L225.48-41.02Q225.80-40.91 226.16-40.82L226.16-40.82L226.16-40.82Q226.52-40.74 226.84-40.74L226.84-40.74L226.84-40.74Q227.06-40.74 227.28-40.88L227.28-40.88L227.28-40.88Q227.50-41.02 227.77-41.02L227.77-41.02L227.77-41.02Q228.21-41.02 228.59-40.88L228.59-40.88L228.59-40.88Q228.98-40.74 229.41-40.69ZM248.34-41.45L248.45-41.40L248.45-41.40Q248.72-40.41 248.99-39.46L248.99-39.46L248.99-39.46Q249.27-38.50 249.65-37.57L249.65-37.57L249.65-37.57Q250.47-37.46 250.66-37.41L250.66-37.41L250.66-37.41Q250.85-37.35 251.13-37.24L251.13-37.24L251.13-37.24Q251.73-35.82 251.86-34.21L251.86-34.21L251.86-34.21Q252-32.59 252.27-31.06L252.27-31.06L252.27-31.06Q253.31-29.70 253.78-28.14L253.78-28.14L253.78-28.14Q254.24-26.58 254.84-24.99L254.84-24.99L254.84-24.99Q255.01-24.45 255.06-24.31L255.06-24.31L255.06-24.31Q255.12-24.17 255.12-24.06L255.12-24.06L255.12-24.06Q255.45-23.13 255.77-22.15L255.77-22.15L255.77-22.15Q256.10-21.16 256.48-20.23L256.48-20.23L256.48-20.23Q256.65-19.74 256.84-19.28L256.84-19.28L256.84-19.28Q257.03-18.81 257.20-18.38L257.20-18.38L257.20-18.38Q257.36-17.83 257.50-17.25L257.50-17.25L257.50-17.25Q257.63-16.68 257.80-16.13L257.80-16.13L257.80-16.13Q258.18-15.04 258.62-13.95L258.62-13.95L258.62-13.95Q259.05-12.85 259.49-11.76L259.49-11.76L259.49-11.76Q259.66-11.38 260.12-10.06L260.12-10.06L260.12-10.06Q260.59-8.75 261.08-7.30L261.08-7.30L261.08-7.30Q261.57-5.85 261.98-4.62L261.98-4.62L261.98-4.62Q262.39-3.39 262.39-3.12L262.39-3.12L262.39-3.12Q262.39-2.68 262.47-2.21L262.47-2.21L262.47-2.21Q262.55-1.75 262.61-1.26L262.61-1.26L262.61-1.26Q262.39-0.71 262.06-0.66L262.06-0.66L262.06-0.66Q261.73-0.60 261.46-0.71L261.46-0.71L261.46-0.71Q261.19-0.60 260.94-0.49L260.94-0.49L260.94-0.49Q260.70-0.38 260.48-0.27L260.48-0.27L260.48-0.27Q260.31-0.22 260.20-0.11L260.20-0.11L260.20-0.11Q260.09 0 259.93 0L259.93 0L259.93 0Q259.27 0 259.08 0.14L259.08 0.14L259.08 0.14Q258.89 0.27 258.51 0.27L258.51 0.27L258.51 0.27Q258.02 0.11 257.88 0.25L257.88 0.25L257.88 0.25Q257.74 0.38 257.63 0.44L257.63 0.44L257.63 0.44Q257.41 0.55 257.14 0.55L257.14 0.55L257.14 0.55Q256.87 0.55 256.59 0.60L256.59 0.60L256.59 0.60Q256.48 0.38 256.40 0.16L256.40 0.16L256.40 0.16Q256.32-0.05 256.16-0.33L256.16-0.33L256.16-0.33Q255.55-1.20 255.31-2.02L255.31-2.02L255.31-2.02Q255.06-2.84 254.90-3.34L254.90-3.34L254.90-3.34Q254.63-3.94 254.43-4.54L254.43-4.54L254.43-4.54Q254.24-5.14 253.97-5.74L253.97-5.74L253.97-5.74Q253.64-5.63 253.37-5.50L253.37-5.50L253.37-5.50Q253.09-5.36 252.93-5.14L252.93-5.14L252.93-5.14Q252.27-5.14 252.27-4.98L252.27-4.98L252.27-4.98Q252.27-4.81 252.16-4.65L252.16-4.65L252.16-4.65Q251.84-4.54 251.64-4.43L251.64-4.43L251.64-4.43Q251.45-4.32 251.02-4.38L251.02-4.38L251.02-4.38Q250.74-4.10 250.47-3.91L250.47-3.91L250.47-3.91Q250.20-3.72 249.76-3.66L249.76-3.66L249.76-3.66Q249.32-3.23 248.86-2.93L248.86-2.93L248.86-2.93Q248.39-2.63 247.79-2.79L247.79-2.79L247.79-2.79Q247.02-2.63 246.26-2.49L246.26-2.49L246.26-2.49Q245.49-2.35 244.73-2.35L244.73-2.35L244.73-2.35Q243.85-2.63 243.63-2.84L243.63-2.84L243.63-2.84Q243.41-3.06 242.98-3.06L242.98-3.06L242.98-3.06Q243.03-3.83 242.65-4.10L242.65-4.10L242.65-4.10Q242.65-4.27 242.68-4.62L242.68-4.62L242.68-4.62Q242.70-4.98 242.81-5.09L242.81-5.09L242.81-5.09Q243.52-5.41 243.63-5.80L243.63-5.80L243.63-5.80Q243.74-6.18 244.23-6.29L244.23-6.29L244.23-6.29Q244.34-6.51 244.48-6.70L244.48-6.70L244.48-6.70Q244.62-6.89 244.73-7.11L244.73-7.11L244.73-7.11Q245-7.22 245.19-7.27L245.19-7.27L245.19-7.27Q245.38-7.33 245.49-7.60L245.49-7.60L245.49-7.60Q245.77-7.60 246.31-7.96L246.31-7.96L246.31-7.96Q246.86-8.31 247.02-8.53L247.02-8.53L247.02-8.53Q247.46-8.70 247.57-8.83L247.57-8.83L247.57-8.83Q247.68-8.97 247.84-9.08L247.84-9.08L247.84-9.08Q248.39-9.02 248.55-9.19L248.55-9.19L248.55-9.19Q248.99-8.97 249.54-8.97L249.54-8.97L249.54-8.97Q249.76-8.97 249.92-9.00L249.92-9.00L249.92-9.00Q250.09-9.02 250.30-9.02L250.30-9.02L250.30-9.02Q250.74-9.46 251.43-9.60L251.43-9.60L251.43-9.60Q252.11-9.73 252.55-10.17L252.55-10.17L252.55-10.17Q252.38-10.61 252.27-11.24L252.27-11.24L252.27-11.24Q252.16-11.87 251.89-12.25L251.89-12.25L251.89-12.25Q251.78-12.96 251.54-13.62L251.54-13.62L251.54-13.62Q251.29-14.27 251.13-14.88L251.13-14.88L251.13-14.88Q250.52-17.17 249.70-19.36L249.70-19.36L249.70-19.36Q248.88-21.55 248.34-23.84L248.34-23.84L248.34-23.84Q248.23-24.12 248.09-24.42L248.09-24.42L248.09-24.42Q247.95-24.72 247.84-24.99L247.84-24.99L247.84-24.99Q247.57-24.34 247.57-24.25L247.57-24.25L247.57-24.25Q247.57-24.17 247.46-24.06L247.46-24.06L247.46-24.06Q247.41-23.79 247.35-23.60L247.35-23.60L247.35-23.60Q247.30-23.41 247.19-23.13L247.19-23.13L247.19-23.13Q247.02-22.70 246.89-22.18L246.89-22.18L246.89-22.18Q246.75-21.66 246.64-21.22L246.64-21.22L246.64-21.22Q246.37-20.29 246.15-19.28L246.15-19.28L246.15-19.28Q245.93-18.27 245.66-17.28L245.66-17.28L245.66-17.28Q245.11-15.59 244.54-13.92L244.54-13.92L244.54-13.92Q243.96-12.25 243.41-10.55L243.41-10.55L243.41-10.55Q243.30-9.79 243.17-9.38L243.17-9.38L243.17-9.38Q243.03-8.97 242.89-8.56L242.89-8.56L242.89-8.56Q242.76-8.15 242.68-7.77L242.68-7.77L242.68-7.77Q242.59-7.38 242.59-7.16L242.59-7.16L242.59-7.16Q241.83-5.41 241.31-3.61L241.31-3.61L241.31-3.61Q240.79-1.80 240.02-0.11L240.02-0.11L240.02-0.11Q239.80 0 239.64 0.16L239.64 0.16L239.64 0.16Q239.48 0.33 239.26 0.33L239.26 0.33L239.26 0.33Q238.82 0.33 238.79 0.11L238.79 0.11L238.79 0.11Q238.77-0.11 238.55-0.11L238.55-0.11L238.55-0.11Q238.33-0.11 238.16-0.03L238.16-0.03L238.16-0.03Q238 0.05 237.84 0.16L237.84 0.16L237.84 0.16Q237.56 0.05 237.21 0.03L237.21 0.03L237.21 0.03Q236.85 0 236.69-0.22L236.69-0.22L236.69-0.22Q236.30 0.05 235.92 0.05L235.92 0.05L235.92 0.05Q235.48 0.05 235.05-0.22L235.05-0.22L235.05-0.22Q234.72-0.11 234.39-0.11L234.39-0.11L234.39-0.11Q234.23-0.11 234.01-0.16L234.01-0.16L234.01-0.16Q233.79-0.22 233.68-0.33L233.68-0.33L233.68-0.33Q233.63-0.55 233.63-0.77L233.63-0.77L233.63-0.77Q233.63-0.98 233.63-1.26L233.63-1.26L233.63-1.26Q233.63-1.80 233.52-2.08L233.52-2.08L233.52-2.08Q234.50-4.87 235.43-7.74L235.43-7.74L235.43-7.74Q236.36-10.61 237.29-13.56L237.29-13.56L237.29-13.56Q237.78-14.93 238.25-16.24L238.25-16.24L238.25-16.24Q238.71-17.55 239.15-18.92L239.15-18.92L239.15-18.92Q239.37-19.69 239.53-20.37L239.53-20.37L239.53-20.37Q239.70-21.05 239.97-21.71L239.97-21.71L239.97-21.71Q240.41-23.13 240.87-24.58L240.87-24.58L240.87-24.58Q241.34-26.03 241.72-27.45L241.72-27.45L241.72-27.45Q241.94-27.62 241.99-27.84L241.99-27.84L241.99-27.84Q242.05-28.05 242.16-28.33L242.16-28.33L242.10-29.04L242.10-29.04Q242.48-29.59 242.62-30.00L242.62-30.00L242.62-30.00Q242.76-30.41 242.81-30.84L242.81-30.84L242.81-30.84Q243.09-31.50 243.30-32.27L243.30-32.27L243.30-32.27Q243.52-33.03 243.63-33.69L243.63-33.69L243.63-33.69Q243.74-34.56 243.77-35.68L243.77-35.68L243.77-35.68Q243.80-36.80 244.07-37.57L244.07-37.57L244.07-37.57Q244.18-37.79 244.26-37.87L244.26-37.87L244.26-37.87Q244.34-37.95 244.34-38.23L244.34-38.23L244.34-38.23Q244.45-38.34 244.59-38.47L244.59-38.47L244.59-38.47Q244.73-38.61 244.78-38.77L244.78-38.77L244.78-38.77Q245.05-39.21 244.97-39.54L244.97-39.54L244.97-39.54Q244.89-39.87 244.89-40.25L244.89-40.25L244.89-40.25Q245.38-40.52 245.33-40.74L245.33-40.74L245.33-40.74Q245.27-40.96 245.27-41.18L245.27-41.18L245.27-41.18Q245.27-41.45 245.63-41.70L245.63-41.70L245.63-41.70Q245.98-41.95 246.09-42.22L246.09-42.22L246.09-42.22Q246.42-42.16 246.75-42.14L246.75-42.14L246.75-42.14Q247.08-42.11 247.41-42.16L247.41-42.16L247.41-42.16Q247.79-41.45 248.34-41.45L248.34-41.45ZM287.98-39.10L287.98-39.10L287.98-39.10Q287.88-38.88 287.90-38.66L287.90-38.66L287.90-38.66Q287.93-38.45 287.93-38.17L287.93-38.17L287.93-38.17Q287.82-37.52 287.93-37.52L287.93-37.52L287.93-37.52Q288.04-37.52 288.04-37.41L288.04-37.41L287.66-36.86L287.66-36.86Q287.66-36.53 287.52-36.26L287.52-36.26L287.52-36.26Q287.38-35.98 287.44-35.60L287.44-35.60L287.44-35.60Q287.27-35.33 287.14-35.05L287.14-35.05L287.14-35.05Q287-34.78 286.73-34.51L286.73-34.51L286.02-34.51L286.02-34.51Q285.41-34.51 284.73-34.43L284.73-34.43L284.73-34.43Q284.05-34.34 283.39-34.34L283.39-34.34L283.39-34.34Q283.28-34.34 283.12-34.37L283.12-34.37L283.12-34.37Q282.95-34.40 282.79-34.40L282.79-34.40L282.79-34.40Q282.68-34.40 282.52-34.37L282.52-34.37L282.52-34.37Q282.35-34.34 282.13-34.34L282.13-34.34L282.13-34.34Q281.31-34.34 280.52-34.43L280.52-34.43L280.52-34.43Q279.73-34.51 278.85-34.51L278.85-34.51L278.85-34.51Q278.63-34.51 278.41-34.51L278.41-34.51L278.41-34.51Q278.20-34.51 277.92-34.45L277.92-34.45L277.92-34.45Q277.87-33.52 277.84-32.57L277.84-32.57L277.84-32.57Q277.81-31.61 277.81-30.63L277.81-30.63L277.81-30.63Q277.81-30.35 277.76-30.05L277.76-30.05L277.76-30.05Q277.70-29.75 277.70-29.48L277.70-29.48L277.70-29.48Q277.65-28.77 277.62-28.11L277.62-28.11L277.62-28.11Q277.59-27.45 277.59-26.74L277.59-26.74L277.59-26.74Q277.59-25.21 277.62-23.68L277.62-23.68L277.62-23.68Q277.65-22.15 277.70-20.56L277.70-20.56L277.70-20.56Q277.76-19.74 277.81-18.98L277.81-18.98L277.81-18.98Q277.87-18.21 277.87-17.39L277.87-17.39L277.87-17.39Q277.87-15.53 277.81-13.70L277.81-13.70L277.81-13.70Q277.76-11.87 277.76-10.01L277.76-10.01L277.76-10.01Q277.76-9.41 277.70-8.89L277.70-8.89L277.70-8.89Q277.65-8.37 277.65-7.77L277.65-7.77L277.65-7.77Q277.65-6.51 277.70-5.25L277.70-5.25L277.70-5.25Q277.76-3.99 277.76-2.73L277.76-2.73L277.76-2.73Q277.76-2.13 277.73-1.53L277.73-1.53L277.73-1.53Q277.70-0.93 277.70-0.33L277.70-0.33L277.70-0.33Q277.43 0.11 277.32 0.44L277.32 0.44L277.32 0.44Q277.21 0.77 276.66 0.77L276.66 0.77L276.66 0.77Q276.28 0.66 276.31 0.52L276.31 0.52L276.31 0.52Q276.34 0.38 276.23 0.27L276.23 0.27L276.23 0.27Q275.73 0.22 275.49 0.36L275.49 0.36L275.49 0.36Q275.24 0.49 274.91 0.60L274.91 0.60L274.91 0.60Q274.75 0.55 274.56 0.55L274.56 0.55L274.56 0.55Q274.37 0.55 274.20 0.55L274.20 0.55L274.20 0.55Q274.09 0.55 273.98 0.63L273.98 0.63L273.98 0.63Q273.88 0.71 273.49 0.71L273.49 0.71L273.49 0.71Q273.16 0.77 273.11 0.60L273.11 0.60L273.11 0.60Q273.05 0.44 272.78 0.44L272.78 0.44L272.78 0.44Q272.51 0.60 272.15 0.68L272.15 0.68L272.15 0.68Q271.80 0.77 271.47 0.77L271.47 0.77L271.47 0.77Q271.14 0.55 271.17 0.36L271.17 0.36L271.17 0.36Q271.20 0.16 271.09-0.05L271.09-0.05L271.09-0.05Q271.03-0.16 270.89-0.36L270.89-0.36L270.89-0.36Q270.76-0.55 270.65-0.66L270.65-0.66L270.65-0.66Q270.76-1.42 270.81-2.02L270.81-2.02L270.81-2.02Q270.87-2.63 270.87-3.34L270.87-3.34L270.87-3.34Q270.87-4.76 270.76-6.13L270.76-6.13L270.76-6.13Q270.65-7.49 270.65-8.91L270.65-8.91L270.65-8.91Q270.65-9.35 270.76-9.84L270.76-9.84L270.76-9.84Q270.87-10.34 270.87-10.88L270.87-10.88L270.87-10.88Q270.76-11.32 270.81-11.40L270.81-11.40L270.81-11.40Q270.87-11.48 270.87-11.59L270.87-11.59L270.87-11.59Q270.87-11.92 270.84-12.25L270.84-12.25L270.84-12.25Q270.81-12.58 270.81-12.91L270.81-12.91L270.81-12.91Q270.81-13.56 270.84-14.22L270.84-14.22L270.84-14.22Q270.87-14.88 270.87-15.53L270.87-15.53L270.87-15.53Q270.87-15.80 270.84-16.11L270.84-16.11L270.84-16.11Q270.81-16.41 270.81-16.68L270.81-16.68L270.81-16.68Q270.76-17.17 270.79-17.72L270.79-17.72L270.79-17.72Q270.81-18.27 270.81-18.81L270.81-18.81L270.81-18.81Q270.81-21.44 270.73-24.01L270.73-24.01L270.73-24.01Q270.65-26.58 270.65-29.20L270.65-29.20L270.65-29.20Q270.65-30.52 270.79-31.80L270.79-31.80L270.79-31.80Q270.92-33.09 270.92-34.40L270.92-34.40L270.92-34.40Q270.92-34.56 270.81-34.84L270.81-34.84L270.81-34.84Q270.70-35.11 270.59-35.22L270.59-35.22L270.59-35.22Q270.32-35.22 270.07-35.25L270.07-35.25L270.07-35.25Q269.83-35.27 269.55-35.27L269.55-35.27L269.55-35.27Q268.95-35.27 268.41-35.11L268.41-35.11L268.41-35.11Q267.37-35.05 266.41-34.97L266.41-34.97L266.41-34.97Q265.45-34.89 264.47-34.84L264.47-34.84L264.47-34.84Q263.81-34.89 263.68-34.86L263.68-34.86L263.68-34.86Q263.54-34.84 263.38-34.84L263.38-34.84L263.38-34.84Q262.94-34.84 262.72-35.05L262.72-35.05L262.72-35.77L262.72-35.77Q262.39-36.42 262.45-36.48L262.45-36.48L262.45-36.48Q262.50-36.53 262.50-36.64L262.50-36.64L262.50-36.64Q262.50-36.80 262.20-37.00L262.20-37.00L262.20-37.00Q261.90-37.19 261.90-37.63L261.90-37.63L261.90-37.63Q261.84-38.06 261.68-38.28L261.68-38.28L261.68-38.28Q261.52-38.50 261.52-38.72L261.52-38.72L261.52-38.72Q261.52-39.10 261.68-39.59L261.68-39.59L261.68-39.59Q262.17-39.87 262.64-39.98L262.64-39.98L262.64-39.98Q263.10-40.09 263.70-40.25L263.70-40.25L263.70-40.25Q264.03-40.36 264.30-40.47L264.30-40.47L264.30-40.47Q264.58-40.58 264.91-40.63L264.91-40.63L264.91-40.63Q265.29-40.69 265.67-40.69L265.67-40.69L265.67-40.69Q266.05-40.69 266.44-40.74L266.44-40.74L266.44-40.74Q267.26-40.91 268.16-41.02L268.16-41.02L268.16-41.02Q269.06-41.13 269.88-41.13L269.88-41.13L269.88-41.13Q270.65-41.13 271.41-40.93L271.41-40.93L271.41-40.93Q272.18-40.74 272.78-40.74L272.78-40.74L272.78-40.74Q273.66-40.74 274.45-40.63L274.45-40.63L274.45-40.63Q275.24-40.52 276.12-40.52L276.12-40.52L276.12-40.52Q276.23-40.52 276.47-40.44L276.47-40.44L276.47-40.44Q276.72-40.36 277.05-40.36L277.05-40.36L282.35-40.36L282.35-40.36Q282.79-40.25 282.98-40.30L282.98-40.30L282.98-40.30Q283.17-40.36 283.34-40.36L283.34-40.36L283.34-40.36Q283.77-40.36 284.16-40.30L284.16-40.30L284.16-40.30Q284.54-40.25 284.98-40.25L284.98-40.25L284.98-40.25Q285.36-40.25 285.58-40.30L285.58-40.30L285.58-40.30Q286.02-40.25 286.40-40.06L286.40-40.06L286.40-40.06Q286.78-39.87 287.27-39.87L287.27-39.87L287.27-39.87Q287.49-39.70 287.60-39.46L287.60-39.46L287.60-39.46Q287.71-39.21 287.98-39.10ZM301.77-41.45L301.88-41.40L301.88-41.40Q302.15-40.41 302.42-39.46L302.42-39.46L302.42-39.46Q302.70-38.50 303.08-37.57L303.08-37.57L303.08-37.57Q303.90-37.46 304.09-37.41L304.09-37.41L304.09-37.41Q304.28-37.35 304.55-37.24L304.55-37.24L304.55-37.24Q305.16-35.82 305.29-34.21L305.29-34.21L305.29-34.21Q305.43-32.59 305.70-31.06L305.70-31.06L305.70-31.06Q306.74-29.70 307.21-28.14L307.21-28.14L307.21-28.14Q307.67-26.58 308.27-24.99L308.27-24.99L308.27-24.99Q308.44-24.45 308.49-24.31L308.49-24.31L308.49-24.31Q308.55-24.17 308.55-24.06L308.55-24.06L308.55-24.06Q308.88-23.13 309.20-22.15L309.20-22.15L309.20-22.15Q309.53-21.16 309.91-20.23L309.91-20.23L309.91-20.23Q310.08-19.74 310.27-19.28L310.27-19.28L310.27-19.28Q310.46-18.81 310.63-18.38L310.63-18.38L310.63-18.38Q310.79-17.83 310.93-17.25L310.93-17.25L310.93-17.25Q311.06-16.68 311.23-16.13L311.23-16.13L311.23-16.13Q311.61-15.04 312.05-13.95L312.05-13.95L312.05-13.95Q312.48-12.85 312.92-11.76L312.92-11.76L312.92-11.76Q313.09-11.38 313.55-10.06L313.55-10.06L313.55-10.06Q314.02-8.75 314.51-7.30L314.51-7.30L314.51-7.30Q315-5.85 315.41-4.62L315.41-4.62L315.41-4.62Q315.82-3.39 315.82-3.12L315.82-3.12L315.82-3.12Q315.82-2.68 315.90-2.21L315.90-2.21L315.90-2.21Q315.98-1.75 316.04-1.26L316.04-1.26L316.04-1.26Q315.82-0.71 315.49-0.66L315.49-0.66L315.49-0.66Q315.16-0.60 314.89-0.71L314.89-0.71L314.89-0.71Q314.62-0.60 314.37-0.49L314.37-0.49L314.37-0.49Q314.13-0.38 313.91-0.27L313.91-0.27L313.91-0.27Q313.74-0.22 313.63-0.11L313.63-0.11L313.63-0.11Q313.52 0 313.36 0L313.36 0L313.36 0Q312.70 0 312.51 0.14L312.51 0.14L312.51 0.14Q312.32 0.27 311.94 0.27L311.94 0.27L311.94 0.27Q311.45 0.11 311.31 0.25L311.31 0.25L311.31 0.25Q311.17 0.38 311.06 0.44L311.06 0.44L311.06 0.44Q310.84 0.55 310.57 0.55L310.57 0.55L310.57 0.55Q310.30 0.55 310.02 0.60L310.02 0.60L310.02 0.60Q309.91 0.38 309.83 0.16L309.83 0.16L309.83 0.16Q309.75-0.05 309.59-0.33L309.59-0.33L309.59-0.33Q308.98-1.20 308.74-2.02L308.74-2.02L308.74-2.02Q308.49-2.84 308.33-3.34L308.33-3.34L308.33-3.34Q308.05-3.94 307.86-4.54L307.86-4.54L307.86-4.54Q307.67-5.14 307.40-5.74L307.40-5.74L307.40-5.74Q307.07-5.63 306.80-5.50L306.80-5.50L306.80-5.50Q306.52-5.36 306.36-5.14L306.36-5.14L306.36-5.14Q305.70-5.14 305.70-4.98L305.70-4.98L305.70-4.98Q305.70-4.81 305.59-4.65L305.59-4.65L305.59-4.65Q305.27-4.54 305.07-4.43L305.07-4.43L305.07-4.43Q304.88-4.32 304.45-4.38L304.45-4.38L304.45-4.38Q304.17-4.10 303.90-3.91L303.90-3.91L303.90-3.91Q303.63-3.72 303.19-3.66L303.19-3.66L303.19-3.66Q302.75-3.23 302.29-2.93L302.29-2.93L302.29-2.93Q301.82-2.63 301.22-2.79L301.22-2.79L301.22-2.79Q300.45-2.63 299.69-2.49L299.69-2.49L299.69-2.49Q298.92-2.35 298.16-2.35L298.16-2.35L298.16-2.35Q297.28-2.63 297.06-2.84L297.06-2.84L297.06-2.84Q296.84-3.06 296.41-3.06L296.41-3.06L296.41-3.06Q296.46-3.83 296.08-4.10L296.08-4.10L296.08-4.10Q296.08-4.27 296.11-4.62L296.11-4.62L296.11-4.62Q296.13-4.98 296.24-5.09L296.24-5.09L296.24-5.09Q296.95-5.41 297.06-5.80L297.06-5.80L297.06-5.80Q297.17-6.18 297.66-6.29L297.66-6.29L297.66-6.29Q297.77-6.51 297.91-6.70L297.91-6.70L297.91-6.70Q298.05-6.89 298.16-7.11L298.16-7.11L298.16-7.11Q298.43-7.22 298.62-7.27L298.62-7.27L298.62-7.27Q298.81-7.33 298.92-7.60L298.92-7.60L298.92-7.60Q299.20-7.60 299.74-7.96L299.74-7.96L299.74-7.96Q300.29-8.31 300.45-8.53L300.45-8.53L300.45-8.53Q300.89-8.70 301-8.83L301-8.83L301-8.83Q301.11-8.97 301.27-9.08L301.27-9.08L301.27-9.08Q301.82-9.02 301.98-9.19L301.98-9.19L301.98-9.19Q302.42-8.97 302.97-8.97L302.97-8.97L302.97-8.97Q303.19-8.97 303.35-9.00L303.35-9.00L303.35-9.00Q303.52-9.02 303.73-9.02L303.73-9.02L303.73-9.02Q304.17-9.46 304.86-9.60L304.86-9.60L304.86-9.60Q305.54-9.73 305.98-10.17L305.98-10.17L305.98-10.17Q305.81-10.61 305.70-11.24L305.70-11.24L305.70-11.24Q305.59-11.87 305.32-12.25L305.32-12.25L305.32-12.25Q305.21-12.96 304.96-13.62L304.96-13.62L304.96-13.62Q304.72-14.27 304.55-14.88L304.55-14.88L304.55-14.88Q303.95-17.17 303.13-19.36L303.13-19.36L303.13-19.36Q302.31-21.55 301.77-23.84L301.77-23.84L301.77-23.84Q301.66-24.12 301.52-24.42L301.52-24.42L301.52-24.42Q301.38-24.72 301.27-24.99L301.27-24.99L301.27-24.99Q301-24.34 301-24.25L301-24.25L301-24.25Q301-24.17 300.89-24.06L300.89-24.06L300.89-24.06Q300.84-23.79 300.78-23.60L300.78-23.60L300.78-23.60Q300.73-23.41 300.62-23.13L300.62-23.13L300.62-23.13Q300.45-22.70 300.32-22.18L300.32-22.18L300.32-22.18Q300.18-21.66 300.07-21.22L300.07-21.22L300.07-21.22Q299.80-20.29 299.58-19.28L299.58-19.28L299.58-19.28Q299.36-18.27 299.09-17.28L299.09-17.28L299.09-17.28Q298.54-15.59 297.96-13.92L297.96-13.92L297.96-13.92Q297.39-12.25 296.84-10.55L296.84-10.55L296.84-10.55Q296.73-9.79 296.60-9.38L296.60-9.38L296.60-9.38Q296.46-8.97 296.32-8.56L296.32-8.56L296.32-8.56Q296.19-8.15 296.11-7.77L296.11-7.77L296.11-7.77Q296.02-7.38 296.02-7.16L296.02-7.16L296.02-7.16Q295.26-5.41 294.74-3.61L294.74-3.61L294.74-3.61Q294.22-1.80 293.45-0.11L293.45-0.11L293.45-0.11Q293.23 0 293.07 0.16L293.07 0.16L293.07 0.16Q292.91 0.33 292.69 0.33L292.69 0.33L292.69 0.33Q292.25 0.33 292.22 0.11L292.22 0.11L292.22 0.11Q292.20-0.11 291.98-0.11L291.98-0.11L291.98-0.11Q291.76-0.11 291.59-0.03L291.59-0.03L291.59-0.03Q291.43 0.05 291.27 0.16L291.27 0.16L291.27 0.16Q290.99 0.05 290.64 0.03L290.64 0.03L290.64 0.03Q290.28 0 290.12-0.22L290.12-0.22L290.12-0.22Q289.73 0.05 289.35 0.05L289.35 0.05L289.35 0.05Q288.91 0.05 288.48-0.22L288.48-0.22L288.48-0.22Q288.15-0.11 287.82-0.11L287.82-0.11L287.82-0.11Q287.66-0.11 287.44-0.16L287.44-0.16L287.44-0.16Q287.22-0.22 287.11-0.33L287.11-0.33L287.11-0.33Q287.05-0.55 287.05-0.77L287.05-0.77L287.05-0.77Q287.05-0.98 287.05-1.26L287.05-1.26L287.05-1.26Q287.05-1.80 286.95-2.08L286.95-2.08L286.95-2.08Q287.93-4.87 288.86-7.74L288.86-7.74L288.86-7.74Q289.79-10.61 290.72-13.56L290.72-13.56L290.72-13.56Q291.21-14.93 291.68-16.24L291.68-16.24L291.68-16.24Q292.14-17.55 292.58-18.92L292.58-18.92L292.58-18.92Q292.80-19.69 292.96-20.37L292.96-20.37L292.96-20.37Q293.13-21.05 293.40-21.71L293.40-21.71L293.40-21.71Q293.84-23.13 294.30-24.58L294.30-24.58L294.30-24.58Q294.77-26.03 295.15-27.45L295.15-27.45L295.15-27.45Q295.37-27.62 295.42-27.84L295.42-27.84L295.42-27.84Q295.48-28.05 295.59-28.33L295.59-28.33L295.53-29.04L295.53-29.04Q295.91-29.59 296.05-30.00L296.05-30.00L296.05-30.00Q296.19-30.41 296.24-30.84L296.24-30.84L296.24-30.84Q296.52-31.50 296.73-32.27L296.73-32.27L296.73-32.27Q296.95-33.03 297.06-33.69L297.06-33.69L297.06-33.69Q297.17-34.56 297.20-35.68L297.20-35.68L297.20-35.68Q297.23-36.80 297.50-37.57L297.50-37.57L297.50-37.57Q297.61-37.79 297.69-37.87L297.69-37.87L297.69-37.87Q297.77-37.95 297.77-38.23L297.77-38.23L297.77-38.23Q297.88-38.34 298.02-38.47L298.02-38.47L298.02-38.47Q298.16-38.61 298.21-38.77L298.21-38.77L298.21-38.77Q298.48-39.21 298.40-39.54L298.40-39.54L298.40-39.54Q298.32-39.87 298.32-40.25L298.32-40.25L298.32-40.25Q298.81-40.52 298.76-40.74L298.76-40.74L298.76-40.74Q298.70-40.96 298.70-41.18L298.70-41.18L298.70-41.18Q298.70-41.45 299.06-41.70L299.06-41.70L299.06-41.70Q299.41-41.95 299.52-42.22L299.52-42.22L299.52-42.22Q299.85-42.16 300.18-42.14L300.18-42.14L300.18-42.14Q300.51-42.11 300.84-42.16L300.84-42.16L300.84-42.16Q301.22-41.45 301.77-41.45L301.77-41.45ZM343.44-5.25L343.44-5.25L343.44-5.25Q343.38-4.43 343.79-4.02L343.79-4.02L343.79-4.02Q344.20-3.61 344.48-3.01L344.48-3.01L344.48-3.01Q344.37-2.24 344.64-1.80L344.64-1.80L344.64-1.80Q344.48-1.48 344.31-1.07L344.31-1.07L344.31-1.07Q344.15-0.66 343.82-0.38L343.82-0.38L343.82-0.38Q342.95 0 342.78 0.27L342.78 0.27L342.78 0.27Q342.62 0.55 342.13 0.55L342.13 0.55L342.13 0.55Q341.85 0.82 341.52 1.12L341.52 1.12L341.52 1.12Q341.20 1.42 340.92 1.70L340.92 1.70L340.92 1.70Q340.65 1.59 340.54 1.42L340.54 1.42L340.54 1.42Q340.43 1.26 340.21 0.98L340.21 0.98L340.21 0.98Q339.66 0.82 339.23 0.41L339.23 0.41L339.23 0.41Q338.79 0 338.46-0.52L338.46-0.52L338.46-0.52Q338.13-1.04 337.83-1.61L337.83-1.61L337.83-1.61Q337.53-2.19 337.31-2.68L337.31-2.68L337.31-2.68Q336.55-4.10 335.75-5.55L335.75-5.55L335.75-5.55Q334.96-7 334.14-8.42L334.14-8.42L334.14-8.42Q333.70-9.13 333.29-9.87L333.29-9.87L333.29-9.87Q332.88-10.61 332.45-11.38L332.45-11.38L332.45-11.38Q332.34-11.48 332.23-11.62L332.23-11.62L332.23-11.62Q332.12-11.76 332.01-11.92L332.01-11.92L332.01-11.92Q331.63-12.47 331.43-13.15L331.43-13.15L331.43-13.15Q331.24-13.84 330.64-14.27L330.64-14.27L330.64-14.27Q329.60-14.38 328.75-13.97L328.75-13.97L328.75-13.97Q327.91-13.56 327.25-12.91L327.25-12.91L327.25-12.91Q327.30-12.52 327.30-12.20L327.30-12.20L327.30-12.20Q327.30-11.87 327.30-11.54L327.30-11.54L327.30-11.54Q327.30-10.28 327.20-9.13L327.20-9.13L327.20-9.13Q327.09-7.98 327.09-6.73L327.09-6.73L327.09-6.73Q327.09-6.18 327.14-5.61L327.14-5.61L327.14-5.61Q327.20-5.03 327.30-4.48L327.30-4.48L327.30-4.48Q327.14-3.88 327.14-3.17L327.14-3.17L327.14-3.17Q327.14-2.79 327.22-2.46L327.22-2.46L327.22-2.46Q327.30-2.13 327.30-1.75L327.30-1.75L327.30-1.75Q327.30-1.20 326.95-1.01L326.95-1.01L326.95-1.01Q326.59-0.82 326.70-0.33L326.70-0.33L326.70-0.33Q326.05-0.05 325.45 0.22L325.45 0.22L325.45 0.22Q324.84 0.49 324.19 0.60L324.19 0.60L324.19 0.60Q323.91 0.66 323.64 0.63L323.64 0.63L323.64 0.63Q323.37 0.60 323.15 0.71L323.15 0.71L323.15 0.71Q322.88 0.82 322.71 1.12L322.71 1.12L322.71 1.12Q322.55 1.42 322.27 1.42L322.27 1.42L322.27 1.42Q321.95 1.42 321.89 1.18L321.89 1.18L321.89 1.18Q321.84 0.93 321.67 0.77L321.67 0.77L321.67 0.77Q321.40 0.66 321.23 0.66L321.23 0.66L321.23 0.66Q321.07 0.66 320.91 0.49L320.91 0.49L320.91 0.49Q320.96 0 320.69-0.25L320.69-0.25L320.69-0.25Q320.41-0.49 320.41-1.26L320.41-1.26L320.41-1.26Q320.41-1.86 320.50-2.41L320.50-2.41L320.50-2.41Q320.58-2.95 320.58-3.55L320.58-3.55L320.58-3.55Q320.58-4.05 320.44-4.46L320.44-4.46L320.44-4.46Q320.30-4.87 320.20-5.36L320.20-5.36L320.20-5.36Q320.14-5.58 320.20-5.80L320.20-5.80L320.20-5.80Q320.25-6.02 320.25-6.23L320.25-6.23L320.25-6.23Q320.25-7.22 320.17-8.23L320.17-8.23L320.17-8.23Q320.09-9.24 320.09-10.23L320.09-10.23L320.09-10.23Q320.09-10.61 320.09-10.94L320.09-10.94L320.09-10.94Q320.09-11.27 320.14-11.59L320.14-11.59L320.14-11.59Q320.25-11.92 320.33-12.14L320.33-12.14L320.33-12.14Q320.41-12.36 320.41-12.69L320.41-12.69L320.41-12.69Q320.41-13.73 320.20-14.74L320.20-14.74L320.20-14.74Q319.98-15.75 319.98-16.73L319.98-16.73L319.98-16.73Q319.98-17.28 320.00-17.86L320.00-17.86L320.00-17.86Q320.03-18.43 320.03-18.98L320.03-18.98L320.03-18.98Q320.03-20.56 319.98-22.09L319.98-22.09L319.98-22.09Q319.92-23.63 319.92-25.16L319.92-25.16L319.92-25.16Q319.92-26.25 319.98-27.32L319.98-27.32L319.98-27.32Q320.03-28.38 320.03-29.48L320.03-29.48L320.03-29.48Q320.03-30.84 319.92-32.18L319.92-32.18L319.92-32.18Q319.81-33.52 319.81-34.95L319.81-34.95L319.81-34.95Q319.81-35.44 319.76-35.60L319.76-35.60L319.76-35.60Q319.70-35.77 319.59-35.79L319.59-35.79L319.59-35.79Q319.48-35.82 319.35-35.85L319.35-35.85L319.35-35.85Q319.21-35.88 319.10-36.04L319.10-36.04L319.10-36.04Q319.10-36.37 319.38-36.50L319.38-36.50L319.38-36.50Q319.65-36.64 319.65-37.41L319.65-37.41L319.65-37.41Q319.65-37.84 319.57-38.28L319.57-38.28L319.57-38.28Q319.48-38.72 319.48-39.16L319.48-39.16L319.48-39.16Q319.48-39.81 319.76-40.47L319.76-40.47L319.76-40.47Q320.03-41.13 320.25-41.73L320.25-41.73L320.25-41.73Q320.91-41.78 321.15-41.73L321.15-41.73L321.15-41.73Q321.40-41.67 321.67-41.78L321.67-41.78L321.67-41.78Q321.84-41.18 322.38-41.15L322.38-41.15L322.38-41.15Q322.93-41.13 323.37-41.02L323.37-41.02L323.37-41.02Q323.86-40.96 324.32-40.77L324.32-40.77L324.32-40.77Q324.79-40.58 325.23-40.58L325.23-40.58L325.23-40.58Q325.34-40.25 325.69-40.11L325.69-40.11L325.69-40.11Q326.05-39.98 326.43-39.87L326.43-39.87L326.43-39.87Q326.87-39.92 327.11-40.25L327.11-40.25L327.11-40.25Q327.36-40.58 327.80-40.58L327.80-40.58L327.80-40.58Q328.13-40.58 328.56-40.11L328.56-40.11L328.56-40.11Q329-39.65 329.22-39.38L329.22-39.38L329.22-39.38Q329.44-39.21 330.04-38.66L330.04-38.66L330.04-38.66Q330.64-38.12 331.35-37.54L331.35-37.54L331.35-37.54Q332.06-36.97 332.66-36.45L332.66-36.45L332.66-36.45Q333.27-35.93 333.43-35.88L333.43-35.88L333.43-35.88Q335.67-33.63 337.61-31.80L337.61-31.80L337.61-31.80Q339.55-29.97 341.85-28.49L341.85-28.49L341.85-28.49Q341.91-28.33 341.99-28.22L341.99-28.22L341.99-28.22Q342.07-28.11 342.18-27.95L342.18-27.95L342.18-27.95Q342.18-27.51 342.02-27.29L342.02-27.29L342.02-27.29Q341.85-27.07 341.85-26.74L341.85-26.74L341.85-26.74Q341.85-26.58 341.93-26.41L341.93-26.41L341.93-26.41Q342.02-26.25 342.02-26.09L342.02-26.09L342.02-26.09Q342.07-25.87 342.04-25.68L342.04-25.68L342.04-25.68Q342.02-25.48 342.02-25.27L342.02-25.27L342.02-25.27Q342.02-24.72 342.37-24.28L342.37-24.28L342.37-24.28Q342.73-23.84 342.73-23.30L342.73-23.30L342.73-23.30Q342.62-22.80 342.29-22.70L342.29-22.70L342.29-22.70Q341.96-22.59 341.74-22.42L341.74-22.42L341.74-22.42Q341.63-22.31 341.55-22.15L341.55-22.15L341.55-22.15Q341.47-21.98 341.36-21.88L341.36-21.88L341.36-21.88Q340.16-21.33 339.61-20.86L339.61-20.86L339.61-20.86Q339.06-20.40 338.46-19.96L338.46-19.96L338.46-19.96Q338.30-19.85 337.91-19.61L337.91-19.61L337.91-19.61Q337.53-19.36 337.15-19.11L337.15-19.11L337.15-19.11Q336.77-18.87 336.46-18.59L336.46-18.59L336.46-18.59Q336.16-18.32 336.16-18.16L336.16-18.16L336.16-18.16Q336.16-17.77 336.63-17.09L336.63-17.09L336.63-17.09Q337.09-16.41 337.31-16.02L337.31-16.02L337.31-16.02Q337.91-15.04 338.41-14.08L338.41-14.08L338.41-14.08Q338.90-13.13 339.50-12.20L339.50-12.20L339.50-12.20Q340.59-10.50 341.55-8.75L341.55-8.75L341.55-8.75Q342.51-7 343.44-5.25ZM334.52-25.59L334.52-25.59L334.52-25.59Q333.27-27.18 331.82-28.46L331.82-28.46L331.82-28.46Q330.37-29.75 329.05-31.17L329.05-31.17L328.45-31.28L328.45-31.28Q328.13-31.83 327.71-32.24L327.71-32.24L327.71-32.24Q327.30-32.65 326.87-33.09L326.87-33.09L326.87-33.09Q326.92-32.48 326.92-31.94L326.92-31.94L326.92-31.94Q326.92-31.39 326.92-30.79L326.92-30.79L326.92-30.79Q326.92-29.04 326.84-27.37L326.84-27.37L326.84-27.37Q326.76-25.70 326.76-24.01L326.76-24.01L326.76-24.01Q326.76-22.31 326.92-20.78L326.92-20.78L326.92-20.78Q328.07-20.78 329-21.44L329-21.44L329-21.44Q329.38-21.71 329.71-22.01L329.71-22.01L329.71-22.01Q330.04-22.31 330.42-22.59L330.42-22.59L330.42-22.59Q330.86-22.86 331.43-23.24L331.43-23.24L331.43-23.24Q332.01-23.63 332.58-24.01L332.58-24.01L332.58-24.01Q333.16-24.39 333.68-24.80L333.68-24.80L333.68-24.80Q334.20-25.21 334.52-25.59ZM374.01-21.71L374.01-21.71L374.01-21.71Q373.90-21.49 373.79-21.30L373.79-21.30L373.79-21.30Q373.68-21.11 373.63-20.89L373.63-20.89L373.63-20.89Q373.84-20.67 374.04-20.43L374.04-20.43L374.04-20.43Q374.23-20.18 374.23-19.91L374.23-19.91L374.23-19.91Q374.23-19.69 374.14-19.50L374.14-19.50L374.14-19.50Q374.06-19.30 374.12-19.14L374.12-19.14L374.12-19.14Q373.90-18.76 373.65-18.43L373.65-18.43L373.65-18.43Q373.41-18.10 373.30-17.72L373.30-17.72L373.30-17.72Q373.08-17.50 372.94-17.28L372.94-17.28L372.94-17.28Q372.80-17.06 372.70-16.84L372.70-16.84L372.70-16.84Q372.42-16.73 372.34-16.49L372.34-16.49L372.34-16.49Q372.26-16.24 372.04-16.08L372.04-16.08L372.04-16.08Q371.98-15.86 371.49-15.04L371.49-15.04L371.49-15.04Q371-14.22 370.40-13.29L370.40-13.29L370.40-13.29Q369.80-12.36 369.25-11.48L369.25-11.48L369.25-11.48Q368.70-10.61 368.48-10.34L368.48-10.34L368.48-10.34Q368.38-10.06 368.24-9.90L368.24-9.90L368.24-9.90Q368.10-9.73 367.94-9.52L367.94-9.52L367.94-9.52Q367.83-9.35 367.77-9.16L367.77-9.16L367.77-9.16Q367.72-8.97 367.61-8.86L367.61-8.86L367.61-8.86Q367.50-8.64 367.36-8.48L367.36-8.48L367.36-8.48Q367.23-8.31 367.12-8.04L367.12-8.04L367.12-8.04Q366.57-7.33 366.02-6.34L366.02-6.34L366.02-6.34Q365.48-5.36 364.98-4.59L364.98-4.59L364.98-4.59Q364.71-4.16 364.46-3.72L364.46-3.72L364.46-3.72Q364.22-3.28 363.95-2.84L363.95-2.84L363.95-2.84Q363.67-2.41 363.40-2.02L363.40-2.02L363.40-2.02Q363.13-1.64 362.85-1.20L362.85-1.20L362.85-1.20Q362.41-0.88 362.09-0.41L362.09-0.41L362.09-0.41Q361.76 0.05 361.32 0.38L361.32 0.38L361.32 0.38Q360.61 0.38 360.45-0.27L360.45-0.27L360.45-0.27Q359.73-0.44 359.73-0.27L359.73-0.27L359.73-0.27Q359.73-0.11 359.73 0L359.73 0L359.73 0Q359.52 0.11 359.43 0.33L359.43 0.33L359.43 0.33Q359.35 0.55 359.13 0.66L359.13 0.66L359.13 0.66Q358.70 0.55 358.39 0.30L358.39 0.30L358.39 0.30Q358.09 0.05 357.55 0.11L357.55 0.11L357.55 0.11Q357.33-0.22 357.05-0.46L357.05-0.46L357.05-0.46Q356.78-0.71 356.56-0.98L356.56-0.98L356.56-0.98Q356.45-1.31 356.26-1.53L356.26-1.53L356.26-1.53Q356.07-1.75 355.91-1.97L355.91-1.97L355.91-1.97Q355.74-2.24 355.58-2.46L355.58-2.46L355.58-2.46Q355.41-2.68 355.25-2.90L355.25-2.90L355.25-2.90Q354.87-3.39 354.51-3.86L354.51-3.86L354.51-3.86Q354.16-4.32 353.88-4.81L353.88-4.81L353.88-4.81Q353.45-5.47 353.04-6.15L353.04-6.15L353.04-6.15Q352.63-6.84 352.19-7.49L352.19-7.49L352.19-7.49Q351.97-7.82 351.75-8.15L351.75-8.15L351.75-8.15Q351.53-8.48 351.37-8.80L351.37-8.80L351.37-8.80Q351.26-9.08 351.07-9.46L351.07-9.46L351.07-9.46Q350.88-9.84 350.60-9.95L350.60-9.95L350.60-9.95Q350.49-10.39 350.22-10.61L350.22-10.61L350.22-10.61Q349.95-10.83 349.67-11.16L349.67-11.16L349.67-11.16Q349.29-11.59 348.96-12.11L348.96-12.11L348.96-12.11Q348.63-12.63 348.30-13.18L348.30-13.18L348.30-13.18Q347.21-14.71 346.25-16.19L346.25-16.19L346.25-16.19Q345.30-17.66 344.37-19.25L344.37-19.25L344.37-19.25Q344.64-20.13 344.64-20.56L344.64-20.56L344.64-20.56Q344.64-21 344.91-21.27L344.91-21.27L344.91-21.27Q344.91-21.49 345.02-21.93L345.02-21.93L345.02-21.93Q345.73-23.13 346.39-24.12L346.39-24.12L346.39-24.12Q346.99-25.05 347.24-25.65L347.24-25.65L347.24-25.65Q347.48-26.25 347.76-26.91L347.76-26.91L347.76-26.91Q348.03-27.07 348.20-27.32L348.20-27.32L348.20-27.32Q348.36-27.56 348.63-27.78L348.63-27.78L348.63-27.78Q348.74-28.38 349.13-28.79L349.13-28.79L349.13-28.79Q349.51-29.20 349.62-29.80L349.62-29.80L349.62-29.80Q350.11-30.19 350.16-30.68L350.16-30.68L350.16-30.68Q350.88-31.17 351.04-31.99L351.04-31.99L351.04-31.99Q351.48-32.43 351.78-32.98L351.78-32.98L351.78-32.98Q352.08-33.52 352.35-34.13L352.35-34.13L352.35-34.13Q353.01-34.67 353.39-35.55L353.39-35.55L353.39-35.55Q353.72-35.77 353.88-36.15L353.88-36.15L353.88-36.15Q354.05-36.53 354.32-36.80L354.32-36.80L354.32-36.80Q354.76-37.52 355.00-37.98L355.00-37.98L355.00-37.98Q355.25-38.45 355.52-38.94L355.52-38.94L355.52-38.94Q355.91-38.94 356.02-39.21L356.02-39.21L356.02-39.21Q356.13-39.48 356.45-39.43L356.45-39.43L356.45-39.43Q356.45-39.92 356.73-40.30L356.73-40.30L356.73-40.30Q356.84-40.36 357.05-40.44L357.05-40.44L357.05-40.44Q357.27-40.52 357.27-40.63L357.27-40.63L357.27-40.63Q357.16-41.29 357.33-41.40L357.33-41.40L357.33-41.40Q357.49-41.51 357.60-41.62L357.60-41.62L357.60-41.62Q358.20-41.51 358.42-41.45L358.42-41.45L358.42-41.45Q358.64-41.40 359.13-41.07L359.13-41.07L359.13-41.07Q359.68-41.07 359.90-40.85L359.90-40.85L359.90-40.85Q360.12-40.63 360.39-40.52L360.39-40.52L360.39-40.52Q360.61-40.30 360.75-40.09L360.75-40.09L360.75-40.09Q360.88-39.87 361.16-39.76L361.16-39.76L361.16-39.76Q361.59-39.16 362.09-38.45L362.09-38.45L362.09-38.45Q362.58-37.73 363.02-37.13L363.02-37.13L363.02-37.13Q363.62-36.31 364.25-35.57L364.25-35.57L364.25-35.57Q364.88-34.84 365.42-33.96L365.42-33.96L365.42-33.96Q365.59-33.69 366.02-33.00L366.02-33.00L366.02-33.00Q366.46-32.32 367.01-31.55L367.01-31.55L367.01-31.55Q367.55-30.79 367.99-30.16L367.99-30.16L367.99-30.16Q368.43-29.53 368.59-29.42L368.59-29.42L368.59-29.42Q368.76-29.15 369.30-28.38L369.30-28.38L369.30-28.38Q369.85-27.62 370.48-26.77L370.48-26.77L370.48-26.77Q371.11-25.92 371.71-25.16L371.71-25.16L371.71-25.16Q372.31-24.39 372.53-24.17L372.53-24.17L372.53-24.17Q373.13-23.35 373.43-22.83L373.43-22.83L373.43-22.83Q373.73-22.31 374.01-21.71ZM361.48-11.43L361.48-11.43L361.48-11.43Q362.09-12.25 362.41-12.91L362.41-12.91L362.41-12.91Q362.74-13.56 363.07-14.22L363.07-14.22L363.07-14.22Q363.62-14.88 363.73-15.15L363.73-15.15L363.73-15.15Q363.84-15.42 364-15.70L364-15.70L364-15.70Q364.44-16.35 364.90-17.01L364.90-17.01L364.90-17.01Q365.37-17.66 365.64-18.43L365.64-18.43L365.64-18.43Q365.97-18.65 366.13-18.98L366.13-18.98L366.13-18.98Q366.30-19.30 366.63-19.58L366.63-19.58L366.63-19.58Q366.30-20.73 365.86-21.36L365.86-21.36L365.86-21.36Q365.42-21.98 364.98-22.59L364.98-22.59L364.98-22.59Q364.82-22.86 364.66-23.13L364.66-23.13L364.66-23.13Q364.49-23.41 364.33-23.68L364.33-23.68L364.33-23.68Q364.11-23.84 363.97-24.01L363.97-24.01L363.97-24.01Q363.84-24.17 363.67-24.34L363.67-24.34L363.67-24.34Q363.56-24.61 363.34-25.05L363.34-25.05L363.34-25.05Q363.13-25.32 362.91-25.54L362.91-25.54L362.91-25.54Q362.69-25.76 362.52-26.09L362.52-26.09L362.52-26.09Q362.30-26.30 361.98-26.69L361.98-26.69L361.98-26.69Q361.65-27.07 361.29-27.54L361.29-27.54L361.29-27.54Q360.94-28 360.66-28.41L360.66-28.41L360.66-28.41Q360.39-28.82 360.23-29.09L360.23-29.09L360.23-29.09Q360.12-29.37 360.04-29.56L360.04-29.56L360.04-29.56Q359.95-29.75 359.84-29.97L359.84-29.97L359.84-29.97Q359.57-30.35 359.30-30.65L359.30-30.65L359.30-30.65Q359.02-30.95 358.75-31.34L358.75-31.34L358.75-31.34Q358.59-31.23 358.45-31.20L358.45-31.20L358.45-31.20Q358.31-31.17 358.20-31.06L358.20-31.06L358.20-31.06Q357.82-30.35 357.36-29.75L357.36-29.75L357.36-29.75Q356.89-29.15 356.45-28.44L356.45-28.44L356.45-28.44Q356.07-27.78 355.69-27.10L355.69-27.10L355.69-27.10Q355.30-26.41 354.92-25.76L354.92-25.76L354.92-25.76Q354.65-25.38 354.40-25.02L354.40-25.02L354.40-25.02Q354.16-24.66 353.88-24.23L353.88-24.23L353.88-24.23Q353.61-23.84 353.42-23.43L353.42-23.43L353.42-23.43Q353.23-23.02 352.95-22.64L352.95-22.64L352.95-22.64Q352.52-22.09 352.24-21.66L352.24-21.66L352.24-21.66Q351.97-21.22 351.70-20.62L351.70-20.62L351.70-20.62Q351.86-20.29 352.21-19.71L352.21-19.71L352.21-19.71Q352.57-19.14 352.95-18.57L352.95-18.57L352.95-18.57Q353.34-17.99 353.64-17.50L353.64-17.50L353.64-17.50Q353.94-17.01 353.99-16.84L353.99-16.84L353.99-16.84Q354.43-16.46 354.70-16.00L354.70-16.00L354.70-16.00Q354.98-15.53 355.41-15.09L355.41-15.09L355.41-15.09Q355.63-14.66 355.91-14.33L355.91-14.33L355.91-14.33Q356.18-14 356.45-13.62L356.45-13.62L356.45-13.62Q356.73-13.23 357.16-12.50L357.16-12.50L357.16-12.50Q357.60-11.76 358.04-10.99L358.04-10.99L358.04-10.99Q358.48-10.23 358.91-9.57L358.91-9.57L358.91-9.57Q359.35-8.91 359.63-8.75L359.63-8.75L359.63-8.75Q360.17-9.35 360.53-10.09L360.53-10.09L360.53-10.09Q360.88-10.83 361.48-11.43ZM396.54-42.05L396.54-42.05L396.54-42.05Q396.98-42.05 397.17-41.86L397.17-41.86L397.17-41.86Q397.36-41.67 397.47-41.40L397.47-41.40L397.47-41.40Q398.02-41.45 398.59-41.21L398.59-41.21L398.59-41.21Q399.16-40.96 399.27-40.74L399.27-40.74L399.27-40.74Q399.71-40.69 399.82-40.52L399.82-40.52L399.82-40.52Q399.93-40.36 400.15-40.30L400.15-40.30L400.75-40.36L400.75-40.36Q400.97-40.14 401.60-39.92L401.60-39.92L401.60-39.92Q402.23-39.70 402.34-39.43L402.34-39.43L402.34-39.43Q402.23-39.16 402.25-38.86L402.25-38.86L402.25-38.86Q402.28-38.55 402.28-38.17L402.28-38.17L402.28-38.17Q402.12-37.35 401.76-36.70L401.76-36.70L401.76-36.70Q401.41-36.04 401.13-35.44L401.13-35.44L401.13-35.44Q400.97-35.16 400.89-34.84L400.89-34.84L400.89-34.84Q400.80-34.51 400.70-34.23L400.70-34.23L400.70-34.23Q400.59-34.02 400.50-33.82L400.50-33.82L400.50-33.82Q400.42-33.63 400.31-33.41L400.31-33.41L400.31-33.41Q400.31-33.14 400.20-32.84L400.20-32.84L400.20-32.84Q400.09-32.54 399.98-32.27L399.98-32.27L399.98-32.27Q399.98-31.94 399.93-31.80L399.93-31.80L399.93-31.80Q399.88-31.66 399.88-31.55L399.88-31.55L399.88-31.55Q398.84-29.04 398.23-26.85L398.23-26.85L398.23-26.85Q397.63-24.66 397.03-22.48L397.03-22.48L397.03-22.48Q396.76-21.82 396.48-20.84L396.48-20.84L396.48-20.84Q396.21-19.85 395.80-18.51L395.80-18.51L395.80-18.51Q395.39-17.17 394.93-15.67L394.93-15.67L394.93-15.67Q394.46-14.16 394.05-12.88L394.05-12.88L394.05-12.88Q393.64-11.59 393.34-10.69L393.34-10.69L393.34-10.69Q393.04-9.79 392.98-9.68L392.98-9.68L392.98-9.68Q392.82-8.75 392.49-7.79L392.49-7.79L392.49-7.79Q392.16-6.84 391.95-5.80L391.95-5.80L391.95-5.80Q391.67-5.47 391.62-5.06L391.62-5.06L391.62-5.06Q391.56-4.65 391.34-4.27L391.34-4.27L391.34-4.27Q390.91-4.32 390.63-4.05L390.63-4.05L390.63-4.05Q390.58-3.61 390.71-3.23L390.71-3.23L390.71-3.23Q390.85-2.84 390.85-2.41L390.85-2.41L390.85-2.41Q390.63-1.80 390.30-1.64L390.30-1.64L390.30-1.64Q389.98-1.48 389.87-1.09L389.87-1.09L389.87-1.09Q389.48-1.20 389.29-0.98L389.29-0.98L389.29-0.98Q389.10-0.77 388.88-0.77L388.88-0.77L388.88-0.77Q388.23-0.93 388.12-0.55L388.12-0.55L388.12-0.55Q387.79-0.66 387.68-0.46L387.68-0.46L387.68-0.46Q387.57-0.27 387.46-0.22L387.46-0.22L387.46-0.22Q387.02-0.22 386.78-0.03L386.78-0.03L386.78-0.03Q386.53 0.16 386.20 0.22L386.20 0.22L386.20 0.22Q385.98 0.11 385.77-0.03L385.77-0.03L385.77-0.03Q385.55-0.16 385.38-0.33L385.38-0.33L385.38-0.33Q385.05-1.26 384.78-2.16L384.78-2.16L384.78-2.16Q384.51-3.06 384.23-3.99L384.23-3.99L384.23-3.99Q384.13-4.43 383.96-4.81L383.96-4.81L383.96-4.81Q383.80-5.20 383.69-5.63L383.69-5.63L383.69-5.63Q383.63-5.91 383.63-6.10L383.63-6.10L383.63-6.10Q383.63-6.29 383.58-6.51L383.58-6.51L383.58-6.51Q383.47-6.78 383.36-7.05L383.36-7.05L383.36-7.05Q383.25-7.33 383.14-7.60L383.14-7.60L383.14-7.60Q382.70-8.80 382.48-10.06L382.48-10.06L382.48-10.06Q382.21-10.99 381.96-11.89L381.96-11.89L381.96-11.89Q381.72-12.80 381.50-13.73L381.50-13.73L381.50-13.73Q381.34-14.49 381.12-15.34L381.12-15.34L381.12-15.34Q380.90-16.19 380.57-16.84L380.57-16.84L380.57-16.84Q380.46-17.72 380.11-18.51L380.11-18.51L380.11-18.51Q379.75-19.30 379.75-20.13L379.75-20.13L379.75-20.13Q379.48-21 379.29-21.88L379.29-21.88L379.29-21.88Q379.09-22.75 378.82-23.63L378.82-23.63L378.82-23.63Q378.71-24.06 378.55-24.45L378.55-24.45L378.55-24.45Q378.38-24.83 378.27-25.21L378.27-25.21L378.27-25.21Q378.11-25.70 378-26.25L378-26.25L378-26.25Q377.89-26.80 377.78-27.34L377.78-27.34L377.78-27.34Q377.62-27.84 377.45-28.30L377.45-28.30L377.45-28.30Q377.29-28.77 377.13-29.26L377.13-29.26L377.13-29.26Q376.85-30.19 376.61-31.09L376.61-31.09L376.61-31.09Q376.36-31.99 376.09-32.92L376.09-32.92L376.09-32.92Q375.81-33.96 375.57-34.97L375.57-34.97L375.57-34.97Q375.32-35.98 374.72-36.91L374.72-36.91L374.72-36.91Q374.55-37.19 374.47-37.54L374.47-37.54L374.47-37.54Q374.39-37.90 374.23-38.23L374.23-38.23L374.23-38.23Q374.34-38.66 374.28-39.24L374.28-39.24L374.28-39.24Q374.23-39.81 374.45-40.14L374.45-40.14L374.45-40.14Q374.99-40.14 375.76-40.17L375.76-40.17L375.76-40.17Q376.52-40.20 376.91-40.09L376.91-40.09L376.91-40.09Q377.13-40.14 377.26-40.25L377.26-40.25L377.26-40.25Q377.40-40.36 377.62-40.41L377.62-40.41L377.62-40.41Q377.95-40.25 378.27-40.25L378.27-40.25L378.27-40.25Q378.77-40.25 379.04-40.47L379.04-40.47L379.04-40.47Q379.64-40.20 379.70-40.36L379.70-40.36L379.70-40.36Q379.75-40.52 379.97-40.52L379.97-40.52L379.97-40.52Q380.30-40.41 380.46-40.06L380.46-40.06L380.46-40.06Q380.63-39.70 380.79-39.43L380.79-39.43L380.79-39.43Q381.39-38.34 381.69-37.27L381.69-37.27L381.69-37.27Q381.99-36.20 382.32-35L382.32-35L382.32-35Q382.70-33.91 383.03-32.84L383.03-32.84L383.03-32.84Q383.36-31.77 383.63-30.68L383.63-30.68L383.63-30.68Q383.80-30.13 383.91-29.59L383.91-29.59L383.91-29.59Q384.02-29.04 384.13-28.49L384.13-28.49L384.13-28.49Q384.29-27.89 384.51-27.37L384.51-27.37L384.51-27.37Q384.73-26.85 384.95-26.25L384.95-26.25L384.95-26.25Q385.05-25.65 385.16-25.07L385.16-25.07L385.16-25.07Q385.27-24.50 385.44-23.90L385.44-23.90L385.44-23.90Q385.55-23.46 385.71-23.08L385.71-23.08L385.71-23.08Q385.88-22.70 385.98-22.26L385.98-22.26L385.98-22.26Q386.09-21.82 386.20-21.36L386.20-21.36L386.20-21.36Q386.31-20.89 386.42-20.45L386.42-20.45L386.42-20.45Q386.70-19.36 387.02-18.29L387.02-18.29L387.02-18.29Q387.35-17.23 387.63-16.13L387.63-16.13L387.63-16.13Q387.90-16.30 387.95-16.73L387.95-16.73L387.95-16.73Q388.01-17.17 388.17-17.45L388.17-17.45L388.17-17.45Q388.28-18.10 388.53-18.87L388.53-18.87L388.53-18.87Q388.77-19.63 388.99-20.29L388.99-20.29L388.99-20.29Q389.05-20.56 389.13-20.78L389.13-20.78L389.13-20.78Q389.21-21 389.32-21.27L389.32-21.27L389.32-21.27Q389.48-21.60 389.54-21.96L389.54-21.96L389.54-21.96Q389.59-22.31 389.70-22.70L389.70-22.70L389.70-22.70Q389.92-23.46 390.17-24.23L390.17-24.23L390.17-24.23Q390.41-24.99 390.63-25.76L390.63-25.76L390.63-25.76Q390.85-26.47 391.02-27.23L391.02-27.23L391.02-27.23Q391.18-28 391.45-28.66L391.45-28.66L391.45-28.66Q391.73-29.26 391.92-29.80L391.92-29.80L391.92-29.80Q392.11-30.35 392.27-30.95L392.27-30.95L392.27-30.95Q392.44-31.55 392.55-32.16L392.55-32.16L392.55-32.16Q392.66-32.76 392.93-33.25L392.93-33.25L392.93-33.25Q393.04-33.52 393.18-33.88L393.18-33.88L393.18-33.88Q393.31-34.23 393.42-34.56L393.42-34.56L393.42-34.56Q393.70-35.44 393.91-36.31L393.91-36.31L393.91-36.31Q394.13-37.19 394.52-38.06L394.52-38.06L394.52-38.06Q394.79-38.83 395.17-39.54L395.17-39.54L395.17-39.54Q395.55-40.25 395.83-41.02L395.83-41.02L395.83-41.02Q396.05-41.56 396.21-41.73L396.21-41.73L396.21-41.73Q396.38-41.89 396.54-42.05Z" fill="#757476"></path></g></g><style>text {
  font-size: 64px;
  font-family: Arial Black;
  dominant-baseline: central;
  text-anchor: middle;
}</style></svg>